G75*
%MOIN*%
%OFA0B0*%
%FSLAX25Y25*%
%IPPOS*%
%LPD*%
%AMOC8*
5,1,8,0,0,1.08239X$1,22.5*
%
%ADD10C,0.00800*%
%ADD11C,0.00500*%
%ADD12C,0.00400*%
D10*
X0038342Y0013800D02*
X0038342Y0018800D01*
X0040842Y0021300D01*
X0038342Y0023800D01*
X0038342Y0028800D01*
X0040842Y0031300D01*
X0038342Y0033800D01*
X0038342Y0038800D01*
X0040842Y0041300D01*
X0038342Y0043800D01*
X0038342Y0048800D01*
X0040842Y0051300D01*
X0038342Y0053800D01*
X0038342Y0058800D01*
X0040842Y0061300D01*
X0038342Y0063800D01*
X0038342Y0068800D01*
X0040842Y0071300D01*
X0038342Y0073800D01*
X0038342Y0078800D01*
X0040842Y0081300D01*
X0038342Y0083800D01*
X0038342Y0088800D01*
X0040842Y0091300D01*
X0045842Y0091300D01*
X0048342Y0088800D01*
X0048342Y0083800D01*
X0045842Y0081300D01*
X0048342Y0078800D01*
X0048342Y0073800D01*
X0045842Y0071300D01*
X0048342Y0068800D01*
X0048342Y0063800D01*
X0045842Y0061300D01*
X0048342Y0058800D01*
X0048342Y0053800D01*
X0045842Y0051300D01*
X0048342Y0048800D01*
X0048342Y0043800D01*
X0045842Y0041300D01*
X0048342Y0038800D01*
X0048342Y0033800D01*
X0045842Y0031300D01*
X0048342Y0028800D01*
X0048342Y0023800D01*
X0045842Y0021300D01*
X0048342Y0018800D01*
X0048342Y0013800D01*
X0045842Y0011300D01*
X0040842Y0011300D01*
X0038342Y0013800D01*
X0058342Y0013800D02*
X0060842Y0011300D01*
X0065842Y0011300D01*
X0068342Y0013800D01*
X0068342Y0018800D01*
X0065842Y0021300D01*
X0068342Y0023800D01*
X0068342Y0028800D01*
X0065842Y0031300D01*
X0068342Y0033800D01*
X0068342Y0038800D01*
X0065842Y0041300D01*
X0068342Y0043800D01*
X0068342Y0048800D01*
X0065842Y0051300D01*
X0060842Y0051300D01*
X0058342Y0048800D01*
X0058342Y0043800D01*
X0060842Y0041300D01*
X0058342Y0038800D01*
X0058342Y0033800D01*
X0060842Y0031300D01*
X0058342Y0028800D01*
X0058342Y0023800D01*
X0060842Y0021300D01*
X0058342Y0018800D01*
X0058342Y0013800D01*
X0088342Y0033800D02*
X0088342Y0038800D01*
X0090842Y0041300D01*
X0088342Y0043800D01*
X0088342Y0048800D01*
X0090842Y0051300D01*
X0088342Y0053800D01*
X0088342Y0058800D01*
X0090842Y0061300D01*
X0088342Y0063800D01*
X0088342Y0068800D01*
X0090842Y0071300D01*
X0095842Y0071300D01*
X0098342Y0068800D01*
X0098342Y0063800D01*
X0095842Y0061300D01*
X0098342Y0058800D01*
X0098342Y0053800D01*
X0095842Y0051300D01*
X0098342Y0048800D01*
X0098342Y0043800D01*
X0095842Y0041300D01*
X0098342Y0038800D01*
X0098342Y0033800D01*
X0095842Y0031300D01*
X0090842Y0031300D01*
X0088342Y0033800D01*
X0108342Y0033800D02*
X0108342Y0038800D01*
X0110842Y0041300D01*
X0108342Y0043800D01*
X0108342Y0048800D01*
X0110842Y0051300D01*
X0108342Y0053800D01*
X0108342Y0058800D01*
X0110842Y0061300D01*
X0108342Y0063800D01*
X0108342Y0068800D01*
X0110842Y0071300D01*
X0115842Y0071300D01*
X0118342Y0068800D01*
X0118342Y0063800D01*
X0115842Y0061300D01*
X0118342Y0058800D01*
X0118342Y0053800D01*
X0115842Y0051300D01*
X0118342Y0048800D01*
X0118342Y0043800D01*
X0115842Y0041300D01*
X0118342Y0038800D01*
X0118342Y0033800D01*
X0115842Y0031300D01*
X0110842Y0031300D01*
X0108342Y0033800D01*
X0128342Y0033800D02*
X0128342Y0038800D01*
X0130842Y0041300D01*
X0128342Y0043800D01*
X0128342Y0048800D01*
X0130842Y0051300D01*
X0128342Y0053800D01*
X0128342Y0058800D01*
X0130842Y0061300D01*
X0128342Y0063800D01*
X0128342Y0068800D01*
X0130842Y0071300D01*
X0128342Y0073800D01*
X0128342Y0078800D01*
X0130842Y0081300D01*
X0128342Y0083800D01*
X0128342Y0088800D01*
X0130842Y0091300D01*
X0135842Y0091300D01*
X0138342Y0088800D01*
X0138342Y0083800D01*
X0135842Y0081300D01*
X0138342Y0078800D01*
X0138342Y0073800D01*
X0135842Y0071300D01*
X0138342Y0068800D01*
X0138342Y0063800D01*
X0135842Y0061300D01*
X0138342Y0058800D01*
X0138342Y0053800D01*
X0135842Y0051300D01*
X0138342Y0048800D01*
X0138342Y0043800D01*
X0135842Y0041300D01*
X0138342Y0038800D01*
X0138342Y0033800D01*
X0135842Y0031300D01*
X0138342Y0028800D01*
X0138342Y0023800D01*
X0135842Y0021300D01*
X0138342Y0018800D01*
X0138342Y0013800D01*
X0135842Y0011300D01*
X0130842Y0011300D01*
X0128342Y0013800D01*
X0128342Y0018800D01*
X0130842Y0021300D01*
X0128342Y0023800D01*
X0128342Y0028800D01*
X0130842Y0031300D01*
X0128342Y0033800D01*
X0100842Y0086300D02*
X0095842Y0086300D01*
X0093342Y0088800D01*
X0090842Y0086300D01*
X0085842Y0086300D01*
X0083342Y0088800D01*
X0080842Y0086300D01*
X0075842Y0086300D01*
X0073342Y0088800D01*
X0070842Y0086300D01*
X0065842Y0086300D01*
X0063342Y0088800D01*
X0063342Y0093800D01*
X0065842Y0096300D01*
X0070842Y0096300D01*
X0073342Y0093800D01*
X0075842Y0096300D01*
X0080842Y0096300D01*
X0083342Y0093800D01*
X0085842Y0096300D01*
X0090842Y0096300D01*
X0093342Y0093800D01*
X0095842Y0096300D01*
X0100842Y0096300D01*
X0103342Y0093800D01*
X0103342Y0088800D01*
X0100842Y0086300D01*
D11*
X0101087Y0085022D02*
X0101087Y0084178D01*
X0100876Y0084072D02*
X0101298Y0083650D01*
X0102036Y0083650D02*
X0103092Y0083650D01*
X0102036Y0083650D02*
X0102933Y0084706D01*
X0102617Y0085550D02*
X0102569Y0085548D01*
X0102522Y0085542D01*
X0102474Y0085533D01*
X0102428Y0085520D01*
X0102383Y0085503D01*
X0102340Y0085483D01*
X0102298Y0085460D01*
X0102258Y0085433D01*
X0102221Y0085404D01*
X0102185Y0085371D01*
X0102153Y0085336D01*
X0102123Y0085298D01*
X0102097Y0085258D01*
X0102073Y0085216D01*
X0102053Y0085173D01*
X0102037Y0085128D01*
X0102934Y0084706D02*
X0102962Y0084735D01*
X0102989Y0084767D01*
X0103012Y0084801D01*
X0103033Y0084837D01*
X0103051Y0084874D01*
X0103065Y0084913D01*
X0103077Y0084952D01*
X0103085Y0084993D01*
X0103090Y0085034D01*
X0103092Y0085075D01*
X0103090Y0085116D01*
X0103085Y0085157D01*
X0103076Y0085198D01*
X0103063Y0085237D01*
X0103047Y0085276D01*
X0103028Y0085313D01*
X0103006Y0085347D01*
X0102981Y0085380D01*
X0102953Y0085411D01*
X0102922Y0085439D01*
X0102889Y0085464D01*
X0102855Y0085486D01*
X0102818Y0085505D01*
X0102779Y0085521D01*
X0102740Y0085534D01*
X0102699Y0085543D01*
X0102658Y0085548D01*
X0102617Y0085550D01*
X0101087Y0085022D02*
X0101085Y0085067D01*
X0101079Y0085111D01*
X0101070Y0085155D01*
X0101057Y0085198D01*
X0101040Y0085239D01*
X0101020Y0085280D01*
X0100996Y0085318D01*
X0100970Y0085354D01*
X0100940Y0085387D01*
X0100908Y0085418D01*
X0100873Y0085447D01*
X0100836Y0085472D01*
X0100797Y0085493D01*
X0100756Y0085512D01*
X0100714Y0085527D01*
X0100670Y0085538D01*
X0100626Y0085546D01*
X0100581Y0085550D01*
X0100537Y0085550D01*
X0100492Y0085546D01*
X0100448Y0085538D01*
X0100404Y0085527D01*
X0100362Y0085512D01*
X0100321Y0085493D01*
X0100282Y0085472D01*
X0100245Y0085447D01*
X0100210Y0085418D01*
X0100178Y0085387D01*
X0100148Y0085354D01*
X0100122Y0085318D01*
X0100098Y0085280D01*
X0100078Y0085239D01*
X0100061Y0085198D01*
X0100048Y0085155D01*
X0100039Y0085111D01*
X0100033Y0085067D01*
X0100031Y0085022D01*
X0100031Y0084178D01*
X0100033Y0084133D01*
X0100039Y0084089D01*
X0100048Y0084045D01*
X0100061Y0084002D01*
X0100078Y0083961D01*
X0100098Y0083920D01*
X0100122Y0083882D01*
X0100148Y0083846D01*
X0100178Y0083813D01*
X0100210Y0083782D01*
X0100245Y0083753D01*
X0100282Y0083728D01*
X0100321Y0083707D01*
X0100362Y0083688D01*
X0100404Y0083673D01*
X0100448Y0083662D01*
X0100492Y0083654D01*
X0100537Y0083650D01*
X0100581Y0083650D01*
X0100626Y0083654D01*
X0100670Y0083662D01*
X0100714Y0083673D01*
X0100756Y0083688D01*
X0100797Y0083707D01*
X0100836Y0083728D01*
X0100873Y0083753D01*
X0100908Y0083782D01*
X0100940Y0083813D01*
X0100970Y0083846D01*
X0100996Y0083882D01*
X0101020Y0083920D01*
X0101040Y0083961D01*
X0101057Y0084002D01*
X0101070Y0084045D01*
X0101079Y0084089D01*
X0101085Y0084133D01*
X0101087Y0084178D01*
X0098589Y0083650D02*
X0098589Y0085550D01*
X0097956Y0084494D01*
X0097323Y0085550D01*
X0097323Y0083650D01*
X0099620Y0071050D02*
X0100464Y0071050D01*
X0100508Y0071048D01*
X0100551Y0071043D01*
X0100594Y0071034D01*
X0100635Y0071021D01*
X0100676Y0071006D01*
X0100715Y0070986D01*
X0100753Y0070964D01*
X0100788Y0070939D01*
X0100822Y0070910D01*
X0100852Y0070880D01*
X0100881Y0070846D01*
X0100906Y0070811D01*
X0100928Y0070773D01*
X0100948Y0070734D01*
X0100963Y0070693D01*
X0100976Y0070652D01*
X0100985Y0070609D01*
X0100990Y0070566D01*
X0100992Y0070522D01*
X0100992Y0069994D01*
X0099092Y0069994D01*
X0099092Y0070522D01*
X0099094Y0070566D01*
X0099099Y0070609D01*
X0099108Y0070652D01*
X0099121Y0070693D01*
X0099136Y0070734D01*
X0099156Y0070773D01*
X0099178Y0070811D01*
X0099203Y0070846D01*
X0099232Y0070880D01*
X0099262Y0070910D01*
X0099296Y0070939D01*
X0099331Y0070964D01*
X0099369Y0070986D01*
X0099408Y0071006D01*
X0099449Y0071021D01*
X0099490Y0071034D01*
X0099533Y0071043D01*
X0099576Y0071048D01*
X0099620Y0071050D01*
X0099092Y0068975D02*
X0099092Y0068130D01*
X0100992Y0068130D01*
X0100992Y0068975D01*
X0099936Y0068763D02*
X0099936Y0068130D01*
X0100992Y0067103D02*
X0100992Y0066258D01*
X0099092Y0066258D01*
X0099620Y0065074D02*
X0100464Y0065074D01*
X0100509Y0065072D01*
X0100553Y0065066D01*
X0100597Y0065057D01*
X0100640Y0065044D01*
X0100681Y0065027D01*
X0100722Y0065007D01*
X0100760Y0064983D01*
X0100796Y0064957D01*
X0100829Y0064927D01*
X0100860Y0064895D01*
X0100889Y0064860D01*
X0100914Y0064823D01*
X0100935Y0064784D01*
X0100954Y0064743D01*
X0100969Y0064701D01*
X0100980Y0064657D01*
X0100988Y0064613D01*
X0100992Y0064568D01*
X0100992Y0064524D01*
X0100988Y0064479D01*
X0100980Y0064435D01*
X0100969Y0064391D01*
X0100954Y0064349D01*
X0100935Y0064308D01*
X0100914Y0064269D01*
X0100889Y0064232D01*
X0100860Y0064197D01*
X0100829Y0064165D01*
X0100796Y0064135D01*
X0100760Y0064109D01*
X0100722Y0064085D01*
X0100681Y0064065D01*
X0100640Y0064048D01*
X0100597Y0064035D01*
X0100553Y0064026D01*
X0100509Y0064020D01*
X0100464Y0064018D01*
X0100464Y0064019D02*
X0099620Y0064019D01*
X0099620Y0064018D02*
X0099575Y0064020D01*
X0099531Y0064026D01*
X0099487Y0064035D01*
X0099444Y0064048D01*
X0099403Y0064065D01*
X0099362Y0064085D01*
X0099324Y0064109D01*
X0099288Y0064135D01*
X0099255Y0064165D01*
X0099224Y0064197D01*
X0099195Y0064232D01*
X0099170Y0064269D01*
X0099149Y0064308D01*
X0099130Y0064349D01*
X0099115Y0064391D01*
X0099104Y0064435D01*
X0099096Y0064479D01*
X0099092Y0064524D01*
X0099092Y0064568D01*
X0099096Y0064613D01*
X0099104Y0064657D01*
X0099115Y0064701D01*
X0099130Y0064743D01*
X0099149Y0064784D01*
X0099170Y0064823D01*
X0099195Y0064860D01*
X0099224Y0064895D01*
X0099255Y0064927D01*
X0099288Y0064957D01*
X0099324Y0064983D01*
X0099362Y0065007D01*
X0099403Y0065027D01*
X0099444Y0065044D01*
X0099487Y0065057D01*
X0099531Y0065066D01*
X0099575Y0065072D01*
X0099620Y0065074D01*
X0119092Y0065818D02*
X0120992Y0065818D01*
X0119936Y0065818D02*
X0119936Y0066874D01*
X0119092Y0066874D02*
X0120992Y0066874D01*
X0120992Y0068434D02*
X0119092Y0068434D01*
X0119092Y0067906D02*
X0119092Y0068962D01*
X0119092Y0069994D02*
X0120464Y0069994D01*
X0120509Y0069996D01*
X0120553Y0070002D01*
X0120597Y0070011D01*
X0120640Y0070024D01*
X0120681Y0070041D01*
X0120722Y0070061D01*
X0120760Y0070085D01*
X0120796Y0070111D01*
X0120829Y0070141D01*
X0120860Y0070173D01*
X0120889Y0070208D01*
X0120914Y0070245D01*
X0120935Y0070284D01*
X0120954Y0070325D01*
X0120969Y0070367D01*
X0120980Y0070411D01*
X0120988Y0070455D01*
X0120992Y0070500D01*
X0120992Y0070544D01*
X0120988Y0070589D01*
X0120980Y0070633D01*
X0120969Y0070677D01*
X0120954Y0070719D01*
X0120935Y0070760D01*
X0120914Y0070799D01*
X0120889Y0070836D01*
X0120860Y0070871D01*
X0120829Y0070903D01*
X0120796Y0070933D01*
X0120760Y0070959D01*
X0120722Y0070983D01*
X0120681Y0071003D01*
X0120640Y0071020D01*
X0120597Y0071033D01*
X0120553Y0071042D01*
X0120509Y0071048D01*
X0120464Y0071050D01*
X0119092Y0071050D01*
X0127592Y0028571D02*
X0126747Y0028149D01*
X0126747Y0028043D02*
X0126747Y0027516D01*
X0126748Y0028043D02*
X0126746Y0028088D01*
X0126740Y0028132D01*
X0126731Y0028176D01*
X0126718Y0028219D01*
X0126701Y0028260D01*
X0126681Y0028301D01*
X0126657Y0028339D01*
X0126631Y0028375D01*
X0126601Y0028408D01*
X0126569Y0028439D01*
X0126534Y0028468D01*
X0126497Y0028493D01*
X0126458Y0028514D01*
X0126417Y0028533D01*
X0126375Y0028548D01*
X0126331Y0028559D01*
X0126287Y0028567D01*
X0126242Y0028571D01*
X0126198Y0028571D01*
X0126153Y0028567D01*
X0126109Y0028559D01*
X0126065Y0028548D01*
X0126023Y0028533D01*
X0125982Y0028514D01*
X0125943Y0028493D01*
X0125906Y0028468D01*
X0125871Y0028439D01*
X0125839Y0028408D01*
X0125809Y0028375D01*
X0125783Y0028339D01*
X0125759Y0028301D01*
X0125739Y0028260D01*
X0125722Y0028219D01*
X0125709Y0028176D01*
X0125700Y0028132D01*
X0125694Y0028088D01*
X0125692Y0028043D01*
X0125692Y0027516D01*
X0127592Y0027516D01*
X0127592Y0026314D02*
X0127592Y0025259D01*
X0127592Y0025786D02*
X0125692Y0025786D01*
X0126114Y0025259D01*
X0126220Y0024082D02*
X0127064Y0024082D01*
X0127108Y0024080D01*
X0127151Y0024075D01*
X0127194Y0024066D01*
X0127235Y0024053D01*
X0127276Y0024038D01*
X0127315Y0024018D01*
X0127353Y0023996D01*
X0127388Y0023971D01*
X0127422Y0023942D01*
X0127452Y0023912D01*
X0127481Y0023878D01*
X0127506Y0023843D01*
X0127528Y0023805D01*
X0127548Y0023766D01*
X0127563Y0023725D01*
X0127576Y0023684D01*
X0127585Y0023641D01*
X0127590Y0023598D01*
X0127592Y0023554D01*
X0127592Y0023027D01*
X0125692Y0023027D01*
X0125692Y0023554D01*
X0125694Y0023598D01*
X0125699Y0023641D01*
X0125708Y0023684D01*
X0125721Y0023725D01*
X0125736Y0023766D01*
X0125756Y0023805D01*
X0125778Y0023843D01*
X0125803Y0023878D01*
X0125832Y0023912D01*
X0125862Y0023942D01*
X0125896Y0023971D01*
X0125931Y0023996D01*
X0125969Y0024018D01*
X0126008Y0024038D01*
X0126049Y0024053D01*
X0126090Y0024066D01*
X0126133Y0024075D01*
X0126176Y0024080D01*
X0126220Y0024082D01*
X0126800Y0021711D02*
X0126483Y0021130D01*
X0125691Y0021342D02*
X0125693Y0021393D01*
X0125698Y0021444D01*
X0125706Y0021494D01*
X0125717Y0021544D01*
X0125732Y0021592D01*
X0125749Y0021640D01*
X0125770Y0021687D01*
X0125794Y0021732D01*
X0125820Y0021775D01*
X0125849Y0021817D01*
X0126484Y0021130D02*
X0126461Y0021096D01*
X0126436Y0021065D01*
X0126408Y0021036D01*
X0126377Y0021009D01*
X0126344Y0020986D01*
X0126309Y0020966D01*
X0126272Y0020949D01*
X0126234Y0020936D01*
X0126195Y0020927D01*
X0126154Y0020921D01*
X0126114Y0020919D01*
X0126114Y0020920D02*
X0126075Y0020922D01*
X0126036Y0020927D01*
X0125999Y0020936D01*
X0125962Y0020948D01*
X0125926Y0020964D01*
X0125892Y0020983D01*
X0125860Y0021005D01*
X0125830Y0021030D01*
X0125802Y0021058D01*
X0125777Y0021088D01*
X0125755Y0021120D01*
X0125736Y0021154D01*
X0125720Y0021190D01*
X0125708Y0021227D01*
X0125699Y0021264D01*
X0125694Y0021303D01*
X0125692Y0021342D01*
X0127328Y0020867D02*
X0127368Y0020909D01*
X0127406Y0020955D01*
X0127440Y0021002D01*
X0127471Y0021052D01*
X0127499Y0021104D01*
X0127523Y0021157D01*
X0127544Y0021212D01*
X0127561Y0021268D01*
X0127575Y0021325D01*
X0127584Y0021383D01*
X0127590Y0021441D01*
X0127592Y0021500D01*
X0127590Y0021539D01*
X0127585Y0021578D01*
X0127576Y0021615D01*
X0127564Y0021652D01*
X0127548Y0021688D01*
X0127529Y0021722D01*
X0127507Y0021754D01*
X0127482Y0021784D01*
X0127454Y0021812D01*
X0127424Y0021837D01*
X0127392Y0021859D01*
X0127358Y0021878D01*
X0127322Y0021894D01*
X0127285Y0021906D01*
X0127248Y0021915D01*
X0127209Y0021920D01*
X0127170Y0021922D01*
X0127130Y0021920D01*
X0127089Y0021914D01*
X0127050Y0021905D01*
X0127012Y0021892D01*
X0126975Y0021875D01*
X0126940Y0021855D01*
X0126907Y0021832D01*
X0126876Y0021805D01*
X0126848Y0021776D01*
X0126823Y0021745D01*
X0126800Y0021711D01*
X0127064Y0019834D02*
X0126220Y0019834D01*
X0126175Y0019832D01*
X0126131Y0019826D01*
X0126087Y0019817D01*
X0126044Y0019804D01*
X0126003Y0019787D01*
X0125962Y0019767D01*
X0125924Y0019743D01*
X0125888Y0019717D01*
X0125855Y0019687D01*
X0125824Y0019655D01*
X0125795Y0019620D01*
X0125770Y0019583D01*
X0125749Y0019544D01*
X0125730Y0019503D01*
X0125715Y0019461D01*
X0125704Y0019417D01*
X0125696Y0019373D01*
X0125692Y0019328D01*
X0125692Y0019284D01*
X0125696Y0019239D01*
X0125704Y0019195D01*
X0125715Y0019151D01*
X0125730Y0019109D01*
X0125749Y0019068D01*
X0125770Y0019029D01*
X0125795Y0018992D01*
X0125824Y0018957D01*
X0125855Y0018925D01*
X0125888Y0018895D01*
X0125924Y0018869D01*
X0125962Y0018845D01*
X0126003Y0018825D01*
X0126044Y0018808D01*
X0126087Y0018795D01*
X0126131Y0018786D01*
X0126175Y0018780D01*
X0126220Y0018778D01*
X0126220Y0018779D02*
X0127064Y0018779D01*
X0127064Y0018778D02*
X0127109Y0018780D01*
X0127153Y0018786D01*
X0127197Y0018795D01*
X0127240Y0018808D01*
X0127281Y0018825D01*
X0127322Y0018845D01*
X0127360Y0018869D01*
X0127396Y0018895D01*
X0127429Y0018925D01*
X0127460Y0018957D01*
X0127489Y0018992D01*
X0127514Y0019029D01*
X0127535Y0019068D01*
X0127554Y0019109D01*
X0127569Y0019151D01*
X0127580Y0019195D01*
X0127588Y0019239D01*
X0127592Y0019284D01*
X0127592Y0019328D01*
X0127588Y0019373D01*
X0127580Y0019417D01*
X0127569Y0019461D01*
X0127554Y0019503D01*
X0127535Y0019544D01*
X0127514Y0019583D01*
X0127489Y0019620D01*
X0127460Y0019655D01*
X0127429Y0019687D01*
X0127396Y0019717D01*
X0127360Y0019743D01*
X0127322Y0019767D01*
X0127281Y0019787D01*
X0127240Y0019804D01*
X0127197Y0019817D01*
X0127153Y0019826D01*
X0127109Y0019832D01*
X0127064Y0019834D01*
X0127592Y0017564D02*
X0125692Y0017564D01*
X0126747Y0016930D01*
X0125692Y0016297D01*
X0127592Y0016297D01*
X0127592Y0015239D02*
X0127592Y0014394D01*
X0125692Y0014394D01*
X0125692Y0015239D01*
X0126536Y0015028D02*
X0126536Y0014394D01*
X0125692Y0013239D02*
X0127592Y0012817D01*
X0126325Y0012394D01*
X0127592Y0011972D01*
X0125692Y0011550D01*
X0057592Y0011550D02*
X0055692Y0011550D01*
X0055692Y0012078D01*
X0055694Y0012123D01*
X0055700Y0012167D01*
X0055709Y0012211D01*
X0055722Y0012254D01*
X0055739Y0012295D01*
X0055759Y0012336D01*
X0055783Y0012374D01*
X0055809Y0012410D01*
X0055839Y0012443D01*
X0055871Y0012474D01*
X0055906Y0012503D01*
X0055943Y0012528D01*
X0055982Y0012549D01*
X0056023Y0012568D01*
X0056065Y0012583D01*
X0056109Y0012594D01*
X0056153Y0012602D01*
X0056198Y0012606D01*
X0056242Y0012606D01*
X0056287Y0012602D01*
X0056331Y0012594D01*
X0056375Y0012583D01*
X0056417Y0012568D01*
X0056458Y0012549D01*
X0056497Y0012528D01*
X0056534Y0012503D01*
X0056569Y0012474D01*
X0056601Y0012443D01*
X0056631Y0012410D01*
X0056657Y0012374D01*
X0056681Y0012336D01*
X0056701Y0012295D01*
X0056718Y0012254D01*
X0056731Y0012211D01*
X0056740Y0012167D01*
X0056746Y0012123D01*
X0056748Y0012078D01*
X0056747Y0012078D02*
X0056747Y0011550D01*
X0056747Y0012183D02*
X0057592Y0012606D01*
X0057170Y0013757D02*
X0056114Y0013757D01*
X0056075Y0013759D01*
X0056036Y0013764D01*
X0055999Y0013773D01*
X0055962Y0013785D01*
X0055926Y0013801D01*
X0055892Y0013820D01*
X0055860Y0013842D01*
X0055830Y0013867D01*
X0055802Y0013895D01*
X0055777Y0013925D01*
X0055755Y0013957D01*
X0055736Y0013991D01*
X0055721Y0014027D01*
X0055708Y0014063D01*
X0055699Y0014101D01*
X0055694Y0014140D01*
X0055692Y0014179D01*
X0055692Y0014812D01*
X0056536Y0014812D02*
X0057592Y0014812D01*
X0057592Y0014179D01*
X0057590Y0014140D01*
X0057585Y0014101D01*
X0057576Y0014064D01*
X0057564Y0014027D01*
X0057548Y0013991D01*
X0057529Y0013957D01*
X0057507Y0013925D01*
X0057482Y0013895D01*
X0057454Y0013867D01*
X0057424Y0013842D01*
X0057392Y0013820D01*
X0057358Y0013801D01*
X0057322Y0013785D01*
X0057285Y0013773D01*
X0057248Y0013764D01*
X0057209Y0013759D01*
X0057170Y0013757D01*
X0056536Y0014496D02*
X0056536Y0014812D01*
X0056536Y0016119D02*
X0056536Y0016646D01*
X0056534Y0016686D01*
X0056528Y0016726D01*
X0056519Y0016765D01*
X0056506Y0016803D01*
X0056489Y0016839D01*
X0056469Y0016874D01*
X0056446Y0016907D01*
X0056419Y0016937D01*
X0056390Y0016965D01*
X0056359Y0016990D01*
X0056325Y0017011D01*
X0056289Y0017030D01*
X0056252Y0017045D01*
X0056213Y0017056D01*
X0056174Y0017064D01*
X0056134Y0017068D01*
X0056094Y0017068D01*
X0056054Y0017064D01*
X0056015Y0017056D01*
X0055976Y0017045D01*
X0055939Y0017030D01*
X0055903Y0017011D01*
X0055869Y0016990D01*
X0055838Y0016965D01*
X0055809Y0016937D01*
X0055782Y0016907D01*
X0055759Y0016874D01*
X0055739Y0016839D01*
X0055722Y0016803D01*
X0055709Y0016765D01*
X0055700Y0016726D01*
X0055694Y0016686D01*
X0055692Y0016646D01*
X0055692Y0016119D01*
X0057592Y0016119D01*
X0057592Y0016646D01*
X0057590Y0016691D01*
X0057584Y0016735D01*
X0057575Y0016779D01*
X0057562Y0016822D01*
X0057545Y0016863D01*
X0057525Y0016904D01*
X0057501Y0016942D01*
X0057475Y0016978D01*
X0057445Y0017011D01*
X0057413Y0017042D01*
X0057378Y0017071D01*
X0057341Y0017096D01*
X0057302Y0017117D01*
X0057261Y0017136D01*
X0057219Y0017151D01*
X0057175Y0017162D01*
X0057131Y0017170D01*
X0057086Y0017174D01*
X0057042Y0017174D01*
X0056997Y0017170D01*
X0056953Y0017162D01*
X0056909Y0017151D01*
X0056867Y0017136D01*
X0056826Y0017117D01*
X0056787Y0017096D01*
X0056750Y0017071D01*
X0056715Y0017042D01*
X0056683Y0017011D01*
X0056653Y0016978D01*
X0056627Y0016942D01*
X0056603Y0016904D01*
X0056583Y0016863D01*
X0056566Y0016822D01*
X0056553Y0016779D01*
X0056544Y0016735D01*
X0056538Y0016691D01*
X0056536Y0016646D01*
X0049092Y0074257D02*
X0050992Y0074680D01*
X0049725Y0075102D01*
X0050992Y0075524D01*
X0049092Y0075946D01*
X0049092Y0077102D02*
X0049092Y0077946D01*
X0049092Y0077102D02*
X0050992Y0077102D01*
X0050992Y0077946D01*
X0050992Y0079004D02*
X0049092Y0079004D01*
X0050147Y0079638D01*
X0049092Y0080271D01*
X0050992Y0080271D01*
X0050464Y0081486D02*
X0049620Y0081486D01*
X0049575Y0081488D01*
X0049531Y0081494D01*
X0049487Y0081503D01*
X0049444Y0081516D01*
X0049403Y0081533D01*
X0049362Y0081553D01*
X0049324Y0081577D01*
X0049288Y0081603D01*
X0049255Y0081633D01*
X0049224Y0081665D01*
X0049195Y0081700D01*
X0049170Y0081737D01*
X0049149Y0081776D01*
X0049130Y0081817D01*
X0049115Y0081859D01*
X0049104Y0081903D01*
X0049096Y0081947D01*
X0049092Y0081992D01*
X0049092Y0082036D01*
X0049096Y0082081D01*
X0049104Y0082125D01*
X0049115Y0082169D01*
X0049130Y0082211D01*
X0049149Y0082252D01*
X0049170Y0082291D01*
X0049195Y0082328D01*
X0049224Y0082363D01*
X0049255Y0082395D01*
X0049288Y0082425D01*
X0049324Y0082451D01*
X0049362Y0082475D01*
X0049403Y0082495D01*
X0049444Y0082512D01*
X0049487Y0082525D01*
X0049531Y0082534D01*
X0049575Y0082540D01*
X0049620Y0082542D01*
X0049620Y0082541D02*
X0050464Y0082541D01*
X0050464Y0082542D02*
X0050509Y0082540D01*
X0050553Y0082534D01*
X0050597Y0082525D01*
X0050640Y0082512D01*
X0050681Y0082495D01*
X0050722Y0082475D01*
X0050760Y0082451D01*
X0050796Y0082425D01*
X0050829Y0082395D01*
X0050860Y0082363D01*
X0050889Y0082328D01*
X0050914Y0082291D01*
X0050935Y0082252D01*
X0050954Y0082211D01*
X0050969Y0082169D01*
X0050980Y0082125D01*
X0050988Y0082081D01*
X0050992Y0082036D01*
X0050992Y0081992D01*
X0050988Y0081947D01*
X0050980Y0081903D01*
X0050969Y0081859D01*
X0050954Y0081817D01*
X0050935Y0081776D01*
X0050914Y0081737D01*
X0050889Y0081700D01*
X0050860Y0081665D01*
X0050829Y0081633D01*
X0050796Y0081603D01*
X0050760Y0081577D01*
X0050722Y0081553D01*
X0050681Y0081533D01*
X0050640Y0081516D01*
X0050597Y0081503D01*
X0050553Y0081494D01*
X0050509Y0081488D01*
X0050464Y0081486D01*
X0049883Y0083838D02*
X0050200Y0084418D01*
X0050992Y0084207D02*
X0050990Y0084148D01*
X0050984Y0084090D01*
X0050975Y0084032D01*
X0050961Y0083975D01*
X0050944Y0083919D01*
X0050923Y0083864D01*
X0050899Y0083811D01*
X0050871Y0083759D01*
X0050840Y0083709D01*
X0050806Y0083662D01*
X0050768Y0083616D01*
X0050728Y0083574D01*
X0050200Y0084419D02*
X0050223Y0084453D01*
X0050248Y0084484D01*
X0050276Y0084513D01*
X0050307Y0084540D01*
X0050340Y0084563D01*
X0050375Y0084583D01*
X0050412Y0084600D01*
X0050450Y0084613D01*
X0050489Y0084622D01*
X0050530Y0084628D01*
X0050570Y0084630D01*
X0050570Y0084629D02*
X0050609Y0084627D01*
X0050648Y0084622D01*
X0050685Y0084613D01*
X0050722Y0084601D01*
X0050758Y0084585D01*
X0050792Y0084566D01*
X0050824Y0084544D01*
X0050854Y0084519D01*
X0050882Y0084491D01*
X0050907Y0084461D01*
X0050929Y0084429D01*
X0050948Y0084395D01*
X0050964Y0084359D01*
X0050976Y0084322D01*
X0050985Y0084285D01*
X0050990Y0084246D01*
X0050992Y0084207D01*
X0049249Y0084524D02*
X0049220Y0084482D01*
X0049194Y0084439D01*
X0049170Y0084394D01*
X0049149Y0084347D01*
X0049132Y0084299D01*
X0049117Y0084251D01*
X0049106Y0084201D01*
X0049098Y0084151D01*
X0049093Y0084100D01*
X0049091Y0084049D01*
X0049092Y0084049D02*
X0049094Y0084010D01*
X0049099Y0083971D01*
X0049108Y0083934D01*
X0049120Y0083897D01*
X0049136Y0083861D01*
X0049155Y0083827D01*
X0049177Y0083795D01*
X0049202Y0083765D01*
X0049230Y0083737D01*
X0049260Y0083712D01*
X0049292Y0083690D01*
X0049326Y0083671D01*
X0049362Y0083655D01*
X0049399Y0083643D01*
X0049436Y0083634D01*
X0049475Y0083629D01*
X0049514Y0083627D01*
X0049514Y0083626D02*
X0049554Y0083628D01*
X0049595Y0083634D01*
X0049634Y0083643D01*
X0049672Y0083656D01*
X0049709Y0083673D01*
X0049744Y0083693D01*
X0049777Y0083716D01*
X0049808Y0083743D01*
X0049836Y0083772D01*
X0049861Y0083803D01*
X0049884Y0083837D01*
X0049092Y0085734D02*
X0049092Y0086262D01*
X0049094Y0086306D01*
X0049099Y0086349D01*
X0049108Y0086392D01*
X0049121Y0086433D01*
X0049136Y0086474D01*
X0049156Y0086513D01*
X0049178Y0086551D01*
X0049203Y0086586D01*
X0049232Y0086620D01*
X0049262Y0086650D01*
X0049296Y0086679D01*
X0049331Y0086704D01*
X0049369Y0086726D01*
X0049408Y0086746D01*
X0049449Y0086761D01*
X0049490Y0086774D01*
X0049533Y0086783D01*
X0049576Y0086788D01*
X0049620Y0086790D01*
X0049620Y0086789D02*
X0050464Y0086789D01*
X0050464Y0086790D02*
X0050508Y0086788D01*
X0050551Y0086783D01*
X0050594Y0086774D01*
X0050635Y0086761D01*
X0050676Y0086746D01*
X0050715Y0086726D01*
X0050753Y0086704D01*
X0050788Y0086679D01*
X0050822Y0086650D01*
X0050852Y0086620D01*
X0050881Y0086586D01*
X0050906Y0086551D01*
X0050928Y0086513D01*
X0050948Y0086474D01*
X0050963Y0086433D01*
X0050976Y0086392D01*
X0050985Y0086349D01*
X0050990Y0086306D01*
X0050992Y0086262D01*
X0050992Y0085734D01*
X0049092Y0085734D01*
X0049514Y0087966D02*
X0049092Y0088494D01*
X0050992Y0088494D01*
X0050992Y0089021D02*
X0050992Y0087966D01*
X0050992Y0090206D02*
X0049092Y0090206D01*
X0050992Y0090206D02*
X0050992Y0091050D01*
X0049936Y0077735D02*
X0049936Y0077102D01*
D12*
X0058615Y0071100D02*
X0059893Y0071100D01*
X0058615Y0071100D02*
X0058615Y0066500D01*
X0058615Y0068544D02*
X0059893Y0068544D01*
X0060149Y0068544D02*
X0061171Y0066500D01*
X0063086Y0066500D02*
X0065642Y0066500D01*
X0064364Y0066500D02*
X0064364Y0071100D01*
X0063086Y0070078D01*
X0059893Y0071100D02*
X0059963Y0071098D01*
X0060034Y0071092D01*
X0060103Y0071083D01*
X0060172Y0071069D01*
X0060241Y0071052D01*
X0060308Y0071031D01*
X0060374Y0071006D01*
X0060438Y0070978D01*
X0060501Y0070946D01*
X0060562Y0070911D01*
X0060621Y0070872D01*
X0060678Y0070831D01*
X0060732Y0070786D01*
X0060784Y0070738D01*
X0060833Y0070688D01*
X0060880Y0070634D01*
X0060923Y0070579D01*
X0060963Y0070521D01*
X0061000Y0070461D01*
X0061033Y0070399D01*
X0061063Y0070335D01*
X0061090Y0070270D01*
X0061113Y0070204D01*
X0061132Y0070136D01*
X0061147Y0070067D01*
X0061159Y0069998D01*
X0061167Y0069928D01*
X0061171Y0069857D01*
X0061171Y0069787D01*
X0061167Y0069716D01*
X0061159Y0069646D01*
X0061147Y0069577D01*
X0061132Y0069508D01*
X0061113Y0069440D01*
X0061090Y0069374D01*
X0061063Y0069309D01*
X0061033Y0069245D01*
X0061000Y0069183D01*
X0060963Y0069123D01*
X0060923Y0069065D01*
X0060880Y0069010D01*
X0060833Y0068956D01*
X0060784Y0068906D01*
X0060732Y0068858D01*
X0060678Y0068813D01*
X0060621Y0068772D01*
X0060562Y0068733D01*
X0060501Y0068698D01*
X0060438Y0068666D01*
X0060374Y0068638D01*
X0060308Y0068613D01*
X0060241Y0068592D01*
X0060172Y0068575D01*
X0060103Y0068561D01*
X0060034Y0068552D01*
X0059963Y0068546D01*
X0059893Y0068544D01*
M02*
