G75*
%MOIN*%
%OFA0B0*%
%FSLAX25Y25*%
%IPPOS*%
%LPD*%
%AMOC8*
5,1,8,0,0,1.08239X$1,22.5*
%
%ADD10C,0.07400*%
%ADD11C,0.00600*%
%ADD12C,0.04134*%
%ADD13C,0.01000*%
D10*
X0043342Y0016300D03*
X0043342Y0026300D03*
X0043342Y0036300D03*
X0043342Y0046300D03*
X0043342Y0056300D03*
X0043342Y0066300D03*
X0043342Y0076300D03*
X0043342Y0086300D03*
X0068342Y0091300D03*
X0078342Y0091300D03*
X0088342Y0091300D03*
X0098342Y0091300D03*
X0093342Y0066300D03*
X0093342Y0056300D03*
X0093342Y0046300D03*
X0093342Y0036300D03*
X0113342Y0036300D03*
X0113342Y0046300D03*
X0113342Y0056300D03*
X0113342Y0066300D03*
X0133342Y0066300D03*
X0133342Y0056300D03*
X0133342Y0046300D03*
X0133342Y0036300D03*
X0133342Y0026300D03*
X0133342Y0016300D03*
X0133342Y0076300D03*
X0133342Y0086300D03*
X0063342Y0046300D03*
X0063342Y0036300D03*
X0063342Y0026300D03*
X0063342Y0016300D03*
D11*
X0035142Y0003100D02*
X0035142Y0098201D01*
X0141463Y0098201D01*
X0141463Y0003100D01*
X0035142Y0003100D01*
X0035142Y0003694D02*
X0141463Y0003694D01*
X0141463Y0004293D02*
X0035142Y0004293D01*
X0035142Y0004891D02*
X0141463Y0004891D01*
X0141463Y0005490D02*
X0035142Y0005490D01*
X0035142Y0006088D02*
X0141463Y0006088D01*
X0141463Y0006687D02*
X0035142Y0006687D01*
X0035142Y0007285D02*
X0141463Y0007285D01*
X0141463Y0007884D02*
X0035142Y0007884D01*
X0035142Y0008482D02*
X0141463Y0008482D01*
X0141463Y0009081D02*
X0035142Y0009081D01*
X0035142Y0009679D02*
X0141463Y0009679D01*
X0141463Y0010278D02*
X0035142Y0010278D01*
X0035142Y0010876D02*
X0141463Y0010876D01*
X0141463Y0011475D02*
X0064671Y0011475D01*
X0064513Y0011423D02*
X0065261Y0011666D01*
X0065962Y0012024D01*
X0066599Y0012486D01*
X0067156Y0013043D01*
X0067618Y0013679D01*
X0067975Y0014381D01*
X0068219Y0015129D01*
X0068342Y0015906D01*
X0068342Y0016000D01*
X0063642Y0016000D01*
X0063642Y0016600D01*
X0068342Y0016600D01*
X0068342Y0016694D01*
X0068219Y0017471D01*
X0067975Y0018219D01*
X0067618Y0018921D01*
X0067156Y0019557D01*
X0066599Y0020114D01*
X0065962Y0020576D01*
X0065261Y0020934D01*
X0064513Y0021177D01*
X0063735Y0021300D01*
X0063642Y0021300D01*
X0063642Y0016600D01*
X0063042Y0016600D01*
X0063042Y0021300D01*
X0062948Y0021300D01*
X0062171Y0021177D01*
X0061422Y0020934D01*
X0060721Y0020576D01*
X0060085Y0020114D01*
X0059528Y0019557D01*
X0059065Y0018921D01*
X0058708Y0018219D01*
X0058465Y0017471D01*
X0058342Y0016694D01*
X0058342Y0016600D01*
X0063042Y0016600D01*
X0063042Y0016000D01*
X0063642Y0016000D01*
X0063642Y0011300D01*
X0063735Y0011300D01*
X0064513Y0011423D01*
X0063642Y0011475D02*
X0063042Y0011475D01*
X0063042Y0011300D02*
X0063042Y0016000D01*
X0058342Y0016000D01*
X0058342Y0015906D01*
X0058465Y0015129D01*
X0058708Y0014381D01*
X0059065Y0013679D01*
X0059528Y0013043D01*
X0060085Y0012486D01*
X0060721Y0012024D01*
X0061422Y0011666D01*
X0062171Y0011423D01*
X0062948Y0011300D01*
X0063042Y0011300D01*
X0063042Y0012073D02*
X0063642Y0012073D01*
X0063642Y0012672D02*
X0063042Y0012672D01*
X0063042Y0013270D02*
X0063642Y0013270D01*
X0063642Y0013869D02*
X0063042Y0013869D01*
X0063042Y0014467D02*
X0063642Y0014467D01*
X0063642Y0015066D02*
X0063042Y0015066D01*
X0063042Y0015664D02*
X0063642Y0015664D01*
X0063642Y0016263D02*
X0086942Y0016263D01*
X0086942Y0015720D02*
X0087762Y0014900D01*
X0110710Y0014900D01*
X0110827Y0014619D01*
X0111661Y0013785D01*
X0112752Y0013333D01*
X0113932Y0013333D01*
X0115022Y0013785D01*
X0115857Y0014619D01*
X0116309Y0015710D01*
X0116309Y0016890D01*
X0115857Y0017981D01*
X0115022Y0018815D01*
X0113932Y0019267D01*
X0112752Y0019267D01*
X0111661Y0018815D01*
X0110827Y0017981D01*
X0110710Y0017700D01*
X0089742Y0017700D01*
X0089742Y0032829D01*
X0090085Y0032486D01*
X0090721Y0032024D01*
X0091422Y0031666D01*
X0092171Y0031423D01*
X0092948Y0031300D01*
X0093042Y0031300D01*
X0093042Y0036000D01*
X0093642Y0036000D01*
X0093642Y0036600D01*
X0098342Y0036600D01*
X0098342Y0036694D01*
X0098219Y0037471D01*
X0097975Y0038219D01*
X0097618Y0038921D01*
X0097156Y0039557D01*
X0096599Y0040114D01*
X0095962Y0040576D01*
X0095261Y0040934D01*
X0094513Y0041177D01*
X0093735Y0041300D01*
X0093642Y0041300D01*
X0093642Y0036600D01*
X0093042Y0036600D01*
X0093042Y0041300D01*
X0092948Y0041300D01*
X0092171Y0041177D01*
X0091422Y0040934D01*
X0090721Y0040576D01*
X0090085Y0040114D01*
X0089742Y0039771D01*
X0089742Y0043395D01*
X0090736Y0042400D01*
X0092427Y0041700D01*
X0094257Y0041700D01*
X0095947Y0042400D01*
X0097241Y0043694D01*
X0097942Y0045385D01*
X0097942Y0047215D01*
X0097241Y0048906D01*
X0095947Y0050200D01*
X0094257Y0050900D01*
X0092427Y0050900D01*
X0090736Y0050200D01*
X0089742Y0049205D01*
X0089742Y0053395D01*
X0090736Y0052400D01*
X0092427Y0051700D01*
X0094257Y0051700D01*
X0095947Y0052400D01*
X0097241Y0053694D01*
X0097942Y0055385D01*
X0097942Y0057215D01*
X0097241Y0058906D01*
X0095947Y0060200D01*
X0094257Y0060900D01*
X0092427Y0060900D01*
X0090736Y0060200D01*
X0089742Y0059205D01*
X0089742Y0063395D01*
X0090736Y0062400D01*
X0092427Y0061700D01*
X0094257Y0061700D01*
X0095947Y0062400D01*
X0097241Y0063694D01*
X0097942Y0065385D01*
X0097942Y0067215D01*
X0097241Y0068906D01*
X0095947Y0070200D01*
X0094257Y0070900D01*
X0092427Y0070900D01*
X0090736Y0070200D01*
X0089742Y0069205D01*
X0089742Y0073669D01*
X0090022Y0073785D01*
X0090857Y0074619D01*
X0091309Y0075710D01*
X0091309Y0076890D01*
X0090857Y0077981D01*
X0090022Y0078815D01*
X0088932Y0079267D01*
X0087752Y0079267D01*
X0086661Y0078815D01*
X0085827Y0077981D01*
X0085375Y0076890D01*
X0085375Y0075710D01*
X0085827Y0074619D01*
X0086661Y0073785D01*
X0086942Y0073669D01*
X0086942Y0015720D01*
X0086998Y0015664D02*
X0068303Y0015664D01*
X0068198Y0015066D02*
X0087596Y0015066D01*
X0086942Y0016861D02*
X0068315Y0016861D01*
X0068220Y0017460D02*
X0086942Y0017460D01*
X0086942Y0018058D02*
X0068028Y0018058D01*
X0067753Y0018657D02*
X0086942Y0018657D01*
X0086942Y0019255D02*
X0067375Y0019255D01*
X0066859Y0019854D02*
X0086942Y0019854D01*
X0086942Y0020452D02*
X0066133Y0020452D01*
X0064900Y0021051D02*
X0086942Y0021051D01*
X0086942Y0021649D02*
X0035142Y0021649D01*
X0035142Y0021051D02*
X0061783Y0021051D01*
X0062427Y0021700D02*
X0060736Y0022400D01*
X0059442Y0023694D01*
X0058742Y0025385D01*
X0058742Y0027215D01*
X0059442Y0028906D01*
X0060736Y0030200D01*
X0062427Y0030900D01*
X0064257Y0030900D01*
X0065947Y0030200D01*
X0067241Y0028906D01*
X0067942Y0027215D01*
X0067942Y0025385D01*
X0067241Y0023694D01*
X0065947Y0022400D01*
X0064257Y0021700D01*
X0062427Y0021700D01*
X0063042Y0021051D02*
X0063642Y0021051D01*
X0063642Y0020452D02*
X0063042Y0020452D01*
X0063042Y0019854D02*
X0063642Y0019854D01*
X0063642Y0019255D02*
X0063042Y0019255D01*
X0063042Y0018657D02*
X0063642Y0018657D01*
X0063642Y0018058D02*
X0063042Y0018058D01*
X0063042Y0017460D02*
X0063642Y0017460D01*
X0063642Y0016861D02*
X0063042Y0016861D01*
X0063042Y0016263D02*
X0047942Y0016263D01*
X0047942Y0016861D02*
X0058368Y0016861D01*
X0058463Y0017460D02*
X0047840Y0017460D01*
X0047942Y0017215D02*
X0047241Y0018906D01*
X0045947Y0020200D01*
X0044257Y0020900D01*
X0042427Y0020900D01*
X0040736Y0020200D01*
X0039442Y0018906D01*
X0038742Y0017215D01*
X0038742Y0015385D01*
X0039442Y0013694D01*
X0040736Y0012400D01*
X0042427Y0011700D01*
X0044257Y0011700D01*
X0045947Y0012400D01*
X0047241Y0013694D01*
X0047942Y0015385D01*
X0047942Y0017215D01*
X0047592Y0018058D02*
X0058656Y0018058D01*
X0058931Y0018657D02*
X0047345Y0018657D01*
X0046892Y0019255D02*
X0059309Y0019255D01*
X0059825Y0019854D02*
X0046293Y0019854D01*
X0045337Y0020452D02*
X0060551Y0020452D01*
X0061104Y0022248D02*
X0045580Y0022248D01*
X0045947Y0022400D02*
X0047241Y0023694D01*
X0047942Y0025385D01*
X0047942Y0027215D01*
X0047241Y0028906D01*
X0045947Y0030200D01*
X0044257Y0030900D01*
X0042427Y0030900D01*
X0040736Y0030200D01*
X0039442Y0028906D01*
X0038742Y0027215D01*
X0038742Y0025385D01*
X0039442Y0023694D01*
X0040736Y0022400D01*
X0042427Y0021700D01*
X0044257Y0021700D01*
X0045947Y0022400D01*
X0046394Y0022846D02*
X0060290Y0022846D01*
X0059691Y0023445D02*
X0046992Y0023445D01*
X0047386Y0024043D02*
X0059297Y0024043D01*
X0059050Y0024642D02*
X0047634Y0024642D01*
X0047882Y0025240D02*
X0058802Y0025240D01*
X0058742Y0025839D02*
X0047942Y0025839D01*
X0047942Y0026437D02*
X0058742Y0026437D01*
X0058742Y0027036D02*
X0047942Y0027036D01*
X0047768Y0027634D02*
X0058916Y0027634D01*
X0059163Y0028233D02*
X0047520Y0028233D01*
X0047272Y0028832D02*
X0059411Y0028832D01*
X0059966Y0029430D02*
X0046717Y0029430D01*
X0046119Y0030029D02*
X0060565Y0030029D01*
X0061768Y0030627D02*
X0044916Y0030627D01*
X0044556Y0031824D02*
X0062127Y0031824D01*
X0062427Y0031700D02*
X0060736Y0032400D01*
X0059442Y0033694D01*
X0058742Y0035385D01*
X0058742Y0037215D01*
X0059442Y0038906D01*
X0060736Y0040200D01*
X0062427Y0040900D01*
X0064257Y0040900D01*
X0065947Y0040200D01*
X0067241Y0038906D01*
X0067942Y0037215D01*
X0067942Y0035385D01*
X0067241Y0033694D01*
X0065947Y0032400D01*
X0064257Y0031700D01*
X0062427Y0031700D01*
X0064556Y0031824D02*
X0086942Y0031824D01*
X0086942Y0031226D02*
X0035142Y0031226D01*
X0035142Y0031824D02*
X0042127Y0031824D01*
X0042427Y0031700D02*
X0044257Y0031700D01*
X0045947Y0032400D01*
X0047241Y0033694D01*
X0047942Y0035385D01*
X0047942Y0037215D01*
X0047241Y0038906D01*
X0045947Y0040200D01*
X0044257Y0040900D01*
X0042427Y0040900D01*
X0040736Y0040200D01*
X0039442Y0038906D01*
X0038742Y0037215D01*
X0038742Y0035385D01*
X0039442Y0033694D01*
X0040736Y0032400D01*
X0042427Y0031700D01*
X0041768Y0030627D02*
X0035142Y0030627D01*
X0035142Y0030029D02*
X0040565Y0030029D01*
X0039966Y0029430D02*
X0035142Y0029430D01*
X0035142Y0028832D02*
X0039411Y0028832D01*
X0039163Y0028233D02*
X0035142Y0028233D01*
X0035142Y0027634D02*
X0038916Y0027634D01*
X0038742Y0027036D02*
X0035142Y0027036D01*
X0035142Y0026437D02*
X0038742Y0026437D01*
X0038742Y0025839D02*
X0035142Y0025839D01*
X0035142Y0025240D02*
X0038802Y0025240D01*
X0039050Y0024642D02*
X0035142Y0024642D01*
X0035142Y0024043D02*
X0039297Y0024043D01*
X0039691Y0023445D02*
X0035142Y0023445D01*
X0035142Y0022846D02*
X0040290Y0022846D01*
X0041104Y0022248D02*
X0035142Y0022248D01*
X0035142Y0020452D02*
X0041346Y0020452D01*
X0040390Y0019854D02*
X0035142Y0019854D01*
X0035142Y0019255D02*
X0039792Y0019255D01*
X0039339Y0018657D02*
X0035142Y0018657D01*
X0035142Y0018058D02*
X0039091Y0018058D01*
X0038843Y0017460D02*
X0035142Y0017460D01*
X0035142Y0016861D02*
X0038742Y0016861D01*
X0038742Y0016263D02*
X0035142Y0016263D01*
X0035142Y0015664D02*
X0038742Y0015664D01*
X0038874Y0015066D02*
X0035142Y0015066D01*
X0035142Y0014467D02*
X0039122Y0014467D01*
X0039370Y0013869D02*
X0035142Y0013869D01*
X0035142Y0013270D02*
X0039866Y0013270D01*
X0040465Y0012672D02*
X0035142Y0012672D01*
X0035142Y0012073D02*
X0041526Y0012073D01*
X0045158Y0012073D02*
X0060653Y0012073D01*
X0059899Y0012672D02*
X0046219Y0012672D01*
X0046817Y0013270D02*
X0059363Y0013270D01*
X0058969Y0013869D02*
X0047314Y0013869D01*
X0047562Y0014467D02*
X0058680Y0014467D01*
X0058486Y0015066D02*
X0047810Y0015066D01*
X0047942Y0015664D02*
X0058380Y0015664D01*
X0062012Y0011475D02*
X0035142Y0011475D01*
X0035142Y0032423D02*
X0040714Y0032423D01*
X0040115Y0033021D02*
X0035142Y0033021D01*
X0035142Y0033620D02*
X0039517Y0033620D01*
X0039225Y0034218D02*
X0035142Y0034218D01*
X0035142Y0034817D02*
X0038977Y0034817D01*
X0038742Y0035415D02*
X0035142Y0035415D01*
X0035142Y0036014D02*
X0038742Y0036014D01*
X0038742Y0036612D02*
X0035142Y0036612D01*
X0035142Y0037211D02*
X0038742Y0037211D01*
X0038988Y0037809D02*
X0035142Y0037809D01*
X0035142Y0038408D02*
X0039236Y0038408D01*
X0039543Y0039006D02*
X0035142Y0039006D01*
X0035142Y0039605D02*
X0040141Y0039605D01*
X0040745Y0040203D02*
X0035142Y0040203D01*
X0035142Y0040802D02*
X0042190Y0040802D01*
X0042427Y0041700D02*
X0044257Y0041700D01*
X0045947Y0042400D01*
X0047241Y0043694D01*
X0047942Y0045385D01*
X0047942Y0047215D01*
X0047241Y0048906D01*
X0045947Y0050200D01*
X0044257Y0050900D01*
X0042427Y0050900D01*
X0040736Y0050200D01*
X0039442Y0048906D01*
X0038742Y0047215D01*
X0038742Y0045385D01*
X0039442Y0043694D01*
X0040736Y0042400D01*
X0042427Y0041700D01*
X0041705Y0041999D02*
X0035142Y0041999D01*
X0035142Y0042597D02*
X0040539Y0042597D01*
X0039941Y0043196D02*
X0035142Y0043196D01*
X0035142Y0043794D02*
X0039401Y0043794D01*
X0039153Y0044393D02*
X0035142Y0044393D01*
X0035142Y0044991D02*
X0038905Y0044991D01*
X0038742Y0045590D02*
X0035142Y0045590D01*
X0035142Y0046188D02*
X0038742Y0046188D01*
X0038742Y0046787D02*
X0035142Y0046787D01*
X0035142Y0047385D02*
X0038812Y0047385D01*
X0039060Y0047984D02*
X0035142Y0047984D01*
X0035142Y0048582D02*
X0039308Y0048582D01*
X0039717Y0049181D02*
X0035142Y0049181D01*
X0035142Y0049779D02*
X0040316Y0049779D01*
X0041166Y0050378D02*
X0035142Y0050378D01*
X0035142Y0050976D02*
X0086942Y0050976D01*
X0086942Y0050378D02*
X0065517Y0050378D01*
X0065947Y0050200D02*
X0064257Y0050900D01*
X0062427Y0050900D01*
X0060736Y0050200D01*
X0059442Y0048906D01*
X0058742Y0047215D01*
X0058742Y0045385D01*
X0059442Y0043694D01*
X0060736Y0042400D01*
X0062427Y0041700D01*
X0064257Y0041700D01*
X0065947Y0042400D01*
X0067241Y0043694D01*
X0067942Y0045385D01*
X0067942Y0047215D01*
X0067241Y0048906D01*
X0065947Y0050200D01*
X0066368Y0049779D02*
X0086942Y0049779D01*
X0086942Y0049181D02*
X0066966Y0049181D01*
X0067375Y0048582D02*
X0086942Y0048582D01*
X0086942Y0047984D02*
X0067623Y0047984D01*
X0067871Y0047385D02*
X0086942Y0047385D01*
X0086942Y0046787D02*
X0067942Y0046787D01*
X0067942Y0046188D02*
X0086942Y0046188D01*
X0086942Y0045590D02*
X0067942Y0045590D01*
X0067779Y0044991D02*
X0086942Y0044991D01*
X0086942Y0044393D02*
X0067531Y0044393D01*
X0067283Y0043794D02*
X0086942Y0043794D01*
X0086942Y0043196D02*
X0066743Y0043196D01*
X0066144Y0042597D02*
X0086942Y0042597D01*
X0086942Y0041999D02*
X0064978Y0041999D01*
X0064494Y0040802D02*
X0086942Y0040802D01*
X0086942Y0041400D02*
X0035142Y0041400D01*
X0044494Y0040802D02*
X0062190Y0040802D01*
X0061705Y0041999D02*
X0044978Y0041999D01*
X0046144Y0042597D02*
X0060539Y0042597D01*
X0059941Y0043196D02*
X0046743Y0043196D01*
X0047283Y0043794D02*
X0059401Y0043794D01*
X0059153Y0044393D02*
X0047531Y0044393D01*
X0047779Y0044991D02*
X0058905Y0044991D01*
X0058742Y0045590D02*
X0047942Y0045590D01*
X0047942Y0046188D02*
X0058742Y0046188D01*
X0058742Y0046787D02*
X0047942Y0046787D01*
X0047871Y0047385D02*
X0058812Y0047385D01*
X0059060Y0047984D02*
X0047623Y0047984D01*
X0047375Y0048582D02*
X0059308Y0048582D01*
X0059717Y0049181D02*
X0046966Y0049181D01*
X0046368Y0049779D02*
X0060316Y0049779D01*
X0061166Y0050378D02*
X0045517Y0050378D01*
X0045400Y0052173D02*
X0086942Y0052173D01*
X0086942Y0051575D02*
X0035142Y0051575D01*
X0035142Y0052173D02*
X0041284Y0052173D01*
X0040736Y0052400D02*
X0042427Y0051700D01*
X0044257Y0051700D01*
X0045947Y0052400D01*
X0047241Y0053694D01*
X0047942Y0055385D01*
X0047942Y0057215D01*
X0047241Y0058906D01*
X0045947Y0060200D01*
X0044257Y0060900D01*
X0042427Y0060900D01*
X0040736Y0060200D01*
X0039442Y0058906D01*
X0038742Y0057215D01*
X0038742Y0055385D01*
X0039442Y0053694D01*
X0040736Y0052400D01*
X0040364Y0052772D02*
X0035142Y0052772D01*
X0035142Y0053370D02*
X0039766Y0053370D01*
X0039328Y0053969D02*
X0035142Y0053969D01*
X0035142Y0054568D02*
X0039080Y0054568D01*
X0038833Y0055166D02*
X0035142Y0055166D01*
X0035142Y0055765D02*
X0038742Y0055765D01*
X0038742Y0056363D02*
X0035142Y0056363D01*
X0035142Y0056962D02*
X0038742Y0056962D01*
X0038885Y0057560D02*
X0035142Y0057560D01*
X0035142Y0058159D02*
X0039133Y0058159D01*
X0039381Y0058757D02*
X0035142Y0058757D01*
X0035142Y0059356D02*
X0039892Y0059356D01*
X0040491Y0059954D02*
X0035142Y0059954D01*
X0035142Y0060553D02*
X0041588Y0060553D01*
X0042307Y0061750D02*
X0035142Y0061750D01*
X0035142Y0062348D02*
X0040862Y0062348D01*
X0040736Y0062400D02*
X0042427Y0061700D01*
X0044257Y0061700D01*
X0045947Y0062400D01*
X0047241Y0063694D01*
X0047942Y0065385D01*
X0047942Y0067215D01*
X0047241Y0068906D01*
X0045947Y0070200D01*
X0044257Y0070900D01*
X0042427Y0070900D01*
X0040736Y0070200D01*
X0039442Y0068906D01*
X0038742Y0067215D01*
X0038742Y0065385D01*
X0039442Y0063694D01*
X0040736Y0062400D01*
X0040190Y0062947D02*
X0035142Y0062947D01*
X0035142Y0063545D02*
X0039591Y0063545D01*
X0039256Y0064144D02*
X0035142Y0064144D01*
X0035142Y0064742D02*
X0039008Y0064742D01*
X0038760Y0065341D02*
X0035142Y0065341D01*
X0035142Y0065939D02*
X0038742Y0065939D01*
X0038742Y0066538D02*
X0035142Y0066538D01*
X0035142Y0067136D02*
X0038742Y0067136D01*
X0038957Y0067735D02*
X0035142Y0067735D01*
X0035142Y0068333D02*
X0039205Y0068333D01*
X0039468Y0068932D02*
X0035142Y0068932D01*
X0035142Y0069530D02*
X0040067Y0069530D01*
X0040665Y0070129D02*
X0035142Y0070129D01*
X0035142Y0070727D02*
X0042010Y0070727D01*
X0042427Y0071700D02*
X0044257Y0071700D01*
X0045947Y0072400D01*
X0047241Y0073694D01*
X0047942Y0075385D01*
X0047942Y0077215D01*
X0047241Y0078906D01*
X0045947Y0080200D01*
X0044257Y0080900D01*
X0042427Y0080900D01*
X0040736Y0080200D01*
X0039442Y0078906D01*
X0038742Y0077215D01*
X0038742Y0075385D01*
X0039442Y0073694D01*
X0040736Y0072400D01*
X0042427Y0071700D01*
X0041885Y0071924D02*
X0035142Y0071924D01*
X0035142Y0071326D02*
X0086942Y0071326D01*
X0086942Y0071924D02*
X0044798Y0071924D01*
X0044674Y0070727D02*
X0086942Y0070727D01*
X0086942Y0070129D02*
X0046018Y0070129D01*
X0046617Y0069530D02*
X0086942Y0069530D01*
X0086942Y0068932D02*
X0047215Y0068932D01*
X0047479Y0068333D02*
X0086942Y0068333D01*
X0086942Y0067735D02*
X0047727Y0067735D01*
X0047942Y0067136D02*
X0086942Y0067136D01*
X0086942Y0066538D02*
X0047942Y0066538D01*
X0047942Y0065939D02*
X0086942Y0065939D01*
X0086942Y0065341D02*
X0047923Y0065341D01*
X0047676Y0064742D02*
X0086942Y0064742D01*
X0086942Y0064144D02*
X0047428Y0064144D01*
X0047092Y0063545D02*
X0086942Y0063545D01*
X0086942Y0062947D02*
X0046494Y0062947D01*
X0045822Y0062348D02*
X0086942Y0062348D01*
X0086942Y0061750D02*
X0044377Y0061750D01*
X0045095Y0060553D02*
X0086942Y0060553D01*
X0086942Y0061151D02*
X0035142Y0061151D01*
X0046193Y0059954D02*
X0086942Y0059954D01*
X0086942Y0059356D02*
X0046792Y0059356D01*
X0047303Y0058757D02*
X0086942Y0058757D01*
X0086942Y0058159D02*
X0047551Y0058159D01*
X0047799Y0057560D02*
X0086942Y0057560D01*
X0086942Y0056962D02*
X0047942Y0056962D01*
X0047942Y0056363D02*
X0086942Y0056363D01*
X0086942Y0055765D02*
X0047942Y0055765D01*
X0047851Y0055166D02*
X0086942Y0055166D01*
X0086942Y0054568D02*
X0047603Y0054568D01*
X0047355Y0053969D02*
X0086942Y0053969D01*
X0086942Y0053370D02*
X0046918Y0053370D01*
X0046319Y0052772D02*
X0086942Y0052772D01*
X0089742Y0052772D02*
X0090364Y0052772D01*
X0089766Y0053370D02*
X0089742Y0053370D01*
X0089742Y0052173D02*
X0091284Y0052173D01*
X0089742Y0051575D02*
X0141463Y0051575D01*
X0141463Y0052173D02*
X0135400Y0052173D01*
X0135947Y0052400D02*
X0137241Y0053694D01*
X0137942Y0055385D01*
X0137942Y0057215D01*
X0137241Y0058906D01*
X0135947Y0060200D01*
X0134257Y0060900D01*
X0132427Y0060900D01*
X0130736Y0060200D01*
X0129442Y0058906D01*
X0128742Y0057215D01*
X0128742Y0055385D01*
X0129442Y0053694D01*
X0130736Y0052400D01*
X0132427Y0051700D01*
X0134257Y0051700D01*
X0135947Y0052400D01*
X0136319Y0052772D02*
X0141463Y0052772D01*
X0141463Y0053370D02*
X0136918Y0053370D01*
X0137355Y0053969D02*
X0141463Y0053969D01*
X0141463Y0054568D02*
X0137603Y0054568D01*
X0137851Y0055166D02*
X0141463Y0055166D01*
X0141463Y0055765D02*
X0137942Y0055765D01*
X0137942Y0056363D02*
X0141463Y0056363D01*
X0141463Y0056962D02*
X0137942Y0056962D01*
X0137799Y0057560D02*
X0141463Y0057560D01*
X0141463Y0058159D02*
X0137551Y0058159D01*
X0137303Y0058757D02*
X0141463Y0058757D01*
X0141463Y0059356D02*
X0136792Y0059356D01*
X0136193Y0059954D02*
X0141463Y0059954D01*
X0141463Y0060553D02*
X0135095Y0060553D01*
X0134377Y0061750D02*
X0141463Y0061750D01*
X0141463Y0062348D02*
X0135822Y0062348D01*
X0135947Y0062400D02*
X0137241Y0063694D01*
X0137942Y0065385D01*
X0137942Y0067215D01*
X0137241Y0068906D01*
X0135947Y0070200D01*
X0134257Y0070900D01*
X0132427Y0070900D01*
X0130736Y0070200D01*
X0129442Y0068906D01*
X0128742Y0067215D01*
X0128742Y0065385D01*
X0129442Y0063694D01*
X0130736Y0062400D01*
X0132427Y0061700D01*
X0134257Y0061700D01*
X0135947Y0062400D01*
X0136494Y0062947D02*
X0141463Y0062947D01*
X0141463Y0063545D02*
X0137092Y0063545D01*
X0137428Y0064144D02*
X0141463Y0064144D01*
X0141463Y0064742D02*
X0137676Y0064742D01*
X0137923Y0065341D02*
X0141463Y0065341D01*
X0141463Y0065939D02*
X0137942Y0065939D01*
X0137942Y0066538D02*
X0141463Y0066538D01*
X0141463Y0067136D02*
X0137942Y0067136D01*
X0137727Y0067735D02*
X0141463Y0067735D01*
X0141463Y0068333D02*
X0137479Y0068333D01*
X0137215Y0068932D02*
X0141463Y0068932D01*
X0141463Y0069530D02*
X0136617Y0069530D01*
X0136018Y0070129D02*
X0141463Y0070129D01*
X0141463Y0070727D02*
X0134674Y0070727D01*
X0134257Y0071700D02*
X0135947Y0072400D01*
X0137241Y0073694D01*
X0137942Y0075385D01*
X0137942Y0077215D01*
X0137241Y0078906D01*
X0135947Y0080200D01*
X0134257Y0080900D01*
X0132427Y0080900D01*
X0130736Y0080200D01*
X0129442Y0078906D01*
X0128742Y0077215D01*
X0128742Y0075385D01*
X0129442Y0073694D01*
X0130736Y0072400D01*
X0132427Y0071700D01*
X0134257Y0071700D01*
X0134798Y0071924D02*
X0141463Y0071924D01*
X0141463Y0071326D02*
X0089742Y0071326D01*
X0089742Y0071924D02*
X0131885Y0071924D01*
X0132010Y0070727D02*
X0114674Y0070727D01*
X0114257Y0070900D02*
X0112427Y0070900D01*
X0110736Y0070200D01*
X0109442Y0068906D01*
X0108742Y0067215D01*
X0108742Y0065385D01*
X0109442Y0063694D01*
X0110736Y0062400D01*
X0112427Y0061700D01*
X0114257Y0061700D01*
X0115947Y0062400D01*
X0117241Y0063694D01*
X0117942Y0065385D01*
X0117942Y0067215D01*
X0117241Y0068906D01*
X0115947Y0070200D01*
X0114257Y0070900D01*
X0112010Y0070727D02*
X0094674Y0070727D01*
X0096018Y0070129D02*
X0110665Y0070129D01*
X0110067Y0069530D02*
X0096617Y0069530D01*
X0097215Y0068932D02*
X0109468Y0068932D01*
X0109205Y0068333D02*
X0097479Y0068333D01*
X0097727Y0067735D02*
X0108957Y0067735D01*
X0108742Y0067136D02*
X0097942Y0067136D01*
X0097942Y0066538D02*
X0108742Y0066538D01*
X0108742Y0065939D02*
X0097942Y0065939D01*
X0097923Y0065341D02*
X0108760Y0065341D01*
X0109008Y0064742D02*
X0097676Y0064742D01*
X0097428Y0064144D02*
X0109256Y0064144D01*
X0109591Y0063545D02*
X0097092Y0063545D01*
X0096494Y0062947D02*
X0110190Y0062947D01*
X0110862Y0062348D02*
X0095822Y0062348D01*
X0094377Y0061750D02*
X0112307Y0061750D01*
X0112427Y0060900D02*
X0110736Y0060200D01*
X0109442Y0058906D01*
X0108742Y0057215D01*
X0108742Y0055385D01*
X0109442Y0053694D01*
X0110736Y0052400D01*
X0112427Y0051700D01*
X0114257Y0051700D01*
X0115947Y0052400D01*
X0117241Y0053694D01*
X0117942Y0055385D01*
X0117942Y0057215D01*
X0117241Y0058906D01*
X0115947Y0060200D01*
X0114257Y0060900D01*
X0112427Y0060900D01*
X0111588Y0060553D02*
X0095095Y0060553D01*
X0096193Y0059954D02*
X0110491Y0059954D01*
X0109892Y0059356D02*
X0096792Y0059356D01*
X0097303Y0058757D02*
X0109381Y0058757D01*
X0109133Y0058159D02*
X0097551Y0058159D01*
X0097799Y0057560D02*
X0108885Y0057560D01*
X0108742Y0056962D02*
X0097942Y0056962D01*
X0097942Y0056363D02*
X0108742Y0056363D01*
X0108742Y0055765D02*
X0097942Y0055765D01*
X0097851Y0055166D02*
X0108833Y0055166D01*
X0109080Y0054568D02*
X0097603Y0054568D01*
X0097355Y0053969D02*
X0109328Y0053969D01*
X0109766Y0053370D02*
X0096918Y0053370D01*
X0096319Y0052772D02*
X0110364Y0052772D01*
X0111284Y0052173D02*
X0095400Y0052173D01*
X0095517Y0050378D02*
X0111166Y0050378D01*
X0110736Y0050200D02*
X0109442Y0048906D01*
X0108742Y0047215D01*
X0108742Y0045385D01*
X0109442Y0043694D01*
X0110736Y0042400D01*
X0112427Y0041700D01*
X0114257Y0041700D01*
X0115947Y0042400D01*
X0117241Y0043694D01*
X0117942Y0045385D01*
X0117942Y0047215D01*
X0117241Y0048906D01*
X0115947Y0050200D01*
X0114257Y0050900D01*
X0112427Y0050900D01*
X0110736Y0050200D01*
X0110316Y0049779D02*
X0096368Y0049779D01*
X0096966Y0049181D02*
X0109717Y0049181D01*
X0109308Y0048582D02*
X0097375Y0048582D01*
X0097623Y0047984D02*
X0109060Y0047984D01*
X0108812Y0047385D02*
X0097871Y0047385D01*
X0097942Y0046787D02*
X0108742Y0046787D01*
X0108742Y0046188D02*
X0097942Y0046188D01*
X0097942Y0045590D02*
X0108742Y0045590D01*
X0108905Y0044991D02*
X0097779Y0044991D01*
X0097531Y0044393D02*
X0109153Y0044393D01*
X0109401Y0043794D02*
X0097283Y0043794D01*
X0096743Y0043196D02*
X0109941Y0043196D01*
X0110539Y0042597D02*
X0096144Y0042597D01*
X0094978Y0041999D02*
X0111705Y0041999D01*
X0112171Y0041177D02*
X0111422Y0040934D01*
X0110721Y0040576D01*
X0110085Y0040114D01*
X0109528Y0039557D01*
X0109065Y0038921D01*
X0108708Y0038219D01*
X0108465Y0037471D01*
X0108342Y0036694D01*
X0108342Y0036600D01*
X0113042Y0036600D01*
X0113042Y0041300D01*
X0112948Y0041300D01*
X0112171Y0041177D01*
X0113042Y0040802D02*
X0113642Y0040802D01*
X0113642Y0041300D02*
X0113735Y0041300D01*
X0114513Y0041177D01*
X0115261Y0040934D01*
X0115962Y0040576D01*
X0116599Y0040114D01*
X0117156Y0039557D01*
X0117618Y0038921D01*
X0117975Y0038219D01*
X0118219Y0037471D01*
X0118342Y0036694D01*
X0118342Y0036600D01*
X0113642Y0036600D01*
X0113642Y0036000D01*
X0118342Y0036000D01*
X0118342Y0035906D01*
X0118219Y0035129D01*
X0117975Y0034381D01*
X0117618Y0033679D01*
X0117156Y0033043D01*
X0116599Y0032486D01*
X0115962Y0032024D01*
X0115261Y0031666D01*
X0114513Y0031423D01*
X0113735Y0031300D01*
X0113642Y0031300D01*
X0113642Y0036000D01*
X0113042Y0036000D01*
X0113042Y0031300D01*
X0112948Y0031300D01*
X0112171Y0031423D01*
X0111422Y0031666D01*
X0110721Y0032024D01*
X0110085Y0032486D01*
X0109528Y0033043D01*
X0109065Y0033679D01*
X0108708Y0034381D01*
X0108465Y0035129D01*
X0108342Y0035906D01*
X0108342Y0036000D01*
X0113042Y0036000D01*
X0113042Y0036600D01*
X0113642Y0036600D01*
X0113642Y0041300D01*
X0113642Y0040203D02*
X0113042Y0040203D01*
X0113042Y0039605D02*
X0113642Y0039605D01*
X0113642Y0039006D02*
X0113042Y0039006D01*
X0113042Y0038408D02*
X0113642Y0038408D01*
X0113642Y0037809D02*
X0113042Y0037809D01*
X0113042Y0037211D02*
X0113642Y0037211D01*
X0113642Y0036612D02*
X0113042Y0036612D01*
X0113042Y0036014D02*
X0093642Y0036014D01*
X0093642Y0036000D02*
X0098342Y0036000D01*
X0098342Y0035906D01*
X0098219Y0035129D01*
X0097975Y0034381D01*
X0097618Y0033679D01*
X0097156Y0033043D01*
X0096599Y0032486D01*
X0095962Y0032024D01*
X0095261Y0031666D01*
X0094513Y0031423D01*
X0093735Y0031300D01*
X0093642Y0031300D01*
X0093642Y0036000D01*
X0093642Y0035415D02*
X0093042Y0035415D01*
X0093042Y0034817D02*
X0093642Y0034817D01*
X0093642Y0034218D02*
X0093042Y0034218D01*
X0093042Y0033620D02*
X0093642Y0033620D01*
X0093642Y0033021D02*
X0093042Y0033021D01*
X0093042Y0032423D02*
X0093642Y0032423D01*
X0093642Y0031824D02*
X0093042Y0031824D01*
X0091113Y0031824D02*
X0089742Y0031824D01*
X0089742Y0031226D02*
X0132478Y0031226D01*
X0132171Y0031177D02*
X0131422Y0030934D01*
X0130721Y0030576D01*
X0130085Y0030114D01*
X0129528Y0029557D01*
X0129065Y0028921D01*
X0128708Y0028219D01*
X0128465Y0027471D01*
X0128342Y0026694D01*
X0128342Y0026600D01*
X0133042Y0026600D01*
X0133042Y0031300D01*
X0132948Y0031300D01*
X0132171Y0031177D01*
X0132427Y0031700D02*
X0134257Y0031700D01*
X0135947Y0032400D01*
X0137241Y0033694D01*
X0137942Y0035385D01*
X0137942Y0037215D01*
X0137241Y0038906D01*
X0135947Y0040200D01*
X0134257Y0040900D01*
X0132427Y0040900D01*
X0130736Y0040200D01*
X0129442Y0038906D01*
X0128742Y0037215D01*
X0128742Y0035385D01*
X0129442Y0033694D01*
X0130736Y0032400D01*
X0132427Y0031700D01*
X0132127Y0031824D02*
X0115571Y0031824D01*
X0116512Y0032423D02*
X0130714Y0032423D01*
X0130115Y0033021D02*
X0117134Y0033021D01*
X0117575Y0033620D02*
X0129517Y0033620D01*
X0129225Y0034218D02*
X0117893Y0034218D01*
X0118117Y0034817D02*
X0128977Y0034817D01*
X0128742Y0035415D02*
X0118264Y0035415D01*
X0118342Y0036612D02*
X0128742Y0036612D01*
X0128742Y0036014D02*
X0113642Y0036014D01*
X0113642Y0035415D02*
X0113042Y0035415D01*
X0113042Y0034817D02*
X0113642Y0034817D01*
X0113642Y0034218D02*
X0113042Y0034218D01*
X0113042Y0033620D02*
X0113642Y0033620D01*
X0113642Y0033021D02*
X0113042Y0033021D01*
X0113042Y0032423D02*
X0113642Y0032423D01*
X0113642Y0031824D02*
X0113042Y0031824D01*
X0111113Y0031824D02*
X0095571Y0031824D01*
X0096512Y0032423D02*
X0110172Y0032423D01*
X0109550Y0033021D02*
X0097134Y0033021D01*
X0097575Y0033620D02*
X0109109Y0033620D01*
X0108791Y0034218D02*
X0097893Y0034218D01*
X0098117Y0034817D02*
X0108566Y0034817D01*
X0108420Y0035415D02*
X0098264Y0035415D01*
X0098342Y0036612D02*
X0108342Y0036612D01*
X0108424Y0037211D02*
X0098260Y0037211D01*
X0098109Y0037809D02*
X0108575Y0037809D01*
X0108804Y0038408D02*
X0097880Y0038408D01*
X0097556Y0039006D02*
X0109128Y0039006D01*
X0109575Y0039605D02*
X0097108Y0039605D01*
X0096476Y0040203D02*
X0110208Y0040203D01*
X0111164Y0040802D02*
X0095520Y0040802D01*
X0093642Y0040802D02*
X0093042Y0040802D01*
X0093042Y0040203D02*
X0093642Y0040203D01*
X0093642Y0039605D02*
X0093042Y0039605D01*
X0093042Y0039006D02*
X0093642Y0039006D01*
X0093642Y0038408D02*
X0093042Y0038408D01*
X0093042Y0037809D02*
X0093642Y0037809D01*
X0093642Y0037211D02*
X0093042Y0037211D01*
X0093042Y0036612D02*
X0093642Y0036612D01*
X0091164Y0040802D02*
X0089742Y0040802D01*
X0089742Y0041400D02*
X0141463Y0041400D01*
X0141463Y0040802D02*
X0134494Y0040802D01*
X0134257Y0041700D02*
X0132427Y0041700D01*
X0130736Y0042400D01*
X0129442Y0043694D01*
X0128742Y0045385D01*
X0128742Y0047215D01*
X0129442Y0048906D01*
X0130736Y0050200D01*
X0132427Y0050900D01*
X0134257Y0050900D01*
X0135947Y0050200D01*
X0137241Y0048906D01*
X0137942Y0047215D01*
X0137942Y0045385D01*
X0137241Y0043694D01*
X0135947Y0042400D01*
X0134257Y0041700D01*
X0134978Y0041999D02*
X0141463Y0041999D01*
X0141463Y0042597D02*
X0136144Y0042597D01*
X0136743Y0043196D02*
X0141463Y0043196D01*
X0141463Y0043794D02*
X0137283Y0043794D01*
X0137531Y0044393D02*
X0141463Y0044393D01*
X0141463Y0044991D02*
X0137779Y0044991D01*
X0137942Y0045590D02*
X0141463Y0045590D01*
X0141463Y0046188D02*
X0137942Y0046188D01*
X0137942Y0046787D02*
X0141463Y0046787D01*
X0141463Y0047385D02*
X0137871Y0047385D01*
X0137623Y0047984D02*
X0141463Y0047984D01*
X0141463Y0048582D02*
X0137375Y0048582D01*
X0136966Y0049181D02*
X0141463Y0049181D01*
X0141463Y0049779D02*
X0136368Y0049779D01*
X0135517Y0050378D02*
X0141463Y0050378D01*
X0141463Y0050976D02*
X0089742Y0050976D01*
X0089742Y0050378D02*
X0091166Y0050378D01*
X0090316Y0049779D02*
X0089742Y0049779D01*
X0089742Y0043196D02*
X0089941Y0043196D01*
X0089742Y0042597D02*
X0090539Y0042597D01*
X0089742Y0041999D02*
X0091705Y0041999D01*
X0090208Y0040203D02*
X0089742Y0040203D01*
X0086942Y0040203D02*
X0065939Y0040203D01*
X0066542Y0039605D02*
X0086942Y0039605D01*
X0086942Y0039006D02*
X0067141Y0039006D01*
X0067448Y0038408D02*
X0086942Y0038408D01*
X0086942Y0037809D02*
X0067696Y0037809D01*
X0067942Y0037211D02*
X0086942Y0037211D01*
X0086942Y0036612D02*
X0067942Y0036612D01*
X0067942Y0036014D02*
X0086942Y0036014D01*
X0086942Y0035415D02*
X0067942Y0035415D01*
X0067706Y0034817D02*
X0086942Y0034817D01*
X0086942Y0034218D02*
X0067458Y0034218D01*
X0067167Y0033620D02*
X0086942Y0033620D01*
X0086942Y0033021D02*
X0066568Y0033021D01*
X0065970Y0032423D02*
X0086942Y0032423D01*
X0086942Y0030627D02*
X0064916Y0030627D01*
X0066119Y0030029D02*
X0086942Y0030029D01*
X0086942Y0029430D02*
X0066717Y0029430D01*
X0067272Y0028832D02*
X0086942Y0028832D01*
X0086942Y0028233D02*
X0067520Y0028233D01*
X0067768Y0027634D02*
X0086942Y0027634D01*
X0086942Y0027036D02*
X0067942Y0027036D01*
X0067942Y0026437D02*
X0086942Y0026437D01*
X0086942Y0025839D02*
X0067942Y0025839D01*
X0067882Y0025240D02*
X0086942Y0025240D01*
X0086942Y0024642D02*
X0067634Y0024642D01*
X0067386Y0024043D02*
X0086942Y0024043D01*
X0086942Y0023445D02*
X0066992Y0023445D01*
X0066394Y0022846D02*
X0086942Y0022846D01*
X0086942Y0022248D02*
X0065580Y0022248D01*
X0068004Y0014467D02*
X0110979Y0014467D01*
X0111577Y0013869D02*
X0067715Y0013869D01*
X0067321Y0013270D02*
X0129866Y0013270D01*
X0129442Y0013694D02*
X0130736Y0012400D01*
X0132427Y0011700D01*
X0134257Y0011700D01*
X0135947Y0012400D01*
X0137241Y0013694D01*
X0137942Y0015385D01*
X0137942Y0017215D01*
X0137241Y0018906D01*
X0135947Y0020200D01*
X0134257Y0020900D01*
X0132427Y0020900D01*
X0130736Y0020200D01*
X0129442Y0018906D01*
X0128742Y0017215D01*
X0128742Y0015385D01*
X0129442Y0013694D01*
X0129370Y0013869D02*
X0115106Y0013869D01*
X0115705Y0014467D02*
X0129122Y0014467D01*
X0128874Y0015066D02*
X0116042Y0015066D01*
X0116290Y0015664D02*
X0128742Y0015664D01*
X0128742Y0016263D02*
X0116309Y0016263D01*
X0116309Y0016861D02*
X0128742Y0016861D01*
X0128843Y0017460D02*
X0116073Y0017460D01*
X0115779Y0018058D02*
X0129091Y0018058D01*
X0129339Y0018657D02*
X0115181Y0018657D01*
X0113960Y0019255D02*
X0129792Y0019255D01*
X0130390Y0019854D02*
X0089742Y0019854D01*
X0089742Y0020452D02*
X0131346Y0020452D01*
X0131475Y0021649D02*
X0089742Y0021649D01*
X0089742Y0021051D02*
X0141463Y0021051D01*
X0141463Y0021649D02*
X0135209Y0021649D01*
X0135261Y0021666D02*
X0135962Y0022024D01*
X0136599Y0022486D01*
X0137156Y0023043D01*
X0137618Y0023679D01*
X0137975Y0024381D01*
X0138219Y0025129D01*
X0138342Y0025906D01*
X0138342Y0026000D01*
X0133642Y0026000D01*
X0133642Y0026600D01*
X0138342Y0026600D01*
X0138342Y0026694D01*
X0138219Y0027471D01*
X0137975Y0028219D01*
X0137618Y0028921D01*
X0137156Y0029557D01*
X0136599Y0030114D01*
X0135962Y0030576D01*
X0135261Y0030934D01*
X0134513Y0031177D01*
X0133735Y0031300D01*
X0133642Y0031300D01*
X0133642Y0026600D01*
X0133042Y0026600D01*
X0133042Y0026000D01*
X0133642Y0026000D01*
X0133642Y0021300D01*
X0133735Y0021300D01*
X0134513Y0021423D01*
X0135261Y0021666D01*
X0136271Y0022248D02*
X0141463Y0022248D01*
X0141463Y0022846D02*
X0136959Y0022846D01*
X0137448Y0023445D02*
X0141463Y0023445D01*
X0141463Y0024043D02*
X0137804Y0024043D01*
X0138060Y0024642D02*
X0141463Y0024642D01*
X0141463Y0025240D02*
X0138236Y0025240D01*
X0138331Y0025839D02*
X0141463Y0025839D01*
X0141463Y0026437D02*
X0133642Y0026437D01*
X0133642Y0025839D02*
X0133042Y0025839D01*
X0133042Y0026000D02*
X0133042Y0021300D01*
X0132948Y0021300D01*
X0132171Y0021423D01*
X0131422Y0021666D01*
X0130721Y0022024D01*
X0130085Y0022486D01*
X0129528Y0023043D01*
X0129065Y0023679D01*
X0128708Y0024381D01*
X0128465Y0025129D01*
X0128342Y0025906D01*
X0128342Y0026000D01*
X0133042Y0026000D01*
X0133042Y0026437D02*
X0089742Y0026437D01*
X0089742Y0025839D02*
X0128352Y0025839D01*
X0128447Y0025240D02*
X0089742Y0025240D01*
X0089742Y0024642D02*
X0128623Y0024642D01*
X0128880Y0024043D02*
X0089742Y0024043D01*
X0089742Y0023445D02*
X0129236Y0023445D01*
X0129724Y0022846D02*
X0089742Y0022846D01*
X0089742Y0022248D02*
X0130413Y0022248D01*
X0133042Y0022248D02*
X0133642Y0022248D01*
X0133642Y0022846D02*
X0133042Y0022846D01*
X0133042Y0023445D02*
X0133642Y0023445D01*
X0133642Y0024043D02*
X0133042Y0024043D01*
X0133042Y0024642D02*
X0133642Y0024642D01*
X0133642Y0025240D02*
X0133042Y0025240D01*
X0133042Y0027036D02*
X0133642Y0027036D01*
X0133642Y0027634D02*
X0133042Y0027634D01*
X0133042Y0028233D02*
X0133642Y0028233D01*
X0133642Y0028832D02*
X0133042Y0028832D01*
X0133042Y0029430D02*
X0133642Y0029430D01*
X0133642Y0030029D02*
X0133042Y0030029D01*
X0133042Y0030627D02*
X0133642Y0030627D01*
X0133642Y0031226D02*
X0133042Y0031226D01*
X0134205Y0031226D02*
X0141463Y0031226D01*
X0141463Y0031824D02*
X0134556Y0031824D01*
X0135970Y0032423D02*
X0141463Y0032423D01*
X0141463Y0033021D02*
X0136568Y0033021D01*
X0137167Y0033620D02*
X0141463Y0033620D01*
X0141463Y0034218D02*
X0137458Y0034218D01*
X0137706Y0034817D02*
X0141463Y0034817D01*
X0141463Y0035415D02*
X0137942Y0035415D01*
X0137942Y0036014D02*
X0141463Y0036014D01*
X0141463Y0036612D02*
X0137942Y0036612D01*
X0137942Y0037211D02*
X0141463Y0037211D01*
X0141463Y0037809D02*
X0137696Y0037809D01*
X0137448Y0038408D02*
X0141463Y0038408D01*
X0141463Y0039006D02*
X0137141Y0039006D01*
X0136542Y0039605D02*
X0141463Y0039605D01*
X0141463Y0040203D02*
X0135939Y0040203D01*
X0132190Y0040802D02*
X0115520Y0040802D01*
X0116476Y0040203D02*
X0130745Y0040203D01*
X0130141Y0039605D02*
X0117108Y0039605D01*
X0117556Y0039006D02*
X0129543Y0039006D01*
X0129236Y0038408D02*
X0117880Y0038408D01*
X0118109Y0037809D02*
X0128988Y0037809D01*
X0128742Y0037211D02*
X0118260Y0037211D01*
X0114978Y0041999D02*
X0131705Y0041999D01*
X0130539Y0042597D02*
X0116144Y0042597D01*
X0116743Y0043196D02*
X0129941Y0043196D01*
X0129401Y0043794D02*
X0117283Y0043794D01*
X0117531Y0044393D02*
X0129153Y0044393D01*
X0128905Y0044991D02*
X0117779Y0044991D01*
X0117942Y0045590D02*
X0128742Y0045590D01*
X0128742Y0046188D02*
X0117942Y0046188D01*
X0117942Y0046787D02*
X0128742Y0046787D01*
X0128812Y0047385D02*
X0117871Y0047385D01*
X0117623Y0047984D02*
X0129060Y0047984D01*
X0129308Y0048582D02*
X0117375Y0048582D01*
X0116966Y0049181D02*
X0129717Y0049181D01*
X0130316Y0049779D02*
X0116368Y0049779D01*
X0115517Y0050378D02*
X0131166Y0050378D01*
X0131284Y0052173D02*
X0115400Y0052173D01*
X0116319Y0052772D02*
X0130364Y0052772D01*
X0129766Y0053370D02*
X0116918Y0053370D01*
X0117355Y0053969D02*
X0129328Y0053969D01*
X0129080Y0054568D02*
X0117603Y0054568D01*
X0117851Y0055166D02*
X0128833Y0055166D01*
X0128742Y0055765D02*
X0117942Y0055765D01*
X0117942Y0056363D02*
X0128742Y0056363D01*
X0128742Y0056962D02*
X0117942Y0056962D01*
X0117799Y0057560D02*
X0128885Y0057560D01*
X0129133Y0058159D02*
X0117551Y0058159D01*
X0117303Y0058757D02*
X0129381Y0058757D01*
X0129892Y0059356D02*
X0116792Y0059356D01*
X0116193Y0059954D02*
X0130491Y0059954D01*
X0131588Y0060553D02*
X0115095Y0060553D01*
X0114377Y0061750D02*
X0132307Y0061750D01*
X0130862Y0062348D02*
X0115822Y0062348D01*
X0116494Y0062947D02*
X0130190Y0062947D01*
X0129591Y0063545D02*
X0117092Y0063545D01*
X0117428Y0064144D02*
X0129256Y0064144D01*
X0129008Y0064742D02*
X0117676Y0064742D01*
X0117923Y0065341D02*
X0128760Y0065341D01*
X0128742Y0065939D02*
X0117942Y0065939D01*
X0117942Y0066538D02*
X0128742Y0066538D01*
X0128742Y0067136D02*
X0117942Y0067136D01*
X0117727Y0067735D02*
X0128957Y0067735D01*
X0129205Y0068333D02*
X0117479Y0068333D01*
X0117215Y0068932D02*
X0129468Y0068932D01*
X0130067Y0069530D02*
X0116617Y0069530D01*
X0116018Y0070129D02*
X0130665Y0070129D01*
X0130614Y0072523D02*
X0089742Y0072523D01*
X0089742Y0073121D02*
X0130015Y0073121D01*
X0129432Y0073720D02*
X0089866Y0073720D01*
X0090556Y0074318D02*
X0129184Y0074318D01*
X0128936Y0074917D02*
X0090980Y0074917D01*
X0091228Y0075515D02*
X0128742Y0075515D01*
X0128742Y0076114D02*
X0091309Y0076114D01*
X0091309Y0076712D02*
X0128742Y0076712D01*
X0128782Y0077311D02*
X0091134Y0077311D01*
X0090887Y0077909D02*
X0129029Y0077909D01*
X0129277Y0078508D02*
X0090330Y0078508D01*
X0089319Y0079106D02*
X0129643Y0079106D01*
X0130241Y0079705D02*
X0046442Y0079705D01*
X0047041Y0079106D02*
X0087364Y0079106D01*
X0086354Y0078508D02*
X0047406Y0078508D01*
X0047654Y0077909D02*
X0085797Y0077909D01*
X0085549Y0077311D02*
X0047902Y0077311D01*
X0047942Y0076712D02*
X0085375Y0076712D01*
X0085375Y0076114D02*
X0047942Y0076114D01*
X0047942Y0075515D02*
X0085455Y0075515D01*
X0085703Y0074917D02*
X0047748Y0074917D01*
X0047500Y0074318D02*
X0086128Y0074318D01*
X0086818Y0073720D02*
X0047252Y0073720D01*
X0046669Y0073121D02*
X0086942Y0073121D01*
X0086942Y0072523D02*
X0046070Y0072523D01*
X0040614Y0072523D02*
X0035142Y0072523D01*
X0035142Y0073121D02*
X0040015Y0073121D01*
X0039432Y0073720D02*
X0035142Y0073720D01*
X0035142Y0074318D02*
X0039184Y0074318D01*
X0038936Y0074917D02*
X0035142Y0074917D01*
X0035142Y0075515D02*
X0038742Y0075515D01*
X0038742Y0076114D02*
X0035142Y0076114D01*
X0035142Y0076712D02*
X0038742Y0076712D01*
X0038782Y0077311D02*
X0035142Y0077311D01*
X0035142Y0077909D02*
X0039029Y0077909D01*
X0039277Y0078508D02*
X0035142Y0078508D01*
X0035142Y0079106D02*
X0039643Y0079106D01*
X0040241Y0079705D02*
X0035142Y0079705D01*
X0035142Y0080303D02*
X0040987Y0080303D01*
X0041463Y0082099D02*
X0035142Y0082099D01*
X0035142Y0081501D02*
X0141463Y0081501D01*
X0141463Y0082099D02*
X0135220Y0082099D01*
X0135947Y0082400D02*
X0137241Y0083694D01*
X0137942Y0085385D01*
X0137942Y0087215D01*
X0137241Y0088906D01*
X0135947Y0090200D01*
X0134257Y0090900D01*
X0132427Y0090900D01*
X0130736Y0090200D01*
X0129442Y0088906D01*
X0128742Y0087215D01*
X0128742Y0085385D01*
X0129442Y0083694D01*
X0130736Y0082400D01*
X0132427Y0081700D01*
X0134257Y0081700D01*
X0135947Y0082400D01*
X0136245Y0082698D02*
X0141463Y0082698D01*
X0141463Y0083296D02*
X0136843Y0083296D01*
X0137324Y0083895D02*
X0141463Y0083895D01*
X0141463Y0084493D02*
X0137572Y0084493D01*
X0137820Y0085092D02*
X0141463Y0085092D01*
X0141463Y0085690D02*
X0137942Y0085690D01*
X0137942Y0086289D02*
X0141463Y0086289D01*
X0141463Y0086887D02*
X0137942Y0086887D01*
X0137830Y0087486D02*
X0141463Y0087486D01*
X0141463Y0088084D02*
X0137582Y0088084D01*
X0137334Y0088683D02*
X0141463Y0088683D01*
X0141463Y0089281D02*
X0136866Y0089281D01*
X0136267Y0089880D02*
X0141463Y0089880D01*
X0141463Y0090478D02*
X0135275Y0090478D01*
X0131408Y0090478D02*
X0103274Y0090478D01*
X0103219Y0090129D02*
X0103342Y0090906D01*
X0103342Y0091000D01*
X0098642Y0091000D01*
X0098642Y0091600D01*
X0103342Y0091600D01*
X0103342Y0091694D01*
X0103219Y0092471D01*
X0102975Y0093219D01*
X0102618Y0093921D01*
X0102156Y0094557D01*
X0101599Y0095114D01*
X0100962Y0095576D01*
X0100261Y0095934D01*
X0099513Y0096177D01*
X0098735Y0096300D01*
X0098642Y0096300D01*
X0098642Y0091600D01*
X0098042Y0091600D01*
X0098042Y0096300D01*
X0097948Y0096300D01*
X0097171Y0096177D01*
X0096422Y0095934D01*
X0095721Y0095576D01*
X0095085Y0095114D01*
X0094528Y0094557D01*
X0094065Y0093921D01*
X0093708Y0093219D01*
X0093465Y0092471D01*
X0093342Y0091694D01*
X0093342Y0091600D01*
X0098042Y0091600D01*
X0098042Y0091000D01*
X0098642Y0091000D01*
X0098642Y0086300D01*
X0098735Y0086300D01*
X0099513Y0086423D01*
X0100261Y0086666D01*
X0100962Y0087024D01*
X0101599Y0087486D01*
X0102156Y0088043D01*
X0102618Y0088679D01*
X0102975Y0089381D01*
X0103219Y0090129D01*
X0103138Y0089880D02*
X0130416Y0089880D01*
X0129818Y0089281D02*
X0102925Y0089281D01*
X0102620Y0088683D02*
X0129350Y0088683D01*
X0129102Y0088084D02*
X0102186Y0088084D01*
X0101598Y0087486D02*
X0128854Y0087486D01*
X0128742Y0086887D02*
X0100694Y0086887D01*
X0098642Y0086887D02*
X0098042Y0086887D01*
X0098042Y0086300D02*
X0098042Y0091000D01*
X0093342Y0091000D01*
X0093342Y0090906D01*
X0093465Y0090129D01*
X0093708Y0089381D01*
X0094065Y0088679D01*
X0094528Y0088043D01*
X0095085Y0087486D01*
X0091033Y0087486D01*
X0090947Y0087400D02*
X0092241Y0088694D01*
X0092942Y0090385D01*
X0092942Y0092215D01*
X0092241Y0093906D01*
X0090947Y0095200D01*
X0089257Y0095900D01*
X0087427Y0095900D01*
X0085736Y0095200D01*
X0084442Y0093906D01*
X0083742Y0092215D01*
X0083742Y0090385D01*
X0084442Y0088694D01*
X0085736Y0087400D01*
X0087427Y0086700D01*
X0089257Y0086700D01*
X0090947Y0087400D01*
X0091631Y0088084D02*
X0094498Y0088084D01*
X0094064Y0088683D02*
X0092230Y0088683D01*
X0092485Y0089281D02*
X0093759Y0089281D01*
X0093546Y0089880D02*
X0092732Y0089880D01*
X0092942Y0090478D02*
X0093410Y0090478D01*
X0092942Y0091077D02*
X0098042Y0091077D01*
X0098042Y0091675D02*
X0098642Y0091675D01*
X0098642Y0091077D02*
X0141463Y0091077D01*
X0141463Y0091675D02*
X0103342Y0091675D01*
X0103250Y0092274D02*
X0141463Y0092274D01*
X0141463Y0092872D02*
X0103088Y0092872D01*
X0102847Y0093471D02*
X0141463Y0093471D01*
X0141463Y0094069D02*
X0102510Y0094069D01*
X0102045Y0094668D02*
X0141463Y0094668D01*
X0141463Y0095266D02*
X0101389Y0095266D01*
X0100396Y0095865D02*
X0141463Y0095865D01*
X0141463Y0096463D02*
X0035142Y0096463D01*
X0035142Y0095865D02*
X0067342Y0095865D01*
X0067427Y0095900D02*
X0065736Y0095200D01*
X0064442Y0093906D01*
X0063742Y0092215D01*
X0063742Y0090385D01*
X0064442Y0088694D01*
X0065736Y0087400D01*
X0067427Y0086700D01*
X0069257Y0086700D01*
X0070947Y0087400D01*
X0072241Y0088694D01*
X0072942Y0090385D01*
X0072942Y0092215D01*
X0072241Y0093906D01*
X0070947Y0095200D01*
X0069257Y0095900D01*
X0067427Y0095900D01*
X0065897Y0095266D02*
X0035142Y0095266D01*
X0035142Y0094668D02*
X0065204Y0094668D01*
X0064606Y0094069D02*
X0035142Y0094069D01*
X0035142Y0093471D02*
X0064262Y0093471D01*
X0064014Y0092872D02*
X0035142Y0092872D01*
X0035142Y0092274D02*
X0063766Y0092274D01*
X0063742Y0091675D02*
X0035142Y0091675D01*
X0035142Y0091077D02*
X0063742Y0091077D01*
X0063742Y0090478D02*
X0045275Y0090478D01*
X0045947Y0090200D02*
X0044257Y0090900D01*
X0042427Y0090900D01*
X0040736Y0090200D01*
X0039442Y0088906D01*
X0038742Y0087215D01*
X0038742Y0085385D01*
X0039442Y0083694D01*
X0040736Y0082400D01*
X0042427Y0081700D01*
X0044257Y0081700D01*
X0045947Y0082400D01*
X0047241Y0083694D01*
X0047942Y0085385D01*
X0047942Y0087215D01*
X0047241Y0088906D01*
X0045947Y0090200D01*
X0046267Y0089880D02*
X0063951Y0089880D01*
X0064199Y0089281D02*
X0046866Y0089281D01*
X0047334Y0088683D02*
X0064454Y0088683D01*
X0065052Y0088084D02*
X0047582Y0088084D01*
X0047830Y0087486D02*
X0065651Y0087486D01*
X0066975Y0086887D02*
X0047942Y0086887D01*
X0047942Y0086289D02*
X0128742Y0086289D01*
X0128742Y0085690D02*
X0047942Y0085690D01*
X0047820Y0085092D02*
X0128863Y0085092D01*
X0129111Y0084493D02*
X0047572Y0084493D01*
X0047324Y0083895D02*
X0129359Y0083895D01*
X0129840Y0083296D02*
X0046843Y0083296D01*
X0046245Y0082698D02*
X0130439Y0082698D01*
X0131463Y0082099D02*
X0045220Y0082099D01*
X0045697Y0080303D02*
X0130987Y0080303D01*
X0135697Y0080303D02*
X0141463Y0080303D01*
X0141463Y0079705D02*
X0136442Y0079705D01*
X0137041Y0079106D02*
X0141463Y0079106D01*
X0141463Y0078508D02*
X0137406Y0078508D01*
X0137654Y0077909D02*
X0141463Y0077909D01*
X0141463Y0077311D02*
X0137902Y0077311D01*
X0137942Y0076712D02*
X0141463Y0076712D01*
X0141463Y0076114D02*
X0137942Y0076114D01*
X0137942Y0075515D02*
X0141463Y0075515D01*
X0141463Y0074917D02*
X0137748Y0074917D01*
X0137500Y0074318D02*
X0141463Y0074318D01*
X0141463Y0073720D02*
X0137252Y0073720D01*
X0136669Y0073121D02*
X0141463Y0073121D01*
X0141463Y0072523D02*
X0136070Y0072523D01*
X0141463Y0080902D02*
X0035142Y0080902D01*
X0035142Y0082698D02*
X0040439Y0082698D01*
X0039840Y0083296D02*
X0035142Y0083296D01*
X0035142Y0083895D02*
X0039359Y0083895D01*
X0039111Y0084493D02*
X0035142Y0084493D01*
X0035142Y0085092D02*
X0038863Y0085092D01*
X0038742Y0085690D02*
X0035142Y0085690D01*
X0035142Y0086289D02*
X0038742Y0086289D01*
X0038742Y0086887D02*
X0035142Y0086887D01*
X0035142Y0087486D02*
X0038854Y0087486D01*
X0039102Y0088084D02*
X0035142Y0088084D01*
X0035142Y0088683D02*
X0039350Y0088683D01*
X0039818Y0089281D02*
X0035142Y0089281D01*
X0035142Y0089880D02*
X0040416Y0089880D01*
X0041408Y0090478D02*
X0035142Y0090478D01*
X0035142Y0097062D02*
X0141463Y0097062D01*
X0141463Y0097660D02*
X0035142Y0097660D01*
X0069342Y0095865D02*
X0077342Y0095865D01*
X0077427Y0095900D02*
X0075736Y0095200D01*
X0074442Y0093906D01*
X0073742Y0092215D01*
X0073742Y0090385D01*
X0074442Y0088694D01*
X0075736Y0087400D01*
X0077427Y0086700D01*
X0079257Y0086700D01*
X0080947Y0087400D01*
X0082241Y0088694D01*
X0082942Y0090385D01*
X0082942Y0092215D01*
X0082241Y0093906D01*
X0080947Y0095200D01*
X0079257Y0095900D01*
X0077427Y0095900D01*
X0075897Y0095266D02*
X0070787Y0095266D01*
X0071479Y0094668D02*
X0075204Y0094668D01*
X0074606Y0094069D02*
X0072078Y0094069D01*
X0072422Y0093471D02*
X0074262Y0093471D01*
X0074014Y0092872D02*
X0072670Y0092872D01*
X0072917Y0092274D02*
X0073766Y0092274D01*
X0073742Y0091675D02*
X0072942Y0091675D01*
X0072942Y0091077D02*
X0073742Y0091077D01*
X0073742Y0090478D02*
X0072942Y0090478D01*
X0072732Y0089880D02*
X0073951Y0089880D01*
X0074199Y0089281D02*
X0072485Y0089281D01*
X0072230Y0088683D02*
X0074454Y0088683D01*
X0075052Y0088084D02*
X0071631Y0088084D01*
X0071033Y0087486D02*
X0075651Y0087486D01*
X0076975Y0086887D02*
X0069709Y0086887D01*
X0079709Y0086887D02*
X0086975Y0086887D01*
X0085651Y0087486D02*
X0081033Y0087486D01*
X0081631Y0088084D02*
X0085052Y0088084D01*
X0084454Y0088683D02*
X0082230Y0088683D01*
X0082485Y0089281D02*
X0084199Y0089281D01*
X0083951Y0089880D02*
X0082732Y0089880D01*
X0082942Y0090478D02*
X0083742Y0090478D01*
X0083742Y0091077D02*
X0082942Y0091077D01*
X0082942Y0091675D02*
X0083742Y0091675D01*
X0083766Y0092274D02*
X0082917Y0092274D01*
X0082670Y0092872D02*
X0084014Y0092872D01*
X0084262Y0093471D02*
X0082422Y0093471D01*
X0082078Y0094069D02*
X0084606Y0094069D01*
X0085204Y0094668D02*
X0081479Y0094668D01*
X0080787Y0095266D02*
X0085897Y0095266D01*
X0087342Y0095865D02*
X0079342Y0095865D01*
X0089342Y0095865D02*
X0096287Y0095865D01*
X0095294Y0095266D02*
X0090787Y0095266D01*
X0091479Y0094668D02*
X0094639Y0094668D01*
X0094173Y0094069D02*
X0092078Y0094069D01*
X0092422Y0093471D02*
X0093836Y0093471D01*
X0093595Y0092872D02*
X0092670Y0092872D01*
X0092917Y0092274D02*
X0093434Y0092274D01*
X0093342Y0091675D02*
X0092942Y0091675D01*
X0095085Y0087486D02*
X0095721Y0087024D01*
X0096422Y0086666D01*
X0097171Y0086423D01*
X0097948Y0086300D01*
X0098042Y0086300D01*
X0098042Y0087486D02*
X0098642Y0087486D01*
X0098642Y0088084D02*
X0098042Y0088084D01*
X0098042Y0088683D02*
X0098642Y0088683D01*
X0098642Y0089281D02*
X0098042Y0089281D01*
X0098042Y0089880D02*
X0098642Y0089880D01*
X0098642Y0090478D02*
X0098042Y0090478D01*
X0098042Y0092274D02*
X0098642Y0092274D01*
X0098642Y0092872D02*
X0098042Y0092872D01*
X0098042Y0093471D02*
X0098642Y0093471D01*
X0098642Y0094069D02*
X0098042Y0094069D01*
X0098042Y0094668D02*
X0098642Y0094668D01*
X0098642Y0095266D02*
X0098042Y0095266D01*
X0098042Y0095865D02*
X0098642Y0095865D01*
X0095989Y0086887D02*
X0089709Y0086887D01*
X0089742Y0070727D02*
X0092010Y0070727D01*
X0090665Y0070129D02*
X0089742Y0070129D01*
X0089742Y0069530D02*
X0090067Y0069530D01*
X0090190Y0062947D02*
X0089742Y0062947D01*
X0089742Y0062348D02*
X0090862Y0062348D01*
X0089742Y0061750D02*
X0092307Y0061750D01*
X0091588Y0060553D02*
X0089742Y0060553D01*
X0089742Y0061151D02*
X0141463Y0061151D01*
X0141463Y0030627D02*
X0135863Y0030627D01*
X0136684Y0030029D02*
X0141463Y0030029D01*
X0141463Y0029430D02*
X0137248Y0029430D01*
X0137664Y0028832D02*
X0141463Y0028832D01*
X0141463Y0028233D02*
X0137969Y0028233D01*
X0138166Y0027634D02*
X0141463Y0027634D01*
X0141463Y0027036D02*
X0138288Y0027036D01*
X0133642Y0021649D02*
X0133042Y0021649D01*
X0135337Y0020452D02*
X0141463Y0020452D01*
X0141463Y0019854D02*
X0136293Y0019854D01*
X0136892Y0019255D02*
X0141463Y0019255D01*
X0141463Y0018657D02*
X0137345Y0018657D01*
X0137592Y0018058D02*
X0141463Y0018058D01*
X0141463Y0017460D02*
X0137840Y0017460D01*
X0137942Y0016861D02*
X0141463Y0016861D01*
X0141463Y0016263D02*
X0137942Y0016263D01*
X0137942Y0015664D02*
X0141463Y0015664D01*
X0141463Y0015066D02*
X0137810Y0015066D01*
X0137562Y0014467D02*
X0141463Y0014467D01*
X0141463Y0013869D02*
X0137314Y0013869D01*
X0136817Y0013270D02*
X0141463Y0013270D01*
X0141463Y0012672D02*
X0136219Y0012672D01*
X0135158Y0012073D02*
X0141463Y0012073D01*
X0131526Y0012073D02*
X0066031Y0012073D01*
X0066785Y0012672D02*
X0130465Y0012672D01*
X0128396Y0027036D02*
X0089742Y0027036D01*
X0089742Y0027634D02*
X0128518Y0027634D01*
X0128715Y0028233D02*
X0089742Y0028233D01*
X0089742Y0028832D02*
X0129020Y0028832D01*
X0129436Y0029430D02*
X0089742Y0029430D01*
X0089742Y0030029D02*
X0129999Y0030029D01*
X0130821Y0030627D02*
X0089742Y0030627D01*
X0089742Y0032423D02*
X0090172Y0032423D01*
X0089742Y0019255D02*
X0112724Y0019255D01*
X0111503Y0018657D02*
X0089742Y0018657D01*
X0089742Y0018058D02*
X0110904Y0018058D01*
X0089892Y0059356D02*
X0089742Y0059356D01*
X0089742Y0059954D02*
X0090491Y0059954D01*
X0060745Y0040203D02*
X0045939Y0040203D01*
X0046542Y0039605D02*
X0060141Y0039605D01*
X0059543Y0039006D02*
X0047141Y0039006D01*
X0047448Y0038408D02*
X0059236Y0038408D01*
X0058988Y0037809D02*
X0047696Y0037809D01*
X0047942Y0037211D02*
X0058742Y0037211D01*
X0058742Y0036612D02*
X0047942Y0036612D01*
X0047942Y0036014D02*
X0058742Y0036014D01*
X0058742Y0035415D02*
X0047942Y0035415D01*
X0047706Y0034817D02*
X0058977Y0034817D01*
X0059225Y0034218D02*
X0047458Y0034218D01*
X0047167Y0033620D02*
X0059517Y0033620D01*
X0060115Y0033021D02*
X0046568Y0033021D01*
X0045970Y0032423D02*
X0060714Y0032423D01*
D12*
X0088342Y0076300D03*
X0113342Y0016300D03*
D13*
X0088342Y0016300D01*
X0088342Y0076300D01*
M02*
