%
M48
M72
T01C0.0276
T02C0.0400
%
T01
X8834Y7630
X11334Y1630
T02
X4334Y1630
X4334Y2630
X4334Y3630
X4334Y4630
X4334Y5630
X4334Y6630
X4334Y7630
X4334Y8630
X6834Y9130
X7834Y9130
X8834Y9130
X9834Y9130
X9334Y6630
X9334Y5630
X9334Y4630
X9334Y3630
X11334Y3630
X11334Y4630
X11334Y5630
X11334Y6630
X13334Y6630
X13334Y5630
X13334Y4630
X13334Y3630
X13334Y2630
X13334Y1630
X13334Y7630
X13334Y8630
X6334Y4630
X6334Y3630
X6334Y2630
X6334Y1630
M30
