G04 EAGLE Gerber X2 export*
%TF.Part,Single*%
%TF.FileFunction,Copper,L1,Top,Mixed*%
%TF.FilePolarity,Positive*%
%TF.GenerationSoftware,Autodesk,EAGLE,9.1.1*%
%TF.CreationDate,2018-08-03T17:53:41Z*%
G75*
%MOMM*%
%FSLAX34Y34*%
%LPD*%
%AMOC8*
5,1,8,0,0,1.08239X$1,22.5*%
G01*
%ADD10C,1.879600*%
%ADD11R,1.300000X1.500000*%
%ADD12C,0.254000*%
%ADD13C,1.050000*%

G36*
X274648Y3814D02*
X274648Y3814D01*
X274667Y3812D01*
X274769Y3834D01*
X274871Y3850D01*
X274888Y3860D01*
X274908Y3864D01*
X274997Y3917D01*
X275088Y3966D01*
X275102Y3980D01*
X275119Y3990D01*
X275186Y4069D01*
X275258Y4144D01*
X275266Y4162D01*
X275279Y4177D01*
X275318Y4273D01*
X275361Y4367D01*
X275363Y4387D01*
X275371Y4405D01*
X275389Y4572D01*
X275389Y246128D01*
X275386Y246148D01*
X275388Y246167D01*
X275366Y246269D01*
X275350Y246371D01*
X275340Y246388D01*
X275336Y246408D01*
X275283Y246497D01*
X275234Y246588D01*
X275220Y246602D01*
X275210Y246619D01*
X275131Y246686D01*
X275056Y246758D01*
X275038Y246766D01*
X275023Y246779D01*
X274927Y246818D01*
X274833Y246861D01*
X274813Y246863D01*
X274795Y246871D01*
X274628Y246889D01*
X4572Y246889D01*
X4552Y246886D01*
X4533Y246888D01*
X4431Y246866D01*
X4329Y246850D01*
X4312Y246840D01*
X4292Y246836D01*
X4203Y246783D01*
X4112Y246734D01*
X4098Y246720D01*
X4081Y246710D01*
X4014Y246631D01*
X3942Y246556D01*
X3934Y246538D01*
X3921Y246523D01*
X3882Y246427D01*
X3839Y246333D01*
X3837Y246313D01*
X3829Y246295D01*
X3811Y246128D01*
X3811Y4572D01*
X3814Y4552D01*
X3812Y4533D01*
X3834Y4431D01*
X3850Y4329D01*
X3860Y4312D01*
X3864Y4292D01*
X3917Y4203D01*
X3966Y4112D01*
X3980Y4098D01*
X3990Y4081D01*
X4069Y4014D01*
X4144Y3942D01*
X4162Y3934D01*
X4177Y3921D01*
X4273Y3882D01*
X4367Y3839D01*
X4387Y3837D01*
X4405Y3829D01*
X4572Y3811D01*
X274628Y3811D01*
X274648Y3814D01*
G37*
%LPC*%
G36*
X24242Y9905D02*
X24242Y9905D01*
X22605Y11542D01*
X22605Y26926D01*
X22586Y27041D01*
X22569Y27157D01*
X22567Y27163D01*
X22566Y27169D01*
X22511Y27272D01*
X22458Y27376D01*
X22453Y27381D01*
X22450Y27386D01*
X22366Y27466D01*
X22282Y27549D01*
X22276Y27552D01*
X22272Y27556D01*
X22255Y27564D01*
X22135Y27630D01*
X19213Y28840D01*
X16140Y31913D01*
X14477Y35927D01*
X14477Y40273D01*
X16140Y44287D01*
X19213Y47360D01*
X23227Y49023D01*
X27573Y49023D01*
X31587Y47360D01*
X34660Y44287D01*
X36323Y40273D01*
X36323Y35927D01*
X34660Y31913D01*
X31587Y28840D01*
X28665Y27630D01*
X28565Y27568D01*
X28465Y27508D01*
X28461Y27503D01*
X28456Y27500D01*
X28381Y27409D01*
X28305Y27321D01*
X28303Y27315D01*
X28299Y27311D01*
X28257Y27202D01*
X28213Y27093D01*
X28212Y27085D01*
X28211Y27081D01*
X28210Y27063D01*
X28195Y26926D01*
X28195Y16256D01*
X28198Y16236D01*
X28196Y16217D01*
X28218Y16115D01*
X28234Y16013D01*
X28244Y15996D01*
X28248Y15976D01*
X28301Y15887D01*
X28350Y15796D01*
X28364Y15782D01*
X28374Y15765D01*
X28453Y15698D01*
X28528Y15626D01*
X28546Y15618D01*
X28561Y15605D01*
X28657Y15566D01*
X28751Y15523D01*
X28771Y15521D01*
X28789Y15513D01*
X28956Y15495D01*
X123444Y15495D01*
X123464Y15498D01*
X123483Y15496D01*
X123585Y15518D01*
X123687Y15534D01*
X123704Y15544D01*
X123724Y15548D01*
X123813Y15601D01*
X123904Y15650D01*
X123918Y15664D01*
X123935Y15674D01*
X124002Y15753D01*
X124074Y15828D01*
X124082Y15846D01*
X124095Y15861D01*
X124134Y15957D01*
X124177Y16051D01*
X124179Y16071D01*
X124187Y16089D01*
X124205Y16256D01*
X124205Y115458D01*
X125842Y117095D01*
X141226Y117095D01*
X141341Y117114D01*
X141457Y117131D01*
X141463Y117133D01*
X141469Y117134D01*
X141572Y117189D01*
X141676Y117242D01*
X141681Y117247D01*
X141686Y117250D01*
X141766Y117334D01*
X141849Y117418D01*
X141852Y117424D01*
X141856Y117428D01*
X141864Y117445D01*
X141930Y117565D01*
X143140Y120487D01*
X146213Y123560D01*
X150227Y125223D01*
X154573Y125223D01*
X158587Y123560D01*
X161660Y120487D01*
X162870Y117565D01*
X162932Y117465D01*
X162992Y117365D01*
X162997Y117361D01*
X163000Y117356D01*
X163090Y117281D01*
X163179Y117205D01*
X163185Y117203D01*
X163189Y117199D01*
X163298Y117157D01*
X163407Y117113D01*
X163415Y117112D01*
X163419Y117111D01*
X163437Y117110D01*
X163574Y117095D01*
X192026Y117095D01*
X192141Y117114D01*
X192257Y117131D01*
X192263Y117133D01*
X192269Y117134D01*
X192372Y117189D01*
X192476Y117242D01*
X192481Y117247D01*
X192486Y117250D01*
X192566Y117334D01*
X192649Y117418D01*
X192652Y117424D01*
X192656Y117428D01*
X192664Y117445D01*
X192730Y117565D01*
X193940Y120487D01*
X197013Y123560D01*
X201027Y125223D01*
X205373Y125223D01*
X209387Y123560D01*
X212460Y120487D01*
X214123Y116473D01*
X214123Y112127D01*
X212460Y108113D01*
X209387Y105040D01*
X205373Y103377D01*
X201027Y103377D01*
X197013Y105040D01*
X193940Y108113D01*
X192730Y111035D01*
X192668Y111135D01*
X192608Y111235D01*
X192603Y111239D01*
X192600Y111244D01*
X192510Y111319D01*
X192421Y111395D01*
X192415Y111397D01*
X192411Y111401D01*
X192302Y111443D01*
X192193Y111487D01*
X192185Y111488D01*
X192181Y111489D01*
X192163Y111490D01*
X192026Y111505D01*
X163574Y111505D01*
X163459Y111486D01*
X163343Y111469D01*
X163337Y111467D01*
X163331Y111466D01*
X163228Y111411D01*
X163124Y111358D01*
X163119Y111353D01*
X163114Y111350D01*
X163034Y111266D01*
X162951Y111182D01*
X162948Y111176D01*
X162944Y111172D01*
X162936Y111155D01*
X162870Y111035D01*
X161660Y108113D01*
X158587Y105040D01*
X154573Y103377D01*
X150227Y103377D01*
X146213Y105040D01*
X143140Y108113D01*
X141930Y111035D01*
X141868Y111135D01*
X141808Y111235D01*
X141803Y111239D01*
X141800Y111244D01*
X141710Y111319D01*
X141621Y111395D01*
X141615Y111397D01*
X141611Y111401D01*
X141502Y111443D01*
X141393Y111487D01*
X141385Y111488D01*
X141381Y111489D01*
X141363Y111490D01*
X141226Y111505D01*
X130556Y111505D01*
X130536Y111502D01*
X130517Y111504D01*
X130415Y111482D01*
X130313Y111466D01*
X130296Y111456D01*
X130276Y111452D01*
X130187Y111399D01*
X130096Y111350D01*
X130082Y111336D01*
X130065Y111326D01*
X129998Y111247D01*
X129926Y111172D01*
X129918Y111154D01*
X129905Y111139D01*
X129866Y111043D01*
X129823Y110949D01*
X129821Y110929D01*
X129813Y110911D01*
X129795Y110744D01*
X129795Y11542D01*
X128158Y9905D01*
X24242Y9905D01*
G37*
%LPD*%
%LPC*%
G36*
X150227Y154177D02*
X150227Y154177D01*
X146213Y155840D01*
X143140Y158913D01*
X141477Y162927D01*
X141477Y167273D01*
X143140Y171287D01*
X146213Y174360D01*
X150227Y176023D01*
X154573Y176023D01*
X158587Y174360D01*
X161660Y171287D01*
X162870Y168365D01*
X162932Y168265D01*
X162992Y168165D01*
X162997Y168161D01*
X163000Y168156D01*
X163090Y168081D01*
X163179Y168005D01*
X163185Y168003D01*
X163189Y167999D01*
X163298Y167957D01*
X163407Y167913D01*
X163415Y167912D01*
X163419Y167911D01*
X163437Y167910D01*
X163574Y167895D01*
X192026Y167895D01*
X192141Y167914D01*
X192257Y167931D01*
X192263Y167933D01*
X192269Y167934D01*
X192372Y167989D01*
X192476Y168042D01*
X192481Y168047D01*
X192486Y168050D01*
X192566Y168134D01*
X192649Y168218D01*
X192652Y168224D01*
X192656Y168228D01*
X192664Y168245D01*
X192730Y168365D01*
X193940Y171287D01*
X197013Y174360D01*
X201027Y176023D01*
X205373Y176023D01*
X209387Y174360D01*
X212460Y171287D01*
X213670Y168365D01*
X213732Y168265D01*
X213792Y168165D01*
X213797Y168161D01*
X213800Y168156D01*
X213890Y168081D01*
X213979Y168005D01*
X213985Y168003D01*
X213989Y167999D01*
X214098Y167957D01*
X214207Y167913D01*
X214215Y167912D01*
X214219Y167911D01*
X214237Y167910D01*
X214374Y167895D01*
X242826Y167895D01*
X242941Y167914D01*
X243057Y167931D01*
X243063Y167933D01*
X243069Y167934D01*
X243172Y167989D01*
X243276Y168042D01*
X243281Y168047D01*
X243286Y168050D01*
X243366Y168134D01*
X243449Y168218D01*
X243452Y168224D01*
X243456Y168228D01*
X243464Y168245D01*
X243530Y168365D01*
X244740Y171287D01*
X247813Y174360D01*
X251827Y176023D01*
X256173Y176023D01*
X260187Y174360D01*
X263260Y171287D01*
X264923Y167273D01*
X264923Y162927D01*
X263260Y158913D01*
X260187Y155840D01*
X256173Y154177D01*
X251827Y154177D01*
X247813Y155840D01*
X244740Y158913D01*
X243530Y161835D01*
X243468Y161935D01*
X243408Y162035D01*
X243403Y162039D01*
X243400Y162044D01*
X243310Y162119D01*
X243221Y162195D01*
X243215Y162197D01*
X243211Y162201D01*
X243102Y162243D01*
X242993Y162287D01*
X242985Y162288D01*
X242981Y162289D01*
X242963Y162290D01*
X242826Y162305D01*
X214374Y162305D01*
X214259Y162286D01*
X214143Y162269D01*
X214137Y162267D01*
X214131Y162266D01*
X214028Y162211D01*
X213924Y162158D01*
X213919Y162153D01*
X213914Y162150D01*
X213834Y162066D01*
X213751Y161982D01*
X213748Y161976D01*
X213744Y161972D01*
X213736Y161955D01*
X213670Y161835D01*
X212460Y158913D01*
X209387Y155840D01*
X205373Y154177D01*
X201027Y154177D01*
X197013Y155840D01*
X193940Y158913D01*
X192730Y161835D01*
X192668Y161935D01*
X192608Y162035D01*
X192603Y162039D01*
X192600Y162044D01*
X192510Y162119D01*
X192421Y162195D01*
X192415Y162197D01*
X192411Y162201D01*
X192302Y162243D01*
X192193Y162287D01*
X192185Y162288D01*
X192181Y162289D01*
X192163Y162290D01*
X192026Y162305D01*
X163574Y162305D01*
X163459Y162286D01*
X163343Y162269D01*
X163337Y162267D01*
X163331Y162266D01*
X163228Y162211D01*
X163124Y162158D01*
X163119Y162153D01*
X163114Y162150D01*
X163034Y162066D01*
X162951Y161982D01*
X162948Y161976D01*
X162944Y161972D01*
X162936Y161955D01*
X162870Y161835D01*
X161660Y158913D01*
X158587Y155840D01*
X154573Y154177D01*
X150227Y154177D01*
G37*
%LPD*%
%LPC*%
G36*
X150227Y128777D02*
X150227Y128777D01*
X146213Y130440D01*
X143140Y133513D01*
X141477Y137527D01*
X141477Y141873D01*
X143140Y145887D01*
X146213Y148960D01*
X150227Y150623D01*
X154573Y150623D01*
X158587Y148960D01*
X161660Y145887D01*
X162870Y142965D01*
X162932Y142865D01*
X162992Y142765D01*
X162997Y142761D01*
X163000Y142756D01*
X163090Y142681D01*
X163179Y142605D01*
X163185Y142603D01*
X163189Y142599D01*
X163298Y142557D01*
X163407Y142513D01*
X163415Y142512D01*
X163419Y142511D01*
X163437Y142510D01*
X163574Y142495D01*
X192026Y142495D01*
X192141Y142514D01*
X192257Y142531D01*
X192263Y142533D01*
X192269Y142534D01*
X192372Y142589D01*
X192476Y142642D01*
X192481Y142647D01*
X192486Y142650D01*
X192566Y142734D01*
X192649Y142818D01*
X192652Y142824D01*
X192656Y142828D01*
X192664Y142845D01*
X192730Y142965D01*
X193940Y145887D01*
X197013Y148960D01*
X201027Y150623D01*
X205373Y150623D01*
X209387Y148960D01*
X212460Y145887D01*
X213670Y142965D01*
X213732Y142865D01*
X213792Y142765D01*
X213797Y142761D01*
X213800Y142756D01*
X213890Y142681D01*
X213979Y142605D01*
X213985Y142603D01*
X213989Y142599D01*
X214098Y142557D01*
X214207Y142513D01*
X214215Y142512D01*
X214219Y142511D01*
X214237Y142510D01*
X214374Y142495D01*
X242826Y142495D01*
X242941Y142514D01*
X243057Y142531D01*
X243063Y142533D01*
X243069Y142534D01*
X243172Y142589D01*
X243276Y142642D01*
X243281Y142647D01*
X243286Y142650D01*
X243366Y142734D01*
X243449Y142818D01*
X243452Y142824D01*
X243456Y142828D01*
X243464Y142845D01*
X243530Y142965D01*
X244740Y145887D01*
X247813Y148960D01*
X251827Y150623D01*
X256173Y150623D01*
X260187Y148960D01*
X263260Y145887D01*
X264923Y141873D01*
X264923Y137527D01*
X263260Y133513D01*
X260187Y130440D01*
X256173Y128777D01*
X251827Y128777D01*
X247813Y130440D01*
X244740Y133513D01*
X243530Y136435D01*
X243468Y136535D01*
X243408Y136635D01*
X243403Y136639D01*
X243400Y136644D01*
X243310Y136719D01*
X243221Y136795D01*
X243215Y136797D01*
X243211Y136801D01*
X243102Y136843D01*
X242993Y136887D01*
X242985Y136888D01*
X242981Y136889D01*
X242963Y136890D01*
X242826Y136905D01*
X214374Y136905D01*
X214259Y136886D01*
X214143Y136869D01*
X214137Y136867D01*
X214131Y136866D01*
X214028Y136811D01*
X213924Y136758D01*
X213919Y136753D01*
X213914Y136750D01*
X213834Y136666D01*
X213751Y136582D01*
X213748Y136576D01*
X213744Y136572D01*
X213736Y136555D01*
X213670Y136435D01*
X212460Y133513D01*
X209387Y130440D01*
X205373Y128777D01*
X201027Y128777D01*
X197013Y130440D01*
X193940Y133513D01*
X192730Y136435D01*
X192668Y136535D01*
X192608Y136635D01*
X192603Y136639D01*
X192600Y136644D01*
X192510Y136719D01*
X192421Y136795D01*
X192415Y136797D01*
X192411Y136801D01*
X192302Y136843D01*
X192193Y136887D01*
X192185Y136888D01*
X192181Y136889D01*
X192163Y136890D01*
X192026Y136905D01*
X163574Y136905D01*
X163459Y136886D01*
X163343Y136869D01*
X163337Y136867D01*
X163331Y136866D01*
X163228Y136811D01*
X163124Y136758D01*
X163119Y136753D01*
X163114Y136750D01*
X163034Y136666D01*
X162951Y136582D01*
X162948Y136576D01*
X162944Y136572D01*
X162936Y136555D01*
X162870Y136435D01*
X161660Y133513D01*
X158587Y130440D01*
X154573Y128777D01*
X150227Y128777D01*
G37*
%LPD*%
%LPC*%
G36*
X23227Y77977D02*
X23227Y77977D01*
X19213Y79640D01*
X16140Y82713D01*
X14477Y86727D01*
X14477Y91073D01*
X16140Y95087D01*
X19213Y98160D01*
X23227Y99823D01*
X27573Y99823D01*
X31587Y98160D01*
X34660Y95087D01*
X35870Y92165D01*
X35932Y92065D01*
X35992Y91965D01*
X35997Y91961D01*
X36000Y91956D01*
X36090Y91881D01*
X36179Y91805D01*
X36185Y91803D01*
X36189Y91799D01*
X36298Y91757D01*
X36407Y91713D01*
X36415Y91712D01*
X36419Y91711D01*
X36437Y91710D01*
X36574Y91695D01*
X65026Y91695D01*
X65141Y91714D01*
X65257Y91731D01*
X65263Y91733D01*
X65269Y91734D01*
X65372Y91789D01*
X65476Y91842D01*
X65481Y91847D01*
X65486Y91850D01*
X65566Y91934D01*
X65649Y92018D01*
X65652Y92024D01*
X65656Y92028D01*
X65664Y92045D01*
X65730Y92165D01*
X66940Y95087D01*
X70013Y98160D01*
X74027Y99823D01*
X78373Y99823D01*
X82387Y98160D01*
X85460Y95087D01*
X87123Y91073D01*
X87123Y86727D01*
X85460Y82713D01*
X82387Y79640D01*
X78373Y77977D01*
X74027Y77977D01*
X70013Y79640D01*
X66940Y82713D01*
X65730Y85635D01*
X65668Y85735D01*
X65608Y85835D01*
X65603Y85839D01*
X65600Y85844D01*
X65510Y85919D01*
X65421Y85995D01*
X65415Y85997D01*
X65410Y86001D01*
X65302Y86043D01*
X65193Y86087D01*
X65185Y86088D01*
X65181Y86089D01*
X65163Y86090D01*
X65026Y86105D01*
X36574Y86105D01*
X36459Y86086D01*
X36343Y86069D01*
X36337Y86067D01*
X36331Y86066D01*
X36228Y86011D01*
X36124Y85958D01*
X36119Y85953D01*
X36114Y85950D01*
X36034Y85866D01*
X35951Y85782D01*
X35948Y85776D01*
X35944Y85772D01*
X35936Y85755D01*
X35870Y85635D01*
X34660Y82713D01*
X31587Y79640D01*
X27573Y77977D01*
X23227Y77977D01*
G37*
%LPD*%
%LPC*%
G36*
X23227Y52577D02*
X23227Y52577D01*
X19213Y54240D01*
X16140Y57313D01*
X14477Y61327D01*
X14477Y65673D01*
X16140Y69687D01*
X19213Y72760D01*
X23227Y74423D01*
X27573Y74423D01*
X31587Y72760D01*
X34660Y69687D01*
X35870Y66765D01*
X35932Y66665D01*
X35992Y66565D01*
X35997Y66561D01*
X36000Y66556D01*
X36090Y66481D01*
X36179Y66405D01*
X36185Y66403D01*
X36189Y66399D01*
X36298Y66357D01*
X36407Y66313D01*
X36415Y66312D01*
X36419Y66311D01*
X36437Y66310D01*
X36574Y66295D01*
X65026Y66295D01*
X65141Y66314D01*
X65257Y66331D01*
X65263Y66333D01*
X65269Y66334D01*
X65372Y66389D01*
X65476Y66442D01*
X65481Y66447D01*
X65486Y66450D01*
X65566Y66534D01*
X65649Y66618D01*
X65652Y66624D01*
X65656Y66628D01*
X65664Y66645D01*
X65730Y66765D01*
X66940Y69687D01*
X70013Y72760D01*
X74027Y74423D01*
X78373Y74423D01*
X82387Y72760D01*
X85460Y69687D01*
X87123Y65673D01*
X87123Y61327D01*
X85460Y57313D01*
X82387Y54240D01*
X78373Y52577D01*
X74027Y52577D01*
X70013Y54240D01*
X66940Y57313D01*
X65730Y60235D01*
X65668Y60335D01*
X65608Y60435D01*
X65603Y60439D01*
X65600Y60444D01*
X65510Y60519D01*
X65421Y60595D01*
X65415Y60597D01*
X65410Y60601D01*
X65302Y60643D01*
X65193Y60687D01*
X65185Y60688D01*
X65181Y60689D01*
X65163Y60690D01*
X65026Y60705D01*
X36574Y60705D01*
X36459Y60686D01*
X36343Y60669D01*
X36337Y60667D01*
X36331Y60666D01*
X36228Y60611D01*
X36124Y60558D01*
X36119Y60553D01*
X36114Y60550D01*
X36034Y60466D01*
X35951Y60382D01*
X35948Y60376D01*
X35944Y60372D01*
X35936Y60355D01*
X35870Y60235D01*
X34660Y57313D01*
X31587Y54240D01*
X27573Y52577D01*
X23227Y52577D01*
G37*
%LPD*%
%LPC*%
G36*
X23227Y103377D02*
X23227Y103377D01*
X19213Y105040D01*
X16140Y108113D01*
X14477Y112127D01*
X14477Y116473D01*
X16140Y120487D01*
X19213Y123560D01*
X23227Y125223D01*
X27573Y125223D01*
X31587Y123560D01*
X34660Y120487D01*
X35870Y117565D01*
X35932Y117465D01*
X35992Y117365D01*
X35997Y117361D01*
X36000Y117356D01*
X36090Y117281D01*
X36179Y117205D01*
X36185Y117203D01*
X36189Y117199D01*
X36298Y117157D01*
X36407Y117113D01*
X36415Y117112D01*
X36419Y117111D01*
X36437Y117110D01*
X36574Y117095D01*
X65026Y117095D01*
X65141Y117114D01*
X65257Y117131D01*
X65263Y117133D01*
X65269Y117134D01*
X65372Y117189D01*
X65476Y117242D01*
X65481Y117247D01*
X65486Y117250D01*
X65566Y117334D01*
X65649Y117418D01*
X65652Y117424D01*
X65656Y117428D01*
X65664Y117445D01*
X65730Y117565D01*
X66940Y120487D01*
X70013Y123560D01*
X74027Y125223D01*
X78373Y125223D01*
X82387Y123560D01*
X85460Y120487D01*
X87123Y116473D01*
X87123Y112127D01*
X85460Y108113D01*
X82387Y105040D01*
X78373Y103377D01*
X74027Y103377D01*
X70013Y105040D01*
X66940Y108113D01*
X65730Y111035D01*
X65668Y111135D01*
X65608Y111235D01*
X65603Y111239D01*
X65600Y111244D01*
X65510Y111319D01*
X65421Y111395D01*
X65415Y111397D01*
X65411Y111401D01*
X65302Y111443D01*
X65193Y111487D01*
X65185Y111488D01*
X65181Y111489D01*
X65163Y111490D01*
X65026Y111505D01*
X36574Y111505D01*
X36459Y111486D01*
X36343Y111469D01*
X36337Y111467D01*
X36331Y111466D01*
X36228Y111411D01*
X36124Y111358D01*
X36119Y111353D01*
X36114Y111350D01*
X36034Y111266D01*
X35951Y111182D01*
X35948Y111176D01*
X35944Y111172D01*
X35936Y111155D01*
X35870Y111035D01*
X34660Y108113D01*
X31587Y105040D01*
X27573Y103377D01*
X23227Y103377D01*
G37*
%LPD*%
%LPC*%
G36*
X23227Y179577D02*
X23227Y179577D01*
X19213Y181240D01*
X16140Y184313D01*
X14477Y188327D01*
X14477Y192673D01*
X16140Y196687D01*
X19213Y199760D01*
X23227Y201423D01*
X27573Y201423D01*
X31587Y199760D01*
X34660Y196687D01*
X35870Y193765D01*
X35932Y193665D01*
X35992Y193565D01*
X35997Y193561D01*
X36000Y193556D01*
X36090Y193481D01*
X36179Y193405D01*
X36185Y193403D01*
X36189Y193399D01*
X36298Y193357D01*
X36407Y193313D01*
X36415Y193312D01*
X36419Y193311D01*
X36437Y193310D01*
X36574Y193295D01*
X57914Y193295D01*
X57934Y193298D01*
X57953Y193296D01*
X58055Y193318D01*
X58157Y193334D01*
X58174Y193344D01*
X58194Y193348D01*
X58283Y193401D01*
X58374Y193450D01*
X58388Y193464D01*
X58405Y193474D01*
X58472Y193553D01*
X58544Y193628D01*
X58552Y193646D01*
X58565Y193661D01*
X58604Y193757D01*
X58647Y193851D01*
X58649Y193871D01*
X58657Y193889D01*
X58675Y194056D01*
X58675Y198632D01*
X59568Y199525D01*
X73832Y199525D01*
X74725Y198632D01*
X74725Y182368D01*
X73832Y181475D01*
X59568Y181475D01*
X58675Y182368D01*
X58675Y186944D01*
X58672Y186964D01*
X58674Y186983D01*
X58652Y187085D01*
X58636Y187187D01*
X58626Y187204D01*
X58622Y187224D01*
X58569Y187313D01*
X58520Y187404D01*
X58506Y187418D01*
X58496Y187435D01*
X58417Y187502D01*
X58342Y187574D01*
X58324Y187582D01*
X58309Y187595D01*
X58213Y187634D01*
X58119Y187677D01*
X58099Y187679D01*
X58081Y187687D01*
X57914Y187705D01*
X36574Y187705D01*
X36459Y187686D01*
X36343Y187669D01*
X36337Y187667D01*
X36331Y187666D01*
X36228Y187611D01*
X36124Y187558D01*
X36119Y187553D01*
X36114Y187550D01*
X36034Y187466D01*
X35951Y187382D01*
X35948Y187376D01*
X35944Y187372D01*
X35936Y187355D01*
X35870Y187235D01*
X34660Y184313D01*
X31587Y181240D01*
X27573Y179577D01*
X23227Y179577D01*
G37*
%LPD*%
%LPC*%
G36*
X78568Y181475D02*
X78568Y181475D01*
X77675Y182368D01*
X77675Y198632D01*
X78568Y199525D01*
X85344Y199525D01*
X85364Y199528D01*
X85383Y199526D01*
X85485Y199548D01*
X85587Y199564D01*
X85604Y199574D01*
X85624Y199578D01*
X85713Y199631D01*
X85804Y199680D01*
X85818Y199694D01*
X85835Y199704D01*
X85902Y199783D01*
X85974Y199858D01*
X85982Y199876D01*
X85995Y199891D01*
X86034Y199987D01*
X86077Y200081D01*
X86079Y200101D01*
X86087Y200119D01*
X86105Y200286D01*
X86105Y217426D01*
X86086Y217541D01*
X86069Y217657D01*
X86067Y217663D01*
X86066Y217669D01*
X86011Y217772D01*
X85958Y217876D01*
X85953Y217881D01*
X85950Y217886D01*
X85866Y217966D01*
X85782Y218049D01*
X85776Y218052D01*
X85772Y218056D01*
X85755Y218064D01*
X85635Y218130D01*
X82713Y219340D01*
X79640Y222413D01*
X77977Y226427D01*
X77977Y230773D01*
X79640Y234787D01*
X82713Y237860D01*
X86727Y239523D01*
X91073Y239523D01*
X95087Y237860D01*
X98160Y234787D01*
X99823Y230773D01*
X99823Y226427D01*
X98160Y222413D01*
X95087Y219340D01*
X92165Y218130D01*
X92065Y218068D01*
X91965Y218008D01*
X91961Y218003D01*
X91956Y218000D01*
X91881Y217910D01*
X91805Y217821D01*
X91803Y217815D01*
X91799Y217811D01*
X91757Y217702D01*
X91713Y217593D01*
X91712Y217585D01*
X91711Y217581D01*
X91710Y217563D01*
X91695Y217426D01*
X91695Y200286D01*
X91698Y200266D01*
X91696Y200247D01*
X91718Y200145D01*
X91734Y200043D01*
X91744Y200026D01*
X91748Y200006D01*
X91801Y199917D01*
X91850Y199826D01*
X91864Y199812D01*
X91874Y199795D01*
X91953Y199728D01*
X92028Y199656D01*
X92046Y199648D01*
X92061Y199635D01*
X92157Y199596D01*
X92251Y199553D01*
X92271Y199551D01*
X92289Y199543D01*
X92456Y199525D01*
X92832Y199525D01*
X93725Y198632D01*
X93725Y182368D01*
X92832Y181475D01*
X78568Y181475D01*
G37*
%LPD*%
%LPC*%
G36*
X251827Y27177D02*
X251827Y27177D01*
X247813Y28840D01*
X244740Y31913D01*
X243530Y34835D01*
X243468Y34935D01*
X243408Y35035D01*
X243403Y35039D01*
X243400Y35044D01*
X243310Y35119D01*
X243221Y35195D01*
X243215Y35197D01*
X243211Y35201D01*
X243102Y35243D01*
X242993Y35287D01*
X242985Y35288D01*
X242981Y35289D01*
X242963Y35290D01*
X242826Y35305D01*
X209884Y35305D01*
X209769Y35286D01*
X209653Y35269D01*
X209647Y35267D01*
X209641Y35266D01*
X209539Y35211D01*
X209434Y35158D01*
X209429Y35153D01*
X209424Y35150D01*
X209344Y35066D01*
X209262Y34982D01*
X209258Y34976D01*
X209254Y34972D01*
X209247Y34955D01*
X209181Y34835D01*
X208943Y34262D01*
X207038Y32357D01*
X204548Y31325D01*
X201852Y31325D01*
X199362Y32357D01*
X197457Y34262D01*
X196425Y36752D01*
X196425Y39448D01*
X197457Y41938D01*
X199362Y43843D01*
X201852Y44875D01*
X204548Y44875D01*
X207038Y43843D01*
X208943Y41938D01*
X209181Y41365D01*
X209243Y41265D01*
X209302Y41165D01*
X209307Y41161D01*
X209310Y41156D01*
X209401Y41081D01*
X209489Y41005D01*
X209495Y41003D01*
X209500Y40999D01*
X209608Y40957D01*
X209717Y40913D01*
X209725Y40912D01*
X209729Y40911D01*
X209748Y40910D01*
X209884Y40895D01*
X242826Y40895D01*
X242941Y40914D01*
X243057Y40931D01*
X243063Y40933D01*
X243069Y40934D01*
X243172Y40989D01*
X243276Y41042D01*
X243281Y41047D01*
X243286Y41050D01*
X243366Y41134D01*
X243449Y41218D01*
X243452Y41224D01*
X243456Y41228D01*
X243464Y41245D01*
X243530Y41365D01*
X244740Y44287D01*
X247813Y47360D01*
X251827Y49023D01*
X256173Y49023D01*
X260187Y47360D01*
X263260Y44287D01*
X264923Y40273D01*
X264923Y35927D01*
X263260Y31913D01*
X260187Y28840D01*
X256173Y27177D01*
X251827Y27177D01*
G37*
%LPD*%
%LPC*%
G36*
X138352Y183725D02*
X138352Y183725D01*
X135862Y184757D01*
X133957Y186662D01*
X132925Y189152D01*
X132925Y191848D01*
X133957Y194338D01*
X135862Y196243D01*
X136435Y196481D01*
X136535Y196543D01*
X136635Y196602D01*
X136639Y196607D01*
X136644Y196610D01*
X136719Y196701D01*
X136795Y196789D01*
X136797Y196795D01*
X136801Y196800D01*
X136843Y196908D01*
X136887Y197017D01*
X136888Y197025D01*
X136889Y197029D01*
X136890Y197048D01*
X136905Y197184D01*
X136905Y217426D01*
X136886Y217541D01*
X136869Y217657D01*
X136867Y217663D01*
X136866Y217669D01*
X136811Y217772D01*
X136758Y217876D01*
X136753Y217881D01*
X136750Y217886D01*
X136666Y217966D01*
X136582Y218049D01*
X136576Y218052D01*
X136572Y218056D01*
X136555Y218064D01*
X136435Y218130D01*
X133513Y219340D01*
X130440Y222413D01*
X128777Y226427D01*
X128777Y230773D01*
X130440Y234787D01*
X133513Y237860D01*
X137527Y239523D01*
X141873Y239523D01*
X145887Y237860D01*
X148960Y234787D01*
X150623Y230773D01*
X150623Y226427D01*
X148960Y222413D01*
X145887Y219340D01*
X142965Y218130D01*
X142865Y218068D01*
X142765Y218008D01*
X142761Y218003D01*
X142756Y218000D01*
X142681Y217910D01*
X142605Y217821D01*
X142603Y217815D01*
X142599Y217811D01*
X142557Y217702D01*
X142513Y217593D01*
X142512Y217585D01*
X142511Y217581D01*
X142510Y217563D01*
X142495Y217426D01*
X142495Y197184D01*
X142514Y197069D01*
X142531Y196953D01*
X142533Y196947D01*
X142534Y196941D01*
X142589Y196839D01*
X142642Y196734D01*
X142647Y196729D01*
X142650Y196724D01*
X142734Y196644D01*
X142818Y196562D01*
X142824Y196558D01*
X142828Y196554D01*
X142845Y196547D01*
X142965Y196481D01*
X143538Y196243D01*
X145443Y194338D01*
X146475Y191848D01*
X146475Y189152D01*
X145443Y186662D01*
X143538Y184757D01*
X141048Y183725D01*
X138352Y183725D01*
G37*
%LPD*%
%LPC*%
G36*
X112127Y217677D02*
X112127Y217677D01*
X108113Y219340D01*
X105040Y222413D01*
X103377Y226427D01*
X103377Y230773D01*
X105040Y234787D01*
X108113Y237860D01*
X112127Y239523D01*
X116473Y239523D01*
X120487Y237860D01*
X123560Y234787D01*
X125223Y230773D01*
X125223Y226427D01*
X123560Y222413D01*
X120487Y219340D01*
X116473Y217677D01*
X112127Y217677D01*
G37*
%LPD*%
%LPC*%
G36*
X251827Y77977D02*
X251827Y77977D01*
X247813Y79640D01*
X244740Y82713D01*
X243077Y86727D01*
X243077Y91073D01*
X244740Y95087D01*
X247813Y98160D01*
X251827Y99823D01*
X256173Y99823D01*
X260187Y98160D01*
X263260Y95087D01*
X264923Y91073D01*
X264923Y86727D01*
X263260Y82713D01*
X260187Y79640D01*
X256173Y77977D01*
X251827Y77977D01*
G37*
%LPD*%
%LPC*%
G36*
X251827Y204977D02*
X251827Y204977D01*
X247813Y206640D01*
X244740Y209713D01*
X243077Y213727D01*
X243077Y218073D01*
X244740Y222087D01*
X247813Y225160D01*
X251827Y226823D01*
X256173Y226823D01*
X260187Y225160D01*
X263260Y222087D01*
X264923Y218073D01*
X264923Y213727D01*
X263260Y209713D01*
X260187Y206640D01*
X256173Y204977D01*
X251827Y204977D01*
G37*
%LPD*%
%LPC*%
G36*
X23227Y204977D02*
X23227Y204977D01*
X19213Y206640D01*
X16140Y209713D01*
X14477Y213727D01*
X14477Y218073D01*
X16140Y222087D01*
X19213Y225160D01*
X23227Y226823D01*
X27573Y226823D01*
X31587Y225160D01*
X34660Y222087D01*
X36323Y218073D01*
X36323Y213727D01*
X34660Y209713D01*
X31587Y206640D01*
X27573Y204977D01*
X23227Y204977D01*
G37*
%LPD*%
%LPC*%
G36*
X251827Y179577D02*
X251827Y179577D01*
X247813Y181240D01*
X244740Y184313D01*
X243077Y188327D01*
X243077Y192673D01*
X244740Y196687D01*
X247813Y199760D01*
X251827Y201423D01*
X256173Y201423D01*
X260187Y199760D01*
X263260Y196687D01*
X264923Y192673D01*
X264923Y188327D01*
X263260Y184313D01*
X260187Y181240D01*
X256173Y179577D01*
X251827Y179577D01*
G37*
%LPD*%
%LPC*%
G36*
X23227Y154177D02*
X23227Y154177D01*
X19213Y155840D01*
X16140Y158913D01*
X14477Y162927D01*
X14477Y167273D01*
X16140Y171287D01*
X19213Y174360D01*
X23227Y176023D01*
X27573Y176023D01*
X31587Y174360D01*
X34660Y171287D01*
X36323Y167273D01*
X36323Y162927D01*
X34660Y158913D01*
X31587Y155840D01*
X27573Y154177D01*
X23227Y154177D01*
G37*
%LPD*%
%LPC*%
G36*
X23227Y128777D02*
X23227Y128777D01*
X19213Y130440D01*
X16140Y133513D01*
X14477Y137527D01*
X14477Y141873D01*
X16140Y145887D01*
X19213Y148960D01*
X23227Y150623D01*
X27573Y150623D01*
X31587Y148960D01*
X34660Y145887D01*
X36323Y141873D01*
X36323Y137527D01*
X34660Y133513D01*
X31587Y130440D01*
X27573Y128777D01*
X23227Y128777D01*
G37*
%LPD*%
%LPC*%
G36*
X251827Y103377D02*
X251827Y103377D01*
X247813Y105040D01*
X244740Y108113D01*
X243077Y112127D01*
X243077Y116473D01*
X244740Y120487D01*
X247813Y123560D01*
X251827Y125223D01*
X256173Y125223D01*
X260187Y123560D01*
X263260Y120487D01*
X264923Y116473D01*
X264923Y112127D01*
X263260Y108113D01*
X260187Y105040D01*
X256173Y103377D01*
X251827Y103377D01*
G37*
%LPD*%
%LPC*%
G36*
X166623Y230123D02*
X166623Y230123D01*
X166623Y240446D01*
X167896Y240245D01*
X169683Y239664D01*
X171357Y238811D01*
X172878Y237706D01*
X174206Y236378D01*
X175311Y234857D01*
X176164Y233183D01*
X176745Y231396D01*
X176946Y230123D01*
X166623Y230123D01*
G37*
%LPD*%
%LPC*%
G36*
X204723Y90423D02*
X204723Y90423D01*
X204723Y100746D01*
X205996Y100545D01*
X207783Y99964D01*
X209457Y99111D01*
X210978Y98006D01*
X212306Y96678D01*
X213411Y95157D01*
X214264Y93483D01*
X214845Y91696D01*
X215046Y90423D01*
X204723Y90423D01*
G37*
%LPD*%
%LPC*%
G36*
X153923Y90423D02*
X153923Y90423D01*
X153923Y100746D01*
X155196Y100545D01*
X156983Y99964D01*
X158657Y99111D01*
X160178Y98006D01*
X161506Y96678D01*
X162611Y95157D01*
X163464Y93483D01*
X164045Y91696D01*
X164246Y90423D01*
X153923Y90423D01*
G37*
%LPD*%
%LPC*%
G36*
X255523Y65023D02*
X255523Y65023D01*
X255523Y75346D01*
X256796Y75145D01*
X258583Y74564D01*
X260257Y73711D01*
X261778Y72606D01*
X263106Y71278D01*
X264211Y69757D01*
X265064Y68083D01*
X265645Y66296D01*
X265846Y65023D01*
X255523Y65023D01*
G37*
%LPD*%
%LPC*%
G36*
X77723Y39623D02*
X77723Y39623D01*
X77723Y49946D01*
X78996Y49745D01*
X80783Y49164D01*
X82457Y48311D01*
X83978Y47206D01*
X85306Y45878D01*
X86411Y44357D01*
X87264Y42683D01*
X87845Y40896D01*
X88046Y39623D01*
X77723Y39623D01*
G37*
%LPD*%
%LPC*%
G36*
X166623Y227077D02*
X166623Y227077D01*
X176946Y227077D01*
X176745Y225804D01*
X176164Y224017D01*
X175311Y222343D01*
X174206Y220822D01*
X172878Y219494D01*
X171357Y218389D01*
X169683Y217536D01*
X167896Y216955D01*
X166623Y216754D01*
X166623Y227077D01*
G37*
%LPD*%
%LPC*%
G36*
X204723Y87377D02*
X204723Y87377D01*
X215046Y87377D01*
X214845Y86104D01*
X214264Y84317D01*
X213411Y82643D01*
X212306Y81122D01*
X210978Y79794D01*
X209457Y78689D01*
X207783Y77836D01*
X205996Y77255D01*
X204723Y77054D01*
X204723Y87377D01*
G37*
%LPD*%
%LPC*%
G36*
X153254Y230123D02*
X153254Y230123D01*
X153455Y231396D01*
X154036Y233183D01*
X154889Y234857D01*
X155994Y236378D01*
X157322Y237706D01*
X158843Y238811D01*
X160517Y239664D01*
X162304Y240245D01*
X163577Y240446D01*
X163577Y230123D01*
X153254Y230123D01*
G37*
%LPD*%
%LPC*%
G36*
X140554Y90423D02*
X140554Y90423D01*
X140755Y91696D01*
X141336Y93483D01*
X142189Y95157D01*
X143294Y96678D01*
X144622Y98006D01*
X146143Y99111D01*
X147817Y99964D01*
X149604Y100545D01*
X150877Y100746D01*
X150877Y90423D01*
X140554Y90423D01*
G37*
%LPD*%
%LPC*%
G36*
X191354Y90423D02*
X191354Y90423D01*
X191555Y91696D01*
X192136Y93483D01*
X192989Y95157D01*
X194094Y96678D01*
X195422Y98006D01*
X196943Y99111D01*
X198617Y99964D01*
X200404Y100545D01*
X201677Y100746D01*
X201677Y90423D01*
X191354Y90423D01*
G37*
%LPD*%
%LPC*%
G36*
X255523Y61977D02*
X255523Y61977D01*
X265846Y61977D01*
X265645Y60704D01*
X265064Y58917D01*
X264211Y57243D01*
X263106Y55722D01*
X261778Y54394D01*
X260257Y53289D01*
X258583Y52436D01*
X256796Y51855D01*
X255523Y51654D01*
X255523Y61977D01*
G37*
%LPD*%
%LPC*%
G36*
X242154Y65023D02*
X242154Y65023D01*
X242355Y66296D01*
X242936Y68083D01*
X243789Y69757D01*
X244894Y71278D01*
X246222Y72606D01*
X247743Y73711D01*
X249417Y74564D01*
X251204Y75145D01*
X252477Y75346D01*
X252477Y65023D01*
X242154Y65023D01*
G37*
%LPD*%
%LPC*%
G36*
X64354Y39623D02*
X64354Y39623D01*
X64555Y40896D01*
X65136Y42683D01*
X65989Y44357D01*
X67094Y45878D01*
X68422Y47206D01*
X69943Y48311D01*
X71617Y49164D01*
X73404Y49745D01*
X74677Y49946D01*
X74677Y39623D01*
X64354Y39623D01*
G37*
%LPD*%
%LPC*%
G36*
X153923Y87377D02*
X153923Y87377D01*
X164246Y87377D01*
X164045Y86104D01*
X163464Y84317D01*
X162611Y82643D01*
X161506Y81122D01*
X160178Y79794D01*
X158657Y78689D01*
X156983Y77836D01*
X155196Y77255D01*
X153923Y77054D01*
X153923Y87377D01*
G37*
%LPD*%
%LPC*%
G36*
X77723Y36577D02*
X77723Y36577D01*
X88046Y36577D01*
X87845Y35304D01*
X87264Y33517D01*
X86411Y31843D01*
X85306Y30322D01*
X83978Y28994D01*
X82457Y27889D01*
X80783Y27036D01*
X78996Y26455D01*
X77723Y26254D01*
X77723Y36577D01*
G37*
%LPD*%
%LPC*%
G36*
X162304Y216955D02*
X162304Y216955D01*
X160517Y217536D01*
X158843Y218389D01*
X157322Y219494D01*
X155994Y220822D01*
X154889Y222343D01*
X154036Y224017D01*
X153455Y225804D01*
X153254Y227077D01*
X163577Y227077D01*
X163577Y216754D01*
X162304Y216955D01*
G37*
%LPD*%
%LPC*%
G36*
X149604Y77255D02*
X149604Y77255D01*
X147817Y77836D01*
X146143Y78689D01*
X144622Y79794D01*
X143294Y81122D01*
X142189Y82643D01*
X141336Y84317D01*
X140755Y86104D01*
X140554Y87377D01*
X150877Y87377D01*
X150877Y77054D01*
X149604Y77255D01*
G37*
%LPD*%
%LPC*%
G36*
X251204Y51855D02*
X251204Y51855D01*
X249417Y52436D01*
X247743Y53289D01*
X246222Y54394D01*
X244894Y55722D01*
X243789Y57243D01*
X242936Y58917D01*
X242355Y60704D01*
X242154Y61977D01*
X252477Y61977D01*
X252477Y51654D01*
X251204Y51855D01*
G37*
%LPD*%
%LPC*%
G36*
X200404Y77255D02*
X200404Y77255D01*
X198617Y77836D01*
X196943Y78689D01*
X195422Y79794D01*
X194094Y81122D01*
X192989Y82643D01*
X192136Y84317D01*
X191555Y86104D01*
X191354Y87377D01*
X201677Y87377D01*
X201677Y77054D01*
X200404Y77255D01*
G37*
%LPD*%
%LPC*%
G36*
X73404Y26455D02*
X73404Y26455D01*
X71617Y27036D01*
X69943Y27889D01*
X68422Y28994D01*
X67094Y30322D01*
X65989Y31843D01*
X65136Y33517D01*
X64555Y35304D01*
X64354Y36577D01*
X74677Y36577D01*
X74677Y26254D01*
X73404Y26455D01*
G37*
%LPD*%
%LPC*%
G36*
X253999Y63499D02*
X253999Y63499D01*
X253999Y63501D01*
X254001Y63501D01*
X254001Y63499D01*
X253999Y63499D01*
G37*
%LPD*%
%LPC*%
G36*
X165099Y228599D02*
X165099Y228599D01*
X165099Y228601D01*
X165101Y228601D01*
X165101Y228599D01*
X165099Y228599D01*
G37*
%LPD*%
%LPC*%
G36*
X203199Y88899D02*
X203199Y88899D01*
X203199Y88901D01*
X203201Y88901D01*
X203201Y88899D01*
X203199Y88899D01*
G37*
%LPD*%
%LPC*%
G36*
X76199Y38099D02*
X76199Y38099D01*
X76199Y38101D01*
X76201Y38101D01*
X76201Y38099D01*
X76199Y38099D01*
G37*
%LPD*%
%LPC*%
G36*
X152399Y88899D02*
X152399Y88899D01*
X152399Y88901D01*
X152401Y88901D01*
X152401Y88899D01*
X152399Y88899D01*
G37*
%LPD*%
D10*
X203200Y165100D03*
X203200Y139700D03*
X203200Y114300D03*
X203200Y88900D03*
X165100Y228600D03*
X139700Y228600D03*
X114300Y228600D03*
X88900Y228600D03*
X152400Y165100D03*
X152400Y139700D03*
X152400Y114300D03*
X152400Y88900D03*
D11*
X85700Y190500D03*
X66700Y190500D03*
D10*
X76200Y38100D03*
X76200Y63500D03*
X76200Y88900D03*
X76200Y114300D03*
X254000Y38100D03*
X254000Y63500D03*
X254000Y88900D03*
X254000Y114300D03*
X254000Y139700D03*
X254000Y165100D03*
X254000Y190500D03*
X254000Y215900D03*
X25400Y215900D03*
X25400Y190500D03*
X25400Y165100D03*
X25400Y139700D03*
X25400Y114300D03*
X25400Y88900D03*
X25400Y63500D03*
X25400Y38100D03*
D12*
X203200Y165100D02*
X254000Y165100D01*
X203200Y165100D02*
X152400Y165100D01*
X203200Y139700D02*
X254000Y139700D01*
X203200Y139700D02*
X152400Y139700D01*
X66700Y190500D02*
X25400Y190500D01*
X85700Y190500D02*
X85812Y190502D01*
X85923Y190508D01*
X86034Y190518D01*
X86145Y190531D01*
X86256Y190549D01*
X86365Y190570D01*
X86474Y190595D01*
X86582Y190624D01*
X86689Y190657D01*
X86794Y190693D01*
X86899Y190733D01*
X87002Y190777D01*
X87103Y190824D01*
X87202Y190875D01*
X87300Y190929D01*
X87396Y190986D01*
X87489Y191047D01*
X87581Y191111D01*
X87670Y191178D01*
X87757Y191249D01*
X87841Y191322D01*
X87923Y191398D01*
X88002Y191477D01*
X88078Y191559D01*
X88151Y191643D01*
X88222Y191730D01*
X88289Y191819D01*
X88353Y191911D01*
X88414Y192004D01*
X88471Y192100D01*
X88525Y192198D01*
X88576Y192297D01*
X88623Y192398D01*
X88667Y192501D01*
X88707Y192606D01*
X88743Y192711D01*
X88776Y192818D01*
X88805Y192926D01*
X88830Y193035D01*
X88851Y193144D01*
X88869Y193255D01*
X88882Y193366D01*
X88892Y193477D01*
X88898Y193588D01*
X88900Y193700D01*
X88900Y228600D01*
X203200Y38100D02*
X254000Y38100D01*
D13*
X203200Y38100D03*
X139700Y190500D03*
D12*
X139700Y228600D01*
X152400Y114300D02*
X203200Y114300D01*
X25400Y38100D02*
X25400Y12700D01*
X127000Y12700D01*
X127000Y114300D01*
X152400Y114300D01*
X76200Y63500D02*
X25400Y63500D01*
X25400Y88900D02*
X76200Y88900D01*
X76200Y114300D02*
X25400Y114300D01*
M02*
