M48
;GenerationSoftware,Autodesk,EAGLE,9.1.1*%
;CreationDate,2018-08-03T17:53:41Z*%
FMAT,2
ICI,OFF
METRIC,TZ,000.000
T2C0.700
T1C1.016
%
G90
M71
T1
X7620Y11430
X2540Y6350
X20320Y16510
X20320Y13970
X20320Y11430
X20320Y8890
X16510Y22860
X13970Y22860
X11430Y22860
X8890Y22860
X15240Y16510
X15240Y13970
X15240Y11430
X15240Y8890
X7620Y3810
X7620Y6350
X7620Y8890
X2540Y3810
X25400Y3810
X25400Y6350
X25400Y8890
X25400Y11430
X25400Y13970
X25400Y16510
X25400Y19050
X25400Y21590
X2540Y21590
X2540Y19050
X2540Y16510
X2540Y13970
X2540Y11430
X2540Y8890
T2
X13970Y19050
X20320Y3810
M30