G04 EAGLE Gerber X2 export*
%TF.Part,Single*%
%TF.FileFunction,Legend,Top,1*%
%TF.FilePolarity,Positive*%
%TF.GenerationSoftware,Autodesk,EAGLE,9.1.1*%
%TF.CreationDate,2018-08-03T17:53:41Z*%
G75*
%MOMM*%
%FSLAX34Y34*%
%LPD*%
%AMOC8*
5,1,8,0,0,1.08239X$1,22.5*%
G01*
%ADD10C,0.203200*%
%ADD11C,0.127000*%
%ADD12C,0.101600*%


D10*
X215900Y95250D02*
X215900Y82550D01*
X209550Y76200D01*
X196850Y76200D02*
X190500Y82550D01*
X215900Y120650D02*
X209550Y127000D01*
X215900Y120650D02*
X215900Y107950D01*
X209550Y101600D01*
X196850Y101600D02*
X190500Y107950D01*
X190500Y120650D01*
X196850Y127000D01*
X209550Y101600D02*
X215900Y95250D01*
X196850Y101600D02*
X190500Y95250D01*
X190500Y82550D01*
X215900Y158750D02*
X215900Y171450D01*
X215900Y158750D02*
X209550Y152400D01*
X196850Y152400D02*
X190500Y158750D01*
X209550Y152400D02*
X215900Y146050D01*
X215900Y133350D01*
X209550Y127000D01*
X196850Y127000D02*
X190500Y133350D01*
X190500Y146050D01*
X196850Y152400D01*
X196850Y177800D02*
X209550Y177800D01*
X215900Y171450D01*
X196850Y177800D02*
X190500Y171450D01*
X190500Y158750D01*
X196850Y76200D02*
X209550Y76200D01*
D11*
X217805Y163877D02*
X222631Y163877D01*
X219950Y163877D02*
X219950Y166558D01*
X217805Y166558D02*
X222631Y166558D01*
X222631Y170521D02*
X217805Y170521D01*
X217805Y169180D02*
X217805Y171862D01*
X217805Y174484D02*
X221290Y174484D01*
X221290Y174483D02*
X221361Y174485D01*
X221433Y174491D01*
X221503Y174500D01*
X221573Y174513D01*
X221643Y174530D01*
X221711Y174551D01*
X221778Y174575D01*
X221844Y174603D01*
X221908Y174634D01*
X221971Y174669D01*
X222031Y174707D01*
X222090Y174748D01*
X222146Y174792D01*
X222200Y174839D01*
X222251Y174888D01*
X222299Y174941D01*
X222345Y174996D01*
X222387Y175053D01*
X222427Y175113D01*
X222463Y175174D01*
X222496Y175238D01*
X222525Y175303D01*
X222551Y175369D01*
X222574Y175437D01*
X222593Y175506D01*
X222608Y175576D01*
X222619Y175646D01*
X222627Y175717D01*
X222631Y175788D01*
X222631Y175860D01*
X222627Y175931D01*
X222619Y176002D01*
X222608Y176072D01*
X222593Y176142D01*
X222574Y176211D01*
X222551Y176279D01*
X222525Y176345D01*
X222496Y176410D01*
X222463Y176474D01*
X222427Y176535D01*
X222387Y176595D01*
X222345Y176652D01*
X222299Y176707D01*
X222251Y176760D01*
X222200Y176809D01*
X222146Y176856D01*
X222090Y176900D01*
X222031Y176941D01*
X221971Y176979D01*
X221908Y177014D01*
X221844Y177045D01*
X221778Y177073D01*
X221711Y177097D01*
X221643Y177118D01*
X221573Y177135D01*
X221503Y177148D01*
X221433Y177157D01*
X221361Y177163D01*
X221290Y177165D01*
X217805Y177165D01*
D10*
X95250Y215900D02*
X82550Y215900D01*
X76200Y222250D01*
X76200Y234950D02*
X82550Y241300D01*
X120650Y215900D02*
X127000Y222250D01*
X120650Y215900D02*
X107950Y215900D01*
X101600Y222250D01*
X101600Y234950D02*
X107950Y241300D01*
X120650Y241300D01*
X127000Y234950D01*
X101600Y222250D02*
X95250Y215900D01*
X101600Y234950D02*
X95250Y241300D01*
X82550Y241300D01*
X158750Y215900D02*
X171450Y215900D01*
X158750Y215900D02*
X152400Y222250D01*
X152400Y234950D02*
X158750Y241300D01*
X152400Y222250D02*
X146050Y215900D01*
X133350Y215900D01*
X127000Y222250D01*
X127000Y234950D02*
X133350Y241300D01*
X146050Y241300D01*
X152400Y234950D01*
X177800Y234950D02*
X177800Y222250D01*
X171450Y215900D01*
X177800Y234950D02*
X171450Y241300D01*
X158750Y241300D01*
X76200Y234950D02*
X76200Y222250D01*
D11*
X162512Y213995D02*
X162512Y209169D01*
X164120Y211314D02*
X162512Y213995D01*
X164120Y211314D02*
X165729Y213995D01*
X165729Y209169D01*
X169392Y210510D02*
X169392Y212654D01*
X169391Y212654D02*
X169393Y212725D01*
X169399Y212797D01*
X169408Y212867D01*
X169421Y212937D01*
X169438Y213007D01*
X169459Y213075D01*
X169483Y213142D01*
X169511Y213208D01*
X169542Y213272D01*
X169577Y213335D01*
X169615Y213395D01*
X169656Y213454D01*
X169700Y213510D01*
X169747Y213564D01*
X169796Y213615D01*
X169849Y213663D01*
X169904Y213709D01*
X169961Y213751D01*
X170021Y213791D01*
X170082Y213827D01*
X170146Y213860D01*
X170211Y213889D01*
X170277Y213915D01*
X170345Y213938D01*
X170414Y213957D01*
X170484Y213972D01*
X170554Y213983D01*
X170625Y213991D01*
X170696Y213995D01*
X170768Y213995D01*
X170839Y213991D01*
X170910Y213983D01*
X170980Y213972D01*
X171050Y213957D01*
X171119Y213938D01*
X171187Y213915D01*
X171253Y213889D01*
X171318Y213860D01*
X171382Y213827D01*
X171443Y213791D01*
X171503Y213751D01*
X171560Y213709D01*
X171615Y213663D01*
X171668Y213615D01*
X171717Y213564D01*
X171764Y213510D01*
X171808Y213454D01*
X171849Y213395D01*
X171887Y213335D01*
X171922Y213272D01*
X171953Y213208D01*
X171981Y213142D01*
X172005Y213075D01*
X172026Y213007D01*
X172043Y212937D01*
X172056Y212867D01*
X172065Y212797D01*
X172071Y212725D01*
X172073Y212654D01*
X172073Y210510D01*
X172071Y210439D01*
X172065Y210367D01*
X172056Y210297D01*
X172043Y210227D01*
X172026Y210157D01*
X172005Y210089D01*
X171981Y210022D01*
X171953Y209956D01*
X171922Y209892D01*
X171887Y209829D01*
X171849Y209769D01*
X171808Y209710D01*
X171764Y209654D01*
X171717Y209600D01*
X171668Y209549D01*
X171615Y209501D01*
X171560Y209455D01*
X171503Y209413D01*
X171443Y209373D01*
X171382Y209337D01*
X171318Y209304D01*
X171253Y209275D01*
X171187Y209249D01*
X171119Y209226D01*
X171050Y209207D01*
X170980Y209192D01*
X170910Y209181D01*
X170839Y209173D01*
X170768Y209169D01*
X170696Y209169D01*
X170625Y209173D01*
X170554Y209181D01*
X170484Y209192D01*
X170414Y209207D01*
X170345Y209226D01*
X170277Y209249D01*
X170211Y209275D01*
X170146Y209304D01*
X170082Y209337D01*
X170021Y209373D01*
X169961Y209413D01*
X169904Y209455D01*
X169849Y209501D01*
X169796Y209549D01*
X169747Y209600D01*
X169700Y209654D01*
X169656Y209710D01*
X169615Y209769D01*
X169577Y209829D01*
X169542Y209892D01*
X169511Y209956D01*
X169483Y210022D01*
X169459Y210089D01*
X169438Y210157D01*
X169421Y210227D01*
X169408Y210297D01*
X169399Y210367D01*
X169393Y210439D01*
X169391Y210510D01*
X171537Y210241D02*
X172609Y209169D01*
X177166Y212788D02*
X177164Y212856D01*
X177158Y212923D01*
X177149Y212990D01*
X177136Y213057D01*
X177119Y213122D01*
X177098Y213187D01*
X177074Y213250D01*
X177046Y213312D01*
X177015Y213372D01*
X176981Y213430D01*
X176943Y213486D01*
X176903Y213541D01*
X176859Y213592D01*
X176812Y213641D01*
X176763Y213688D01*
X176712Y213732D01*
X176657Y213772D01*
X176601Y213810D01*
X176543Y213844D01*
X176483Y213875D01*
X176421Y213903D01*
X176358Y213927D01*
X176293Y213948D01*
X176228Y213965D01*
X176161Y213978D01*
X176094Y213987D01*
X176027Y213993D01*
X175959Y213995D01*
X175881Y213993D01*
X175803Y213987D01*
X175726Y213977D01*
X175649Y213964D01*
X175573Y213946D01*
X175498Y213925D01*
X175424Y213900D01*
X175352Y213871D01*
X175281Y213839D01*
X175212Y213803D01*
X175144Y213764D01*
X175079Y213721D01*
X175016Y213675D01*
X174955Y213626D01*
X174897Y213574D01*
X174842Y213519D01*
X174789Y213462D01*
X174740Y213402D01*
X174693Y213339D01*
X174650Y213275D01*
X174610Y213208D01*
X174573Y213139D01*
X174540Y213068D01*
X174510Y212996D01*
X174484Y212923D01*
X176763Y211850D02*
X176812Y211899D01*
X176859Y211951D01*
X176902Y212006D01*
X176943Y212063D01*
X176981Y212122D01*
X177015Y212183D01*
X177046Y212246D01*
X177074Y212310D01*
X177098Y212376D01*
X177118Y212442D01*
X177135Y212510D01*
X177148Y212579D01*
X177157Y212648D01*
X177163Y212718D01*
X177165Y212788D01*
X176763Y211850D02*
X174484Y209169D01*
X177165Y209169D01*
D10*
X165100Y95250D02*
X165100Y82550D01*
X158750Y76200D01*
X146050Y76200D02*
X139700Y82550D01*
X165100Y120650D02*
X158750Y127000D01*
X165100Y120650D02*
X165100Y107950D01*
X158750Y101600D01*
X146050Y101600D02*
X139700Y107950D01*
X139700Y120650D01*
X146050Y127000D01*
X158750Y101600D02*
X165100Y95250D01*
X146050Y101600D02*
X139700Y95250D01*
X139700Y82550D01*
X165100Y158750D02*
X165100Y171450D01*
X165100Y158750D02*
X158750Y152400D01*
X146050Y152400D02*
X139700Y158750D01*
X158750Y152400D02*
X165100Y146050D01*
X165100Y133350D01*
X158750Y127000D01*
X146050Y127000D02*
X139700Y133350D01*
X139700Y146050D01*
X146050Y152400D01*
X146050Y177800D02*
X158750Y177800D01*
X165100Y171450D01*
X146050Y177800D02*
X139700Y171450D01*
X139700Y158750D01*
X146050Y76200D02*
X158750Y76200D01*
D11*
X168346Y159305D02*
X170490Y159305D01*
X168346Y159305D02*
X168275Y159307D01*
X168203Y159313D01*
X168133Y159322D01*
X168063Y159335D01*
X167993Y159352D01*
X167925Y159373D01*
X167858Y159397D01*
X167792Y159425D01*
X167728Y159456D01*
X167665Y159491D01*
X167605Y159529D01*
X167546Y159570D01*
X167490Y159614D01*
X167436Y159661D01*
X167385Y159710D01*
X167337Y159763D01*
X167291Y159818D01*
X167249Y159875D01*
X167209Y159935D01*
X167173Y159996D01*
X167140Y160060D01*
X167111Y160125D01*
X167085Y160191D01*
X167062Y160259D01*
X167043Y160328D01*
X167028Y160398D01*
X167017Y160468D01*
X167009Y160539D01*
X167005Y160610D01*
X167005Y160682D01*
X167009Y160753D01*
X167017Y160824D01*
X167028Y160894D01*
X167043Y160964D01*
X167062Y161033D01*
X167085Y161101D01*
X167111Y161167D01*
X167140Y161232D01*
X167173Y161296D01*
X167209Y161357D01*
X167249Y161417D01*
X167291Y161474D01*
X167337Y161529D01*
X167385Y161582D01*
X167436Y161631D01*
X167490Y161678D01*
X167546Y161722D01*
X167605Y161763D01*
X167665Y161801D01*
X167728Y161836D01*
X167792Y161867D01*
X167858Y161895D01*
X167925Y161919D01*
X167993Y161940D01*
X168063Y161957D01*
X168133Y161970D01*
X168203Y161979D01*
X168275Y161985D01*
X168346Y161987D01*
X168346Y161986D02*
X170490Y161986D01*
X170490Y161987D02*
X170561Y161985D01*
X170633Y161979D01*
X170703Y161970D01*
X170773Y161957D01*
X170843Y161940D01*
X170911Y161919D01*
X170978Y161895D01*
X171044Y161867D01*
X171108Y161836D01*
X171171Y161801D01*
X171231Y161763D01*
X171290Y161722D01*
X171346Y161678D01*
X171400Y161631D01*
X171451Y161582D01*
X171499Y161529D01*
X171545Y161474D01*
X171587Y161417D01*
X171627Y161357D01*
X171663Y161296D01*
X171696Y161232D01*
X171725Y161167D01*
X171751Y161101D01*
X171774Y161033D01*
X171793Y160964D01*
X171808Y160894D01*
X171819Y160824D01*
X171827Y160753D01*
X171831Y160682D01*
X171831Y160610D01*
X171827Y160539D01*
X171819Y160468D01*
X171808Y160398D01*
X171793Y160328D01*
X171774Y160259D01*
X171751Y160191D01*
X171725Y160125D01*
X171696Y160060D01*
X171663Y159996D01*
X171627Y159935D01*
X171587Y159875D01*
X171545Y159818D01*
X171499Y159763D01*
X171451Y159710D01*
X171400Y159661D01*
X171346Y159614D01*
X171290Y159570D01*
X171231Y159529D01*
X171171Y159491D01*
X171108Y159456D01*
X171044Y159425D01*
X170978Y159397D01*
X170911Y159373D01*
X170843Y159352D01*
X170773Y159335D01*
X170703Y159322D01*
X170633Y159313D01*
X170561Y159307D01*
X170490Y159305D01*
X171831Y164994D02*
X167005Y164994D01*
X171831Y164994D02*
X171831Y167139D01*
X171831Y169749D02*
X171831Y171893D01*
X171831Y169749D02*
X167005Y169749D01*
X167005Y171893D01*
X169150Y171357D02*
X169150Y169749D01*
X167005Y174484D02*
X171831Y174484D01*
X167005Y174484D02*
X167005Y175824D01*
X167007Y175894D01*
X167012Y175964D01*
X167022Y176034D01*
X167034Y176103D01*
X167051Y176171D01*
X167071Y176238D01*
X167094Y176305D01*
X167121Y176369D01*
X167151Y176433D01*
X167185Y176495D01*
X167221Y176554D01*
X167261Y176612D01*
X167304Y176668D01*
X167349Y176721D01*
X167398Y176772D01*
X167449Y176821D01*
X167502Y176866D01*
X167558Y176909D01*
X167616Y176949D01*
X167676Y176985D01*
X167737Y177019D01*
X167801Y177049D01*
X167865Y177076D01*
X167932Y177099D01*
X167999Y177119D01*
X168067Y177136D01*
X168136Y177148D01*
X168206Y177158D01*
X168276Y177163D01*
X168346Y177165D01*
X170490Y177165D01*
X170560Y177163D01*
X170630Y177158D01*
X170700Y177148D01*
X170769Y177136D01*
X170837Y177119D01*
X170904Y177099D01*
X170971Y177076D01*
X171035Y177049D01*
X171099Y177019D01*
X171161Y176985D01*
X171220Y176949D01*
X171278Y176909D01*
X171334Y176866D01*
X171387Y176821D01*
X171438Y176772D01*
X171487Y176721D01*
X171532Y176668D01*
X171575Y176612D01*
X171615Y176554D01*
X171651Y176494D01*
X171685Y176433D01*
X171715Y176369D01*
X171742Y176305D01*
X171765Y176238D01*
X171785Y176171D01*
X171802Y176103D01*
X171814Y176034D01*
X171824Y175964D01*
X171829Y175894D01*
X171831Y175824D01*
X171831Y174484D01*
D12*
X64195Y177292D02*
X64195Y165608D01*
X64195Y177292D02*
X67440Y177292D01*
X67553Y177290D01*
X67666Y177284D01*
X67779Y177274D01*
X67892Y177260D01*
X68004Y177243D01*
X68115Y177221D01*
X68225Y177196D01*
X68335Y177166D01*
X68443Y177133D01*
X68550Y177096D01*
X68656Y177056D01*
X68760Y177011D01*
X68863Y176963D01*
X68964Y176912D01*
X69063Y176857D01*
X69160Y176799D01*
X69255Y176737D01*
X69348Y176672D01*
X69438Y176604D01*
X69526Y176533D01*
X69612Y176458D01*
X69695Y176381D01*
X69775Y176301D01*
X69852Y176218D01*
X69927Y176132D01*
X69998Y176044D01*
X70066Y175954D01*
X70131Y175861D01*
X70193Y175766D01*
X70251Y175669D01*
X70306Y175570D01*
X70357Y175469D01*
X70405Y175366D01*
X70450Y175262D01*
X70490Y175156D01*
X70527Y175049D01*
X70560Y174941D01*
X70590Y174831D01*
X70615Y174721D01*
X70637Y174610D01*
X70654Y174498D01*
X70668Y174385D01*
X70678Y174272D01*
X70684Y174159D01*
X70686Y174046D01*
X70684Y173933D01*
X70678Y173820D01*
X70668Y173707D01*
X70654Y173594D01*
X70637Y173482D01*
X70615Y173371D01*
X70590Y173261D01*
X70560Y173151D01*
X70527Y173043D01*
X70490Y172936D01*
X70450Y172830D01*
X70405Y172726D01*
X70357Y172623D01*
X70306Y172522D01*
X70251Y172423D01*
X70193Y172326D01*
X70131Y172231D01*
X70066Y172138D01*
X69998Y172048D01*
X69927Y171960D01*
X69852Y171874D01*
X69775Y171791D01*
X69695Y171711D01*
X69612Y171634D01*
X69526Y171559D01*
X69438Y171488D01*
X69348Y171420D01*
X69255Y171355D01*
X69160Y171293D01*
X69063Y171235D01*
X68964Y171180D01*
X68863Y171129D01*
X68760Y171081D01*
X68656Y171036D01*
X68550Y170996D01*
X68443Y170959D01*
X68335Y170926D01*
X68225Y170896D01*
X68115Y170871D01*
X68004Y170849D01*
X67892Y170832D01*
X67779Y170818D01*
X67666Y170808D01*
X67553Y170802D01*
X67440Y170800D01*
X67440Y170801D02*
X64195Y170801D01*
X68089Y170801D02*
X70686Y165608D01*
X75551Y174696D02*
X78796Y177292D01*
X78796Y165608D01*
X75551Y165608D02*
X82042Y165608D01*
D10*
X63500Y120650D02*
X63500Y107950D01*
X63500Y120650D02*
X69850Y127000D01*
X82550Y127000D02*
X88900Y120650D01*
X63500Y82550D02*
X69850Y76200D01*
X63500Y82550D02*
X63500Y95250D01*
X69850Y101600D01*
X82550Y101600D02*
X88900Y95250D01*
X88900Y82550D01*
X82550Y76200D01*
X69850Y101600D02*
X63500Y107950D01*
X82550Y101600D02*
X88900Y107950D01*
X88900Y120650D01*
X63500Y44450D02*
X63500Y31750D01*
X63500Y44450D02*
X69850Y50800D01*
X82550Y50800D02*
X88900Y44450D01*
X69850Y50800D02*
X63500Y57150D01*
X63500Y69850D01*
X69850Y76200D01*
X82550Y76200D02*
X88900Y69850D01*
X88900Y57150D01*
X82550Y50800D01*
X82550Y25400D02*
X69850Y25400D01*
X63500Y31750D01*
X82550Y25400D02*
X88900Y31750D01*
X88900Y44450D01*
X82550Y127000D02*
X69850Y127000D01*
D11*
X61595Y26035D02*
X56769Y26035D01*
X56769Y27376D01*
X56771Y27447D01*
X56777Y27519D01*
X56786Y27589D01*
X56799Y27659D01*
X56816Y27729D01*
X56837Y27797D01*
X56861Y27864D01*
X56889Y27930D01*
X56920Y27994D01*
X56955Y28057D01*
X56993Y28117D01*
X57034Y28176D01*
X57078Y28232D01*
X57125Y28286D01*
X57174Y28337D01*
X57227Y28385D01*
X57282Y28431D01*
X57339Y28473D01*
X57399Y28513D01*
X57460Y28549D01*
X57524Y28582D01*
X57589Y28611D01*
X57655Y28637D01*
X57723Y28660D01*
X57792Y28679D01*
X57862Y28694D01*
X57932Y28705D01*
X58003Y28713D01*
X58074Y28717D01*
X58146Y28717D01*
X58217Y28713D01*
X58288Y28705D01*
X58358Y28694D01*
X58428Y28679D01*
X58497Y28660D01*
X58565Y28637D01*
X58631Y28611D01*
X58696Y28582D01*
X58760Y28549D01*
X58821Y28513D01*
X58881Y28473D01*
X58938Y28431D01*
X58993Y28385D01*
X59046Y28337D01*
X59095Y28286D01*
X59142Y28232D01*
X59186Y28176D01*
X59227Y28117D01*
X59265Y28057D01*
X59300Y27994D01*
X59331Y27930D01*
X59359Y27864D01*
X59383Y27797D01*
X59404Y27729D01*
X59421Y27659D01*
X59434Y27589D01*
X59443Y27519D01*
X59449Y27447D01*
X59451Y27376D01*
X59450Y27376D02*
X59450Y26035D01*
X59450Y27644D02*
X61595Y28716D01*
X58914Y33517D02*
X58914Y34322D01*
X61595Y34322D01*
X61595Y32713D01*
X61593Y32648D01*
X61587Y32584D01*
X61577Y32520D01*
X61564Y32456D01*
X61546Y32394D01*
X61525Y32333D01*
X61501Y32273D01*
X61472Y32215D01*
X61440Y32158D01*
X61405Y32104D01*
X61367Y32052D01*
X61325Y32002D01*
X61281Y31955D01*
X61234Y31911D01*
X61184Y31869D01*
X61132Y31831D01*
X61078Y31796D01*
X61021Y31764D01*
X60963Y31735D01*
X60903Y31711D01*
X60842Y31690D01*
X60780Y31672D01*
X60716Y31659D01*
X60652Y31649D01*
X60588Y31643D01*
X60523Y31641D01*
X57841Y31641D01*
X57841Y31640D02*
X57776Y31642D01*
X57712Y31648D01*
X57648Y31658D01*
X57584Y31671D01*
X57522Y31689D01*
X57461Y31710D01*
X57401Y31735D01*
X57342Y31763D01*
X57286Y31795D01*
X57231Y31830D01*
X57179Y31868D01*
X57129Y31910D01*
X57082Y31954D01*
X57038Y32001D01*
X56996Y32051D01*
X56958Y32103D01*
X56923Y32158D01*
X56891Y32214D01*
X56863Y32273D01*
X56838Y32332D01*
X56817Y32394D01*
X56799Y32456D01*
X56786Y32520D01*
X56776Y32584D01*
X56770Y32648D01*
X56768Y32713D01*
X56769Y32713D02*
X56769Y34322D01*
X58914Y37639D02*
X58914Y38980D01*
X58913Y38980D02*
X58915Y39051D01*
X58921Y39123D01*
X58930Y39193D01*
X58943Y39263D01*
X58960Y39333D01*
X58981Y39401D01*
X59005Y39468D01*
X59033Y39534D01*
X59064Y39598D01*
X59099Y39661D01*
X59137Y39721D01*
X59178Y39780D01*
X59222Y39836D01*
X59269Y39890D01*
X59318Y39941D01*
X59371Y39989D01*
X59426Y40035D01*
X59483Y40077D01*
X59543Y40117D01*
X59604Y40153D01*
X59668Y40186D01*
X59733Y40215D01*
X59799Y40241D01*
X59867Y40264D01*
X59936Y40283D01*
X60006Y40298D01*
X60076Y40309D01*
X60147Y40317D01*
X60218Y40321D01*
X60290Y40321D01*
X60361Y40317D01*
X60432Y40309D01*
X60502Y40298D01*
X60572Y40283D01*
X60641Y40264D01*
X60709Y40241D01*
X60775Y40215D01*
X60840Y40186D01*
X60904Y40153D01*
X60965Y40117D01*
X61025Y40077D01*
X61082Y40035D01*
X61137Y39989D01*
X61190Y39941D01*
X61239Y39890D01*
X61286Y39836D01*
X61330Y39780D01*
X61371Y39721D01*
X61409Y39661D01*
X61444Y39598D01*
X61475Y39534D01*
X61503Y39468D01*
X61527Y39401D01*
X61548Y39333D01*
X61565Y39263D01*
X61578Y39193D01*
X61587Y39123D01*
X61593Y39051D01*
X61595Y38980D01*
X61595Y37639D01*
X56769Y37639D01*
X56769Y38980D01*
X56771Y39045D01*
X56777Y39109D01*
X56787Y39173D01*
X56800Y39237D01*
X56818Y39299D01*
X56839Y39360D01*
X56863Y39420D01*
X56892Y39478D01*
X56924Y39535D01*
X56959Y39589D01*
X56997Y39641D01*
X57039Y39691D01*
X57083Y39738D01*
X57130Y39782D01*
X57180Y39824D01*
X57232Y39862D01*
X57286Y39897D01*
X57343Y39929D01*
X57401Y39958D01*
X57461Y39982D01*
X57522Y40003D01*
X57584Y40021D01*
X57648Y40034D01*
X57712Y40044D01*
X57776Y40050D01*
X57841Y40052D01*
X57906Y40050D01*
X57970Y40044D01*
X58034Y40034D01*
X58098Y40021D01*
X58160Y40003D01*
X58221Y39982D01*
X58281Y39958D01*
X58339Y39929D01*
X58396Y39897D01*
X58450Y39862D01*
X58502Y39824D01*
X58552Y39782D01*
X58599Y39738D01*
X58643Y39691D01*
X58685Y39641D01*
X58723Y39589D01*
X58758Y39535D01*
X58790Y39478D01*
X58819Y39420D01*
X58843Y39360D01*
X58864Y39299D01*
X58882Y39237D01*
X58895Y39173D01*
X58905Y39109D01*
X58911Y39045D01*
X58913Y38980D01*
D10*
X241300Y184150D02*
X241300Y196850D01*
X247650Y203200D01*
X260350Y203200D02*
X266700Y196850D01*
X241300Y158750D02*
X247650Y152400D01*
X241300Y158750D02*
X241300Y171450D01*
X247650Y177800D01*
X260350Y177800D02*
X266700Y171450D01*
X266700Y158750D01*
X260350Y152400D01*
X247650Y177800D02*
X241300Y184150D01*
X260350Y177800D02*
X266700Y184150D01*
X266700Y196850D01*
X241300Y120650D02*
X241300Y107950D01*
X241300Y120650D02*
X247650Y127000D01*
X260350Y127000D02*
X266700Y120650D01*
X247650Y127000D02*
X241300Y133350D01*
X241300Y146050D01*
X247650Y152400D01*
X260350Y152400D02*
X266700Y146050D01*
X266700Y133350D01*
X260350Y127000D01*
X241300Y82550D02*
X247650Y76200D01*
X241300Y82550D02*
X241300Y95250D01*
X247650Y101600D01*
X260350Y101600D02*
X266700Y95250D01*
X266700Y82550D01*
X260350Y76200D01*
X247650Y101600D02*
X241300Y107950D01*
X260350Y101600D02*
X266700Y107950D01*
X266700Y120650D01*
X241300Y44450D02*
X241300Y31750D01*
X241300Y44450D02*
X247650Y50800D01*
X260350Y50800D02*
X266700Y44450D01*
X247650Y50800D02*
X241300Y57150D01*
X241300Y69850D01*
X247650Y76200D01*
X260350Y76200D02*
X266700Y69850D01*
X266700Y57150D01*
X260350Y50800D01*
X260350Y25400D02*
X247650Y25400D01*
X241300Y31750D01*
X260350Y25400D02*
X266700Y31750D01*
X266700Y44450D01*
X241300Y209550D02*
X241300Y222250D01*
X247650Y228600D01*
X260350Y228600D01*
X266700Y222250D01*
X247650Y203200D02*
X241300Y209550D01*
X260350Y203200D02*
X266700Y209550D01*
X266700Y222250D01*
D11*
X239395Y27107D02*
X234569Y26035D01*
X236178Y28180D02*
X239395Y27107D01*
X239395Y29252D02*
X236178Y28180D01*
X234569Y30325D02*
X239395Y29252D01*
X239395Y33260D02*
X239395Y35405D01*
X239395Y33260D02*
X234569Y33260D01*
X234569Y35405D01*
X236714Y34868D02*
X236714Y33260D01*
X234569Y38093D02*
X239395Y38093D01*
X237250Y39701D02*
X234569Y38093D01*
X237250Y39701D02*
X234569Y41310D01*
X239395Y41310D01*
X238054Y44396D02*
X235910Y44396D01*
X235910Y44395D02*
X235839Y44397D01*
X235767Y44403D01*
X235697Y44412D01*
X235627Y44425D01*
X235557Y44442D01*
X235489Y44463D01*
X235422Y44487D01*
X235356Y44515D01*
X235292Y44546D01*
X235229Y44581D01*
X235169Y44619D01*
X235110Y44660D01*
X235054Y44704D01*
X235000Y44751D01*
X234949Y44800D01*
X234901Y44853D01*
X234855Y44908D01*
X234813Y44965D01*
X234773Y45025D01*
X234737Y45086D01*
X234704Y45150D01*
X234675Y45215D01*
X234649Y45281D01*
X234626Y45349D01*
X234607Y45418D01*
X234592Y45488D01*
X234581Y45558D01*
X234573Y45629D01*
X234569Y45700D01*
X234569Y45772D01*
X234573Y45843D01*
X234581Y45914D01*
X234592Y45984D01*
X234607Y46054D01*
X234626Y46123D01*
X234649Y46191D01*
X234675Y46257D01*
X234704Y46322D01*
X234737Y46386D01*
X234773Y46447D01*
X234813Y46507D01*
X234855Y46564D01*
X234901Y46619D01*
X234949Y46672D01*
X235000Y46721D01*
X235054Y46768D01*
X235110Y46812D01*
X235169Y46853D01*
X235229Y46891D01*
X235292Y46926D01*
X235356Y46957D01*
X235422Y46985D01*
X235489Y47009D01*
X235557Y47030D01*
X235627Y47047D01*
X235697Y47060D01*
X235767Y47069D01*
X235839Y47075D01*
X235910Y47077D01*
X238054Y47077D01*
X238125Y47075D01*
X238197Y47069D01*
X238267Y47060D01*
X238337Y47047D01*
X238407Y47030D01*
X238475Y47009D01*
X238542Y46985D01*
X238608Y46957D01*
X238672Y46926D01*
X238735Y46891D01*
X238795Y46853D01*
X238854Y46812D01*
X238910Y46768D01*
X238964Y46721D01*
X239015Y46672D01*
X239063Y46619D01*
X239109Y46564D01*
X239151Y46507D01*
X239191Y46447D01*
X239227Y46386D01*
X239260Y46322D01*
X239289Y46257D01*
X239315Y46191D01*
X239338Y46123D01*
X239357Y46054D01*
X239372Y45984D01*
X239383Y45914D01*
X239391Y45843D01*
X239395Y45772D01*
X239395Y45700D01*
X239391Y45629D01*
X239383Y45558D01*
X239372Y45488D01*
X239357Y45418D01*
X239338Y45349D01*
X239315Y45281D01*
X239289Y45215D01*
X239260Y45150D01*
X239227Y45086D01*
X239191Y45025D01*
X239151Y44965D01*
X239109Y44908D01*
X239063Y44853D01*
X239015Y44800D01*
X238964Y44751D01*
X238910Y44704D01*
X238854Y44660D01*
X238795Y44619D01*
X238735Y44581D01*
X238672Y44546D01*
X238608Y44515D01*
X238542Y44487D01*
X238475Y44463D01*
X238407Y44442D01*
X238337Y44425D01*
X238267Y44412D01*
X238197Y44403D01*
X238125Y44397D01*
X238054Y44395D01*
X239395Y51308D02*
X239393Y51373D01*
X239387Y51437D01*
X239377Y51501D01*
X239364Y51565D01*
X239346Y51627D01*
X239325Y51688D01*
X239301Y51748D01*
X239272Y51806D01*
X239240Y51863D01*
X239205Y51917D01*
X239167Y51969D01*
X239125Y52019D01*
X239081Y52066D01*
X239034Y52110D01*
X238984Y52152D01*
X238932Y52190D01*
X238878Y52225D01*
X238821Y52257D01*
X238763Y52286D01*
X238703Y52310D01*
X238642Y52331D01*
X238580Y52349D01*
X238516Y52362D01*
X238452Y52372D01*
X238388Y52378D01*
X238323Y52380D01*
X239395Y51308D02*
X239393Y51214D01*
X239387Y51120D01*
X239377Y51026D01*
X239364Y50933D01*
X239346Y50841D01*
X239325Y50749D01*
X239300Y50658D01*
X239271Y50568D01*
X239238Y50480D01*
X239202Y50393D01*
X239162Y50308D01*
X239119Y50224D01*
X239072Y50143D01*
X239022Y50063D01*
X238969Y49985D01*
X238912Y49910D01*
X238853Y49837D01*
X238790Y49767D01*
X238725Y49699D01*
X235641Y49834D02*
X235576Y49836D01*
X235512Y49842D01*
X235448Y49852D01*
X235384Y49865D01*
X235322Y49883D01*
X235261Y49904D01*
X235201Y49928D01*
X235143Y49957D01*
X235086Y49989D01*
X235032Y50024D01*
X234980Y50062D01*
X234930Y50104D01*
X234883Y50148D01*
X234839Y50195D01*
X234797Y50245D01*
X234759Y50297D01*
X234724Y50351D01*
X234692Y50408D01*
X234663Y50466D01*
X234639Y50526D01*
X234618Y50587D01*
X234600Y50649D01*
X234587Y50713D01*
X234577Y50777D01*
X234571Y50841D01*
X234569Y50906D01*
X234571Y50992D01*
X234576Y51078D01*
X234586Y51164D01*
X234599Y51249D01*
X234615Y51334D01*
X234635Y51418D01*
X234659Y51501D01*
X234686Y51583D01*
X234717Y51663D01*
X234751Y51743D01*
X234789Y51820D01*
X234830Y51896D01*
X234874Y51970D01*
X234921Y52043D01*
X234971Y52113D01*
X236579Y50369D02*
X236546Y50316D01*
X236509Y50265D01*
X236470Y50216D01*
X236428Y50169D01*
X236383Y50125D01*
X236336Y50084D01*
X236287Y50045D01*
X236235Y50009D01*
X236181Y49976D01*
X236126Y49947D01*
X236069Y49921D01*
X236010Y49898D01*
X235951Y49878D01*
X235890Y49862D01*
X235829Y49849D01*
X235766Y49840D01*
X235704Y49835D01*
X235641Y49833D01*
X237385Y51844D02*
X237418Y51897D01*
X237455Y51948D01*
X237494Y51997D01*
X237536Y52044D01*
X237581Y52088D01*
X237628Y52129D01*
X237677Y52168D01*
X237729Y52204D01*
X237783Y52237D01*
X237838Y52266D01*
X237895Y52292D01*
X237954Y52315D01*
X238013Y52335D01*
X238074Y52351D01*
X238135Y52364D01*
X238198Y52373D01*
X238260Y52378D01*
X238323Y52380D01*
X237384Y51844D02*
X236580Y50369D01*
X234569Y55186D02*
X239395Y55186D01*
X234569Y55186D02*
X234569Y56526D01*
X234571Y56596D01*
X234576Y56666D01*
X234586Y56736D01*
X234598Y56805D01*
X234615Y56873D01*
X234635Y56940D01*
X234658Y57007D01*
X234685Y57071D01*
X234715Y57135D01*
X234749Y57197D01*
X234785Y57256D01*
X234825Y57314D01*
X234868Y57370D01*
X234913Y57423D01*
X234962Y57474D01*
X235013Y57523D01*
X235066Y57568D01*
X235122Y57611D01*
X235180Y57651D01*
X235240Y57687D01*
X235301Y57721D01*
X235365Y57751D01*
X235429Y57778D01*
X235496Y57801D01*
X235563Y57821D01*
X235631Y57838D01*
X235700Y57850D01*
X235770Y57860D01*
X235840Y57865D01*
X235910Y57867D01*
X238054Y57867D01*
X238124Y57865D01*
X238194Y57860D01*
X238264Y57850D01*
X238333Y57838D01*
X238401Y57821D01*
X238468Y57801D01*
X238535Y57778D01*
X238599Y57751D01*
X238663Y57721D01*
X238725Y57687D01*
X238784Y57651D01*
X238842Y57611D01*
X238898Y57568D01*
X238951Y57523D01*
X239002Y57474D01*
X239051Y57423D01*
X239096Y57370D01*
X239139Y57314D01*
X239179Y57256D01*
X239215Y57196D01*
X239249Y57135D01*
X239279Y57071D01*
X239306Y57007D01*
X239329Y56940D01*
X239349Y56873D01*
X239366Y56805D01*
X239378Y56736D01*
X239388Y56666D01*
X239393Y56596D01*
X239395Y56526D01*
X239395Y55186D01*
X235641Y60855D02*
X234569Y62195D01*
X239395Y62195D01*
X239395Y60855D02*
X239395Y63536D01*
X239395Y66588D02*
X234569Y66588D01*
X234569Y67928D01*
X234571Y67999D01*
X234577Y68071D01*
X234586Y68141D01*
X234599Y68211D01*
X234616Y68281D01*
X234637Y68349D01*
X234661Y68416D01*
X234689Y68482D01*
X234720Y68546D01*
X234755Y68609D01*
X234793Y68669D01*
X234834Y68728D01*
X234878Y68784D01*
X234925Y68838D01*
X234974Y68889D01*
X235027Y68937D01*
X235082Y68983D01*
X235139Y69025D01*
X235199Y69065D01*
X235260Y69101D01*
X235324Y69134D01*
X235389Y69163D01*
X235455Y69189D01*
X235523Y69212D01*
X235592Y69231D01*
X235662Y69246D01*
X235732Y69257D01*
X235803Y69265D01*
X235874Y69269D01*
X235946Y69269D01*
X236017Y69265D01*
X236088Y69257D01*
X236158Y69246D01*
X236228Y69231D01*
X236297Y69212D01*
X236365Y69189D01*
X236431Y69163D01*
X236496Y69134D01*
X236560Y69101D01*
X236621Y69065D01*
X236681Y69025D01*
X236738Y68983D01*
X236793Y68937D01*
X236846Y68889D01*
X236895Y68838D01*
X236942Y68784D01*
X236986Y68728D01*
X237027Y68669D01*
X237065Y68609D01*
X237100Y68546D01*
X237131Y68482D01*
X237159Y68416D01*
X237183Y68349D01*
X237204Y68281D01*
X237221Y68211D01*
X237234Y68141D01*
X237243Y68071D01*
X237249Y67999D01*
X237251Y67928D01*
X237250Y67928D02*
X237250Y66588D01*
X237250Y68196D02*
X239395Y69269D01*
D10*
X38100Y69850D02*
X38100Y57150D01*
X31750Y50800D01*
X19050Y50800D02*
X12700Y57150D01*
X38100Y95250D02*
X31750Y101600D01*
X38100Y95250D02*
X38100Y82550D01*
X31750Y76200D01*
X19050Y76200D02*
X12700Y82550D01*
X12700Y95250D01*
X19050Y101600D01*
X31750Y76200D02*
X38100Y69850D01*
X19050Y76200D02*
X12700Y69850D01*
X12700Y57150D01*
X38100Y133350D02*
X38100Y146050D01*
X38100Y133350D02*
X31750Y127000D01*
X19050Y127000D02*
X12700Y133350D01*
X31750Y127000D02*
X38100Y120650D01*
X38100Y107950D01*
X31750Y101600D01*
X19050Y101600D02*
X12700Y107950D01*
X12700Y120650D01*
X19050Y127000D01*
X38100Y171450D02*
X31750Y177800D01*
X38100Y171450D02*
X38100Y158750D01*
X31750Y152400D01*
X19050Y152400D02*
X12700Y158750D01*
X12700Y171450D01*
X19050Y177800D01*
X31750Y152400D02*
X38100Y146050D01*
X19050Y152400D02*
X12700Y146050D01*
X12700Y133350D01*
X38100Y209550D02*
X38100Y222250D01*
X38100Y209550D02*
X31750Y203200D01*
X19050Y203200D02*
X12700Y209550D01*
X31750Y203200D02*
X38100Y196850D01*
X38100Y184150D01*
X31750Y177800D01*
X19050Y177800D02*
X12700Y184150D01*
X12700Y196850D01*
X19050Y203200D01*
X19050Y228600D02*
X31750Y228600D01*
X38100Y222250D01*
X19050Y228600D02*
X12700Y222250D01*
X12700Y209550D01*
X38100Y44450D02*
X38100Y31750D01*
X31750Y25400D01*
X19050Y25400D01*
X12700Y31750D01*
X31750Y50800D02*
X38100Y44450D01*
X19050Y50800D02*
X12700Y44450D01*
X12700Y31750D01*
D11*
X40005Y185312D02*
X44831Y186384D01*
X41614Y187456D01*
X44831Y188529D01*
X40005Y189601D01*
X44831Y192536D02*
X44831Y194681D01*
X44831Y192536D02*
X40005Y192536D01*
X40005Y194681D01*
X42150Y194145D02*
X42150Y192536D01*
X40005Y197369D02*
X44831Y197369D01*
X42686Y198978D02*
X40005Y197369D01*
X42686Y198978D02*
X40005Y200586D01*
X44831Y200586D01*
X43490Y203672D02*
X41346Y203672D01*
X41275Y203674D01*
X41203Y203680D01*
X41133Y203689D01*
X41063Y203702D01*
X40993Y203719D01*
X40925Y203740D01*
X40858Y203764D01*
X40792Y203792D01*
X40728Y203823D01*
X40665Y203858D01*
X40605Y203896D01*
X40546Y203937D01*
X40490Y203981D01*
X40436Y204028D01*
X40385Y204077D01*
X40337Y204130D01*
X40291Y204185D01*
X40249Y204242D01*
X40209Y204302D01*
X40173Y204363D01*
X40140Y204427D01*
X40111Y204492D01*
X40085Y204558D01*
X40062Y204626D01*
X40043Y204695D01*
X40028Y204765D01*
X40017Y204835D01*
X40009Y204906D01*
X40005Y204977D01*
X40005Y205049D01*
X40009Y205120D01*
X40017Y205191D01*
X40028Y205261D01*
X40043Y205331D01*
X40062Y205400D01*
X40085Y205468D01*
X40111Y205534D01*
X40140Y205599D01*
X40173Y205663D01*
X40209Y205724D01*
X40249Y205784D01*
X40291Y205841D01*
X40337Y205896D01*
X40385Y205949D01*
X40436Y205998D01*
X40490Y206045D01*
X40546Y206089D01*
X40605Y206130D01*
X40665Y206168D01*
X40728Y206203D01*
X40792Y206234D01*
X40858Y206262D01*
X40925Y206286D01*
X40993Y206307D01*
X41063Y206324D01*
X41133Y206337D01*
X41203Y206346D01*
X41275Y206352D01*
X41346Y206354D01*
X41346Y206353D02*
X43490Y206353D01*
X43490Y206354D02*
X43561Y206352D01*
X43633Y206346D01*
X43703Y206337D01*
X43773Y206324D01*
X43843Y206307D01*
X43911Y206286D01*
X43978Y206262D01*
X44044Y206234D01*
X44108Y206203D01*
X44171Y206168D01*
X44231Y206130D01*
X44290Y206089D01*
X44346Y206045D01*
X44400Y205998D01*
X44451Y205949D01*
X44499Y205896D01*
X44545Y205841D01*
X44587Y205784D01*
X44627Y205724D01*
X44663Y205663D01*
X44696Y205599D01*
X44725Y205534D01*
X44751Y205468D01*
X44774Y205400D01*
X44793Y205331D01*
X44808Y205261D01*
X44819Y205191D01*
X44827Y205120D01*
X44831Y205049D01*
X44831Y204977D01*
X44827Y204906D01*
X44819Y204835D01*
X44808Y204765D01*
X44793Y204695D01*
X44774Y204626D01*
X44751Y204558D01*
X44725Y204492D01*
X44696Y204427D01*
X44663Y204363D01*
X44627Y204302D01*
X44587Y204242D01*
X44545Y204185D01*
X44499Y204130D01*
X44451Y204077D01*
X44400Y204028D01*
X44346Y203981D01*
X44290Y203937D01*
X44231Y203896D01*
X44171Y203858D01*
X44108Y203823D01*
X44044Y203792D01*
X43978Y203764D01*
X43911Y203740D01*
X43843Y203719D01*
X43773Y203702D01*
X43703Y203689D01*
X43633Y203680D01*
X43561Y203674D01*
X43490Y203672D01*
X44831Y210584D02*
X44829Y210649D01*
X44823Y210713D01*
X44813Y210777D01*
X44800Y210841D01*
X44782Y210903D01*
X44761Y210964D01*
X44737Y211024D01*
X44708Y211082D01*
X44676Y211139D01*
X44641Y211193D01*
X44603Y211245D01*
X44561Y211295D01*
X44517Y211342D01*
X44470Y211386D01*
X44420Y211428D01*
X44368Y211466D01*
X44314Y211501D01*
X44257Y211533D01*
X44199Y211562D01*
X44139Y211586D01*
X44078Y211607D01*
X44016Y211625D01*
X43952Y211638D01*
X43888Y211648D01*
X43824Y211654D01*
X43759Y211656D01*
X44831Y210584D02*
X44829Y210490D01*
X44823Y210396D01*
X44813Y210302D01*
X44800Y210209D01*
X44782Y210117D01*
X44761Y210025D01*
X44736Y209934D01*
X44707Y209844D01*
X44674Y209756D01*
X44638Y209669D01*
X44598Y209584D01*
X44555Y209500D01*
X44508Y209419D01*
X44458Y209339D01*
X44405Y209261D01*
X44348Y209186D01*
X44289Y209113D01*
X44226Y209043D01*
X44161Y208975D01*
X41077Y209110D02*
X41012Y209112D01*
X40948Y209118D01*
X40884Y209128D01*
X40820Y209141D01*
X40758Y209159D01*
X40697Y209180D01*
X40637Y209204D01*
X40579Y209233D01*
X40522Y209265D01*
X40468Y209300D01*
X40416Y209338D01*
X40366Y209380D01*
X40319Y209424D01*
X40275Y209471D01*
X40233Y209521D01*
X40195Y209573D01*
X40160Y209627D01*
X40128Y209684D01*
X40099Y209742D01*
X40075Y209802D01*
X40054Y209863D01*
X40036Y209925D01*
X40023Y209989D01*
X40013Y210053D01*
X40007Y210117D01*
X40005Y210182D01*
X40007Y210268D01*
X40012Y210354D01*
X40022Y210440D01*
X40035Y210525D01*
X40051Y210610D01*
X40071Y210694D01*
X40095Y210777D01*
X40122Y210859D01*
X40153Y210939D01*
X40187Y211019D01*
X40225Y211096D01*
X40266Y211172D01*
X40310Y211246D01*
X40357Y211319D01*
X40407Y211389D01*
X42015Y209646D02*
X41982Y209593D01*
X41945Y209542D01*
X41906Y209493D01*
X41864Y209446D01*
X41819Y209402D01*
X41772Y209361D01*
X41723Y209322D01*
X41671Y209286D01*
X41617Y209253D01*
X41562Y209224D01*
X41505Y209198D01*
X41446Y209175D01*
X41387Y209155D01*
X41326Y209139D01*
X41265Y209126D01*
X41202Y209117D01*
X41140Y209112D01*
X41077Y209110D01*
X42821Y211121D02*
X42854Y211174D01*
X42891Y211225D01*
X42930Y211274D01*
X42972Y211321D01*
X43017Y211365D01*
X43064Y211406D01*
X43113Y211445D01*
X43165Y211481D01*
X43219Y211514D01*
X43274Y211543D01*
X43331Y211569D01*
X43390Y211592D01*
X43449Y211612D01*
X43510Y211628D01*
X43571Y211641D01*
X43634Y211650D01*
X43696Y211655D01*
X43759Y211657D01*
X42820Y211121D02*
X42016Y209646D01*
X40005Y214462D02*
X44831Y214462D01*
X40005Y214462D02*
X40005Y215803D01*
X40007Y215873D01*
X40012Y215943D01*
X40022Y216013D01*
X40034Y216082D01*
X40051Y216150D01*
X40071Y216217D01*
X40094Y216284D01*
X40121Y216348D01*
X40151Y216412D01*
X40185Y216474D01*
X40221Y216533D01*
X40261Y216591D01*
X40304Y216647D01*
X40349Y216700D01*
X40398Y216751D01*
X40449Y216800D01*
X40502Y216845D01*
X40558Y216888D01*
X40616Y216928D01*
X40676Y216964D01*
X40737Y216998D01*
X40801Y217028D01*
X40865Y217055D01*
X40932Y217078D01*
X40999Y217098D01*
X41067Y217115D01*
X41136Y217127D01*
X41206Y217137D01*
X41276Y217142D01*
X41346Y217144D01*
X41346Y217143D02*
X43490Y217143D01*
X43490Y217144D02*
X43560Y217142D01*
X43630Y217137D01*
X43700Y217127D01*
X43769Y217115D01*
X43837Y217098D01*
X43904Y217078D01*
X43971Y217055D01*
X44035Y217028D01*
X44099Y216998D01*
X44161Y216964D01*
X44220Y216928D01*
X44278Y216888D01*
X44334Y216845D01*
X44387Y216800D01*
X44438Y216751D01*
X44487Y216700D01*
X44532Y216647D01*
X44575Y216591D01*
X44615Y216533D01*
X44651Y216473D01*
X44685Y216412D01*
X44715Y216348D01*
X44742Y216284D01*
X44765Y216217D01*
X44785Y216150D01*
X44802Y216082D01*
X44814Y216013D01*
X44824Y215943D01*
X44829Y215873D01*
X44831Y215803D01*
X44831Y214462D01*
X41077Y220131D02*
X40005Y221472D01*
X44831Y221472D01*
X44831Y222812D02*
X44831Y220131D01*
X44831Y225820D02*
X40005Y225820D01*
X44831Y225820D02*
X44831Y227965D01*
M02*
